<?xml version="1.0" encoding="UTF-8"?>
<svg id="a" xmlns="http://www.w3.org/2000/svg" xmlns:xlink="http://www.w3.org/1999/xlink" version="1.1" viewBox="0 0 550 550">
  <!-- Generator: Adobe Illustrator 29.5.1, SVG Export Plug-In . SVG Version: 2.1.0 Build 141)  -->
  <defs>
    <style>
      .st0 {
        stroke: #1d2d5c;
        stroke-miterlimit: 10;
        stroke-width: .2px;
      }

      .st0, .st1 {
        fill: #1d2d5c;
      }

      .st2 {
        fill: #e31837;
      }

      .st3 {
        fill: #f6f7f8;
      }
    </style>
  </defs>
  <path class="st3" d="M20,0h510c11,0,20,9,20,20v510c0,11-9,20-20,20H20c-11,0-20-9-20-20V20C0,9,9,0,20,0Z"/>
  <g>
    <a xlink:href="65.3996078431373">
      <path id="logoMark__x3C_PathItem_x3E_" class="st2" d="M277.4,302.5c-66.3,0-119.7-56.3-114.9-123.6,4-57.2,50.7-103.3,107.9-106.7,49.2-2.9,92.4,25.3,111.6,66.7.5,1,1.5,1.6,2.6,1.6h25.8c2,0,3.4-2,2.7-3.8-20.8-55.7-74.9-95.3-138.1-94.2-76.3,1.3-139.3,62.8-142.2,139.1-3.1,82.5,62.8,150.4,144.6,150.4s115.1-39.2,135.6-94.1c.7-1.8-.7-3.8-2.7-3.8h-25.8c-1.1,0-2.1.6-2.5,1.6-18.3,39.4-58.3,66.8-104.5,66.8Z"/>
    </a>
    <g>
      <path class="st1" d="M127.9,402.8h-7.1v-35h7.1v35Z"/>
      <path class="st1" d="M148.1,393.6c0-1.4-.4-2.5-1.1-3.2-.7-.7-2.1-1.5-4-2.3-3.5-1.3-6-2.9-7.6-4.7-1.5-1.8-2.3-3.9-2.3-6.3s1-5.3,3.1-7.1,4.8-2.7,8-2.7,4.1.5,5.8,1.4c1.7.9,3,2.2,3.9,3.8s1.4,3.5,1.4,5.6h-7.1c0-1.6-.3-2.9-1-3.7-.7-.9-1.7-1.3-3-1.3s-2.2.4-2.9,1.1-1,1.7-1,2.9.4,1.8,1.2,2.6c.8.8,2.1,1.6,4.1,2.4,3.4,1.2,5.9,2.8,7.5,4.5,1.5,1.8,2.3,4.1,2.3,6.9s-1,5.4-2.9,7.1c-1.9,1.7-4.6,2.6-7.9,2.6s-4.3-.5-6.2-1.4-3.3-2.3-4.4-4-1.6-3.8-1.6-6.1h7.1c0,2,.4,3.5,1.2,4.4.8.9,2.1,1.4,3.9,1.4s3.7-1.3,3.7-3.9Z"/>
      <path class="st1" d="M174.2,395.6h-9.7l-1.9,7.2h-7.5l11-35h6.5l11,35h-7.6l-1.9-7.2ZM166.1,389.7h6.5l-3.3-12.5-3.3,12.5Z"/>
      <path class="st1" d="M208.2,391.1c-.2,4-1.3,7-3.4,9.1-2.1,2.1-5,3.1-8.8,3.1s-7-1.3-9.1-3.9c-2.1-2.6-3.2-6.3-3.2-11.2v-5.9c0-4.8,1.1-8.5,3.3-11.1,2.2-2.6,5.2-3.9,9.1-3.9s6.7,1.1,8.7,3.2,3.1,5.2,3.4,9.2h-7.1c0-2.5-.4-4.2-1.1-5.1-.7-.9-2-1.4-3.8-1.4s-3.2.7-4,2c-.8,1.3-1.2,3.5-1.3,6.5v6.6c0,3.5.4,5.9,1.2,7.2.8,1.3,2.1,1.9,4,1.9s3.1-.5,3.9-1.4c.7-.9,1.1-2.5,1.2-4.9h7.1Z"/>
      <path class="st1" d="M226.8,395.6h-9.7l-1.9,7.2h-7.5l11-35h6.5l11,35h-7.6l-1.9-7.2ZM218.7,389.7h6.5l-3.3-12.5-3.3,12.5Z"/>
      <path class="st1" d="M261.7,395.6h-9.7l-1.9,7.2h-7.5l11-35h6.5l11,35h-7.6l-1.9-7.2ZM253.6,389.7h6.5l-3.3-12.5-3.3,12.5Z"/>
      <path class="st1" d="M271.7,388.9c0-4.3.7-7.5,2.2-9.6s3.5-3.2,6.3-3.2,3.7.9,5,2.6v-13h6.9v37h-6.2l-.3-2.6c-1.4,2.1-3.2,3.1-5.4,3.1s-4.8-1-6.2-3.1c-1.4-2.1-2.2-5.2-2.2-9.2v-2ZM278.5,390.7c0,2.6.3,4.4.8,5.4.5,1,1.5,1.5,2.8,1.5s2.4-.6,3.1-1.8v-11.9c-.7-1.3-1.7-1.9-3-1.9s-2.2.5-2.7,1.5c-.6,1-.9,2.8-.9,5.4v1.8Z"/>
      <path class="st1" d="M304.1,393.1l3.3-16.4h7.1l-7.1,26h-6.5l-7.2-26h7.1l3.3,16.4Z"/>
      <path class="st1" d="M328.6,402.8c-.2-.4-.4-1.1-.6-2-1.2,1.7-2.9,2.5-5,2.5s-4-.7-5.4-2.2c-1.4-1.4-2.2-3.3-2.2-5.6s.9-4.8,2.6-6.3c1.7-1.5,4.2-2.3,7.5-2.3h2.1v-2.1c0-1.2-.2-2-.6-2.5-.4-.5-1-.7-1.8-.7-1.7,0-2.6,1-2.6,3h-6.8c0-2.4.9-4.4,2.7-6,1.8-1.6,4.1-2.3,6.8-2.3s5.1.7,6.6,2.2c1.6,1.5,2.3,3.6,2.3,6.4v12.3c0,2.2.4,4,1,5.3v.4h-6.9ZM324.6,397.9c.8,0,1.4-.2,1.9-.5s.9-.7,1.2-1.1v-5.4h-1.6c-1.2,0-2.1.4-2.7,1.1-.7.7-1,1.7-1,3,0,1.9.8,2.9,2.3,2.9Z"/>
      <path class="st1" d="M345.2,376.7l.2,2.6c1.5-2,3.6-3.1,6-3.1,4.5,0,6.8,3.1,6.9,9.4v17.1h-6.8v-16.6c0-1.5-.2-2.5-.7-3.2-.4-.7-1.2-1-2.3-1s-2.2.6-2.9,1.9v18.9h-6.8v-26h6.4Z"/>
      <path class="st1" d="M371.2,397.6c2,0,3-1.3,3-3.9h6.4c0,2.8-.9,5.1-2.6,6.9-1.7,1.7-3.9,2.6-6.6,2.6s-5.9-1-7.7-3.1c-1.8-2.1-2.7-5.2-2.7-9.2v-2.1c0-4.1.9-7.2,2.6-9.4s4.3-3.2,7.7-3.2,5.1.9,6.8,2.7c1.7,1.8,2.5,4.3,2.5,7.5h-6.4c0-1.5-.3-2.6-.7-3.4-.5-.8-1.2-1.2-2.3-1.2s-2,.4-2.6,1.3c-.5.8-.8,2.5-.8,4.9v2.6c0,2.1.1,3.6.3,4.4.2.8.6,1.5,1,1.9.5.4,1.2.6,2,.6Z"/>
      <path class="st1" d="M393.5,403.2c-3.5,0-6.2-1-8.2-3.1-2-2.1-2.9-5.1-2.9-9v-2.1c0-4.1.9-7.3,2.7-9.5,1.8-2.2,4.4-3.3,7.7-3.3s5.7,1,7.4,3.1c1.7,2.1,2.5,5.2,2.5,9.3v3.3h-13.6c0,1.9.5,3.3,1.3,4.2.8.9,1.9,1.3,3.5,1.3,2.3,0,4.2-.8,5.7-2.3l2.7,4.1c-.8,1.2-2,2.1-3.6,2.8s-3.3,1.1-5.2,1.1ZM389.2,387.3h6.8v-.6c0-1.6-.3-2.7-.8-3.5s-1.3-1.2-2.5-1.2-2.1.4-2.6,1.3c-.5.9-.9,2.2-1,4.1Z"/>
      <path class="st1" d="M405.1,388.9c0-4.3.7-7.5,2.2-9.6s3.5-3.2,6.3-3.2,3.7.9,5,2.6v-13h6.9v37h-6.2l-.3-2.6c-1.4,2.1-3.2,3.1-5.4,3.1s-4.8-1-6.2-3.1c-1.4-2.1-2.2-5.2-2.2-9.2v-2ZM412,390.7c0,2.6.3,4.4.8,5.4.5,1,1.5,1.5,2.8,1.5s2.4-.6,3.1-1.8v-11.9c-.7-1.3-1.7-1.9-3-1.9s-2.2.5-2.7,1.5c-.6,1-.9,2.8-.9,5.4v1.8Z"/>
      <path class="st1" d="M170.6,417.5c0-1.1.3-1.9,1-2.6.7-.7,1.6-1,2.7-1s2,.3,2.7,1c.7.7,1,1.5,1,2.6s-.3,1.9-1,2.6c-.7.7-1.6,1-2.7,1s-2-.3-2.7-1c-.7-.7-1-1.6-1-2.6ZM177.7,450.3h-6.8v-26h6.8v26Z"/>
      <path class="st1" d="M188.7,424.2l.2,2.6c1.5-2,3.6-3.1,6-3.1,4.5,0,6.8,3.1,6.9,9.4v17.1h-6.8v-16.6c0-1.5-.2-2.5-.7-3.2s-1.2-1-2.3-1-2.2.6-2.9,1.9v18.9h-6.8v-26h6.4Z"/>
      <path class="st1" d="M232.2,443.1h-9.7l-1.9,7.2h-7.5l11-35h6.5l11,35h-7.6l-1.9-7.2ZM224.1,437.2h6.5l-3.3-12.5-3.3,12.5Z"/>
      <path class="st1" d="M250.8,450.3h-7.1v-35h7.1v35Z"/>
      <path class="st1" d="M281.9,443.1h-9.7l-1.9,7.2h-7.5l11-35h6.5l11,35h-7.6l-1.9-7.2ZM273.8,437.2h6.5l-3.3-12.5-3.3,12.5Z"/>
      <path class="st1" d="M304.6,447.9c-1.4,1.9-3.3,2.9-5.7,2.9s-4.2-.8-5.4-2.5c-1.2-1.6-1.9-4-1.9-7.2v-16.9h6.8v17c0,2.5.9,3.8,2.5,3.8s2.7-.7,3.4-2v-18.8h6.9v26h-6.4l-.2-2.4Z"/>
      <path class="st1" d="M314.7,436.4c0-4.3.7-7.5,2.2-9.6s3.5-3.2,6.3-3.2,3.7.9,5,2.6v-13h6.9v37h-6.2l-.3-2.6c-1.4,2.1-3.2,3.1-5.4,3.1s-4.8-1-6.2-3.1c-1.4-2.1-2.2-5.2-2.2-9.2v-2ZM321.5,438.2c0,2.6.3,4.4.8,5.4.5,1,1.5,1.5,2.8,1.5s2.4-.6,3.1-1.8v-11.9c-.7-1.3-1.7-1.9-3-1.9s-2.2.5-2.7,1.5c-.6,1-.9,2.8-.9,5.4v1.8Z"/>
      <path class="st1" d="M339.5,417.5c0-1.1.3-1.9,1-2.6.7-.7,1.6-1,2.7-1s2,.3,2.7,1c.7.7,1,1.5,1,2.6s-.3,1.9-1,2.6c-.7.7-1.6,1-2.7,1s-2-.3-2.7-1c-.7-.7-1-1.6-1-2.6ZM346.7,450.3h-6.8v-26h6.8v26Z"/>
      <path class="st1" d="M359.4,417.8v6.4h3.5v5.1h-3.5v12.9c0,1,.1,1.7.4,2.1.3.4.8.6,1.6.6s1.2,0,1.6-.2v5.3c-1.2.4-2.5.7-3.8.7-4.4,0-6.6-2.5-6.7-7.6v-13.9h-3v-5.1h3v-6.4h6.8Z"/>
      <path class="st0" d="M367.1,449.9v-5.1h-1.6c-.1,0-.2-.1-.2-.3h0c0-.2.1-.4.2-.4h3.8c.1,0,.2.1.2.3h0c0,.3-.1.4-.2.4h-1.6v5.1c0,.1-.1.3-.2.3h-.2c-.1,0-.2,0-.2-.3ZM369.9,449.8l1.2-5.7c0-.1,0-.2.2-.2h0c0,0,.1,0,.2.2l1.6,4.8h0l1.6-4.8c0-.2.1-.2.2-.2h0c.1,0,.2,0,.2.2l1.2,5.7c0,.2,0,.3-.2.3h-.2c-.1,0-.2,0-.2-.2l-1-4.3h0l-1.5,4.4c0,.1,0,.2-.2.2h-.2c0,0-.1,0-.2-.2l-1.5-4.4h0l-1,4.3c0,.1-.1.2-.2.2h-.2c-.2,0-.2-.1-.2-.3Z"/>
    </g>
    <g>
      <g>
        <path class="st1" d="M174.5,223.9l34-75.4c.3-.7.9-1.2,1.9-1.2h1.1c1,0,1.6.6,1.9,1.2l33.8,75.4c.7,1.5-.2,2.9-1.9,2.9h-4.5c-1,0-1.7-.7-1.9-1.2l-8.3-18.5h-39.8l-8.2,18.5c-.2.6-.9,1.2-1.9,1.2h-4.5c-1.7,0-2.6-1.5-1.9-2.9ZM227.7,200.2c-5.5-12.2-10.9-24.5-16.4-36.7h-.9l-16.4,36.7h33.6Z"/>
        <path class="st1" d="M240.9,223.9l35.1-75.4c.3-.7,1.1-1.2,1.9-1.2h1.1c.8,0,1.6.6,1.9,1.2l35.1,75.4c.7,1.5-.2,2.9-1.9,2.9h-12.4c-2,0-2.9-.7-3.9-2.8l-4-8.8h-30.5l-4,9c-.6,1.3-1.8,2.7-4,2.7h-12.3c-1.7,0-2.6-1.5-1.9-2.9ZM287,199.9l-8.5-18.5h-.1l-8.4,18.5h17Z"/>
        <path class="st1" d="M317.9,150.6c0-1.1,1-2.1,2.1-2.1h13.4c1.1,0,2.1,1,2.1,2.1v74.1c0,1.1-1,2.1-2.1,2.1h-13.4c-1.1,0-2.1-1-2.1-2.1v-74.1Z"/>
        <path class="st1" d="M338.6,223.9l34-75.4c.3-.7.9-1.2,1.9-1.2h1.1c1,0,1.6.6,1.9,1.2l33.8,75.4c.7,1.5-.2,2.9-1.9,2.9h-4.5c-1,0-1.7-.7-1.9-1.2l-8.3-18.5h-39.8l-8.2,18.5c-.2.6-.9,1.2-1.9,1.2h-4.5c-1.7,0-2.6-1.5-1.9-2.9ZM391.8,200.2c-5.5-12.2-10.9-24.5-16.4-36.7h-.9l-16.4,36.7h33.6Z"/>
      </g>
      <g>
        <path class="st1" d="M419,220.6h-3.8c-.2,0-.4.2-.4.4h0c0,.3.2.5.4.5h1.5v5c0,.2.2.4.3.4h.2c.2,0,.4-.2.4-.4v-5h1.4c.2,0,.4-.2.4-.4h0c0-.3-.2-.5-.4-.5Z"/>
        <path class="st1" d="M426.3,226.4l-1.2-5.7c0-.1,0-.3-.3-.3h0c-.2,0-.3.2-.3.3l-1.5,4.5-1.5-4.5c0-.1-.1-.3-.3-.3h0c-.2,0-.3.1-.3.3l-1.2,5.7c0,.1,0,.3,0,.3,0,0,.1.1.2.1h.2c.1,0,.3,0,.3-.3l.9-3.9,1.3,4c0,.2.2.2.3.2h.2c0,0,.2,0,.3-.2l1.3-4,.9,3.9c0,.2.2.3.3.3h.2c.1,0,.2,0,.2-.1,0,0,0-.2,0-.3Z"/>
      </g>
    </g>
  </g>
</svg>