<?xml version="1.0" encoding="UTF-8"?><svg xmlns="http://www.w3.org/2000/svg" xmlns:xlink="http://www.w3.org/1999/xlink" viewBox="0 0 550 550"><defs><style>.cls-1{stroke:#1d2d5c;stroke-miterlimit:10;stroke-width:.25px;}.cls-1,.cls-2{fill:#1d2d5c;}.cls-3{fill:#f6f7f8;}.cls-4{fill:#6cb33f;}</style></defs><g id="Background"><path class="cls-3" d="M20,0h510c11,0,20,9,20,20v510c0,11-9,20-20,20H20c-11,0-20-9-20-20V20C0,9,9,0,20,0Z"/></g><g id="Certification_logo"><a xlink:href="65.3996078431373"><path id="logoMark_PathItem_" class="cls-4" d="M279.24,302.49c-66.3,0-119.7-56.27-114.95-123.56,4.04-57.2,50.69-103.3,107.93-106.72,49.24-2.94,92.36,25.26,111.59,66.7.46,1,1.45,1.65,2.55,1.65h25.83c1.97,0,3.37-1.96,2.68-3.8-20.76-55.75-74.86-95.27-138.08-94.23-76.27,1.25-139.29,62.83-142.2,139.06-3.15,82.52,62.82,150.4,144.63,150.4,62.12,0,115.06-39.15,135.59-94.11.69-1.84-.71-3.81-2.68-3.81h-25.85c-1.1,0-2.08.64-2.55,1.64-18.34,39.39-58.28,66.78-104.52,66.78Z"/></a><path class="cls-2" d="M126.54,402.76h-7.08v-35.05h7.08v35.05Z"/><path class="cls-2" d="M147.29,393.56c0-1.43-.37-2.51-1.1-3.24-.73-.73-2.06-1.49-3.98-2.27-3.51-1.33-6.04-2.89-7.58-4.68-1.54-1.79-2.31-3.9-2.31-6.34,0-2.95,1.05-5.32,3.14-7.11s4.75-2.68,7.98-2.68c2.15,0,4.07.45,5.75,1.36,1.69.91,2.98,2.19,3.89,3.84s1.36,3.53,1.36,5.63h-7.05c0-1.64-.35-2.88-1.05-3.74-.7-.86-1.71-1.29-3.02-1.29-1.24,0-2.2.37-2.89,1.1s-1.04,1.71-1.04,2.95c0,.96.39,1.83,1.16,2.61.77.78,2.13,1.58,4.09,2.42,3.42,1.24,5.9,2.75,7.45,4.55,1.55,1.8,2.32,4.08,2.32,6.86,0,3.05-.97,5.43-2.91,7.15-1.94,1.72-4.58,2.58-7.92,2.58-2.26,0-4.32-.47-6.19-1.4s-3.32-2.26-4.37-4-1.58-3.78-1.58-6.14h7.1c0,2.02.39,3.49,1.18,4.41.79.92,2.07,1.37,3.85,1.37,2.47,0,3.71-1.31,3.71-3.92Z"/><path class="cls-2" d="M173.87,395.59h-9.65l-1.88,7.17h-7.49l10.95-35.05h6.48l11.02,35.05h-7.56l-1.88-7.17ZM165.75,389.69h6.55l-3.27-12.49-3.27,12.49Z"/><path class="cls-2" d="M208.36,391.09c-.18,4-1.3,7.02-3.37,9.08-2.07,2.05-4.99,3.08-8.76,3.08-3.96,0-7-1.3-9.11-3.91-2.11-2.61-3.17-6.33-3.17-11.16v-5.9c0-4.81,1.09-8.53,3.27-11.13,2.18-2.61,5.22-3.91,9.1-3.91s6.72,1.07,8.7,3.2,3.11,5.2,3.38,9.2h-7.1c-.06-2.47-.45-4.18-1.14-5.12-.7-.94-1.98-1.41-3.84-1.41s-3.23.66-4.02,1.99c-.79,1.32-1.2,3.5-1.25,6.54v6.62c0,3.48.39,5.87,1.17,7.17.78,1.3,2.11,1.95,4.01,1.95s3.15-.45,3.85-1.36c.71-.91,1.11-2.55,1.2-4.92h7.08Z"/><path class="cls-2" d="M227.48,395.59h-9.65l-1.88,7.17h-7.49l10.95-35.05h6.48l11.02,35.05h-7.56l-1.88-7.17ZM219.37,389.69h6.55l-3.27-12.49-3.27,12.49Z"/><path class="cls-2" d="M263.35,395.59h-9.65l-1.88,7.17h-7.49l10.95-35.05h6.48l11.02,35.05h-7.56l-1.88-7.17ZM255.24,389.69h6.55l-3.27-12.49-3.27,12.49Z"/><path class="cls-2" d="M273.82,388.94c0-4.27.72-7.45,2.17-9.56s3.55-3.15,6.31-3.15c2.01,0,3.67.87,5.01,2.6v-13.05h6.86v36.98h-6.19l-.31-2.65c-1.4,2.09-3.19,3.13-5.39,3.13-2.73,0-4.81-1.04-6.25-3.13-1.44-2.09-2.17-5.15-2.2-9.2v-1.97ZM280.66,390.65c0,2.57.27,4.36.82,5.38.55,1.02,1.47,1.53,2.77,1.53s2.37-.6,3.06-1.8v-11.89c-.67-1.28-1.68-1.93-3.03-1.93-1.25,0-2.17.5-2.74,1.52-.58,1.01-.87,2.81-.87,5.39v1.81Z"/><path class="cls-2" d="M306.73,393.13l3.3-16.42h7.1l-7.15,26.05h-6.5l-7.17-26.05h7.13l3.3,16.42Z"/><path class="cls-2" d="M331.72,402.76c-.19-.4-.39-1.08-.58-2.02-1.22,1.67-2.87,2.5-4.96,2.5s-3.99-.72-5.43-2.17c-1.44-1.44-2.15-3.31-2.15-5.61,0-2.73.87-4.84,2.61-6.33,1.74-1.49,4.25-2.25,7.52-2.29h2.07v-2.09c0-1.17-.2-2-.6-2.48-.4-.48-.99-.72-1.76-.72-1.7,0-2.55,1-2.55,2.99h-6.81c0-2.41.9-4.39,2.71-5.96,1.81-1.56,4.09-2.35,6.85-2.35s5.07.74,6.63,2.23,2.35,3.61,2.35,6.37v12.25c.03,2.25.35,4,.96,5.27v.41h-6.86ZM327.7,397.9c.75,0,1.4-.15,1.93-.46s.92-.67,1.18-1.08v-5.42h-1.64c-1.16,0-2.07.37-2.73,1.11-.67.74-1,1.72-1,2.96,0,1.93.75,2.89,2.26,2.89Z"/><path class="cls-2" d="M348.79,376.71l.19,2.58c1.54-2.04,3.55-3.06,6.04-3.06,4.48,0,6.78,3.14,6.91,9.41v17.12h-6.84v-16.61c0-1.48-.22-2.55-.66-3.21-.44-.67-1.22-1-2.32-1-1.24,0-2.2.63-2.89,1.9v18.92h-6.84v-26.05h6.4Z"/><path class="cls-2" d="M375.24,397.59c1.97,0,2.98-1.28,3.01-3.85h6.4c-.03,2.84-.91,5.14-2.62,6.88-1.72,1.75-3.93,2.62-6.64,2.62-3.35,0-5.91-1.04-7.68-3.13-1.77-2.09-2.66-5.16-2.7-9.22v-2.07c0-4.09.87-7.21,2.61-9.36s4.31-3.23,7.72-3.23c2.87,0,5.13.89,6.79,2.66,1.65,1.77,2.5,4.29,2.53,7.55h-6.4c-.02-1.46-.26-2.58-.72-3.37-.47-.79-1.24-1.18-2.31-1.18-1.19,0-2.04.42-2.55,1.26-.51.84-.79,2.48-.82,4.9v2.65c0,2.12.1,3.6.31,4.44.21.84.55,1.46,1.04,1.85.48.39,1.16.59,2.05.59Z"/><path class="cls-2" d="M398.04,403.24c-3.5,0-6.23-1.04-8.18-3.13-1.96-2.09-2.94-5.07-2.94-8.96v-2.07c0-4.11.9-7.28,2.7-9.51,1.8-2.23,4.37-3.35,7.73-3.35s5.74,1.05,7.39,3.14c1.65,2.09,2.5,5.19,2.53,9.29v3.34h-13.55c.1,1.93.52,3.35,1.28,4.24.75.89,1.92,1.34,3.49,1.34,2.28,0,4.18-.78,5.71-2.33l2.67,4.12c-.83,1.16-2.05,2.09-3.63,2.8s-3.31,1.07-5.18,1.07ZM393.76,387.26h6.81v-.63c-.03-1.56-.29-2.74-.77-3.54s-1.32-1.2-2.5-1.2-2.05.43-2.59,1.28c-.54.85-.85,2.21-.95,4.09Z"/><path class="cls-2" d="M410.2,388.94c0-4.27.72-7.45,2.17-9.56s3.55-3.15,6.31-3.15c2.01,0,3.67.87,5.01,2.6v-13.05h6.86v36.98h-6.19l-.31-2.65c-1.4,2.09-3.19,3.13-5.39,3.13-2.73,0-4.81-1.04-6.25-3.13-1.44-2.09-2.17-5.15-2.2-9.2v-1.97ZM417.03,390.65c0,2.57.27,4.36.82,5.38.54,1.02,1.47,1.53,2.77,1.53s2.37-.6,3.06-1.8v-11.89c-.67-1.28-1.68-1.93-3.03-1.93-1.25,0-2.17.5-2.74,1.52-.58,1.01-.87,2.81-.87,5.39v1.81Z"/><path class="cls-2" d="M148.99,417.47c0-1.06.34-1.93,1.01-2.6.67-.67,1.57-1.01,2.7-1.01s2.02.34,2.7,1.01c.67.67,1.01,1.54,1.01,2.6s-.33,1.91-1,2.6c-.67.69-1.57,1.04-2.71,1.04s-2.04-.34-2.71-1.04c-.67-.69-1-1.56-1-2.6ZM156.14,450.26h-6.84v-26.05h6.84v26.05Z"/><path class="cls-2" d="M167.65,424.22l.19,2.58c1.54-2.04,3.55-3.06,6.04-3.06,4.48,0,6.78,3.14,6.91,9.41v17.12h-6.84v-16.61c0-1.48-.22-2.55-.66-3.21s-1.22-1-2.32-1c-1.24,0-2.2.63-2.89,1.9v18.92h-6.84v-26.05h6.4Z"/><path class="cls-2" d="M212.13,443.09h-9.65l-1.88,7.17h-7.49l10.95-35.05h6.48l11.02,35.05h-7.56l-1.88-7.17ZM204.02,437.19h6.55l-3.27-12.49-3.27,12.49Z"/><path class="cls-2" d="M231.25,450.26h-7.08v-35.05h7.08v35.05Z"/><path class="cls-2" d="M261.39,441.07c0-1.43-.37-2.51-1.1-3.24-.73-.73-2.06-1.49-3.98-2.27-3.51-1.33-6.04-2.89-7.58-4.68-1.54-1.79-2.31-3.9-2.31-6.34,0-2.95,1.05-5.32,3.14-7.11,2.09-1.79,4.75-2.68,7.98-2.68,2.15,0,4.07.45,5.75,1.36,1.69.91,2.98,2.19,3.89,3.84.91,1.65,1.36,3.53,1.36,5.63h-7.05c0-1.64-.35-2.88-1.05-3.74-.7-.86-1.71-1.29-3.02-1.29-1.24,0-2.2.37-2.89,1.1s-1.04,1.71-1.04,2.95c0,.96.39,1.83,1.16,2.61.77.78,2.13,1.58,4.09,2.42,3.42,1.24,5.9,2.75,7.45,4.55,1.55,1.8,2.32,4.08,2.32,6.86,0,3.05-.97,5.43-2.91,7.15-1.94,1.72-4.58,2.58-7.92,2.58-2.26,0-4.32-.47-6.19-1.4s-3.32-2.26-4.37-4c-1.05-1.73-1.58-3.78-1.58-6.14h7.1c0,2.02.39,3.49,1.18,4.41.79.91,2.07,1.37,3.85,1.37,2.47,0,3.71-1.31,3.71-3.92Z"/><path class="cls-2" d="M281.42,450.74c-3.5,0-6.23-1.04-8.18-3.13-1.96-2.09-2.94-5.07-2.94-8.95v-2.07c0-4.11.9-7.28,2.7-9.51s4.37-3.35,7.73-3.35,5.74,1.04,7.39,3.14c1.65,2.09,2.5,5.19,2.53,9.29v3.34h-13.55c.1,1.93.52,3.35,1.28,4.24.75.89,1.92,1.34,3.49,1.34,2.28,0,4.18-.78,5.71-2.33l2.67,4.12c-.83,1.16-2.05,2.09-3.63,2.8-1.59.71-3.31,1.07-5.18,1.07ZM277.13,434.76h6.81v-.63c-.03-1.56-.29-2.74-.77-3.54s-1.32-1.2-2.5-1.2-2.05.43-2.59,1.28c-.54.85-.85,2.21-.95,4.09Z"/><path class="cls-2" d="M302.92,445.09c1.97,0,2.98-1.28,3.01-3.85h6.4c-.03,2.84-.91,5.14-2.62,6.88-1.72,1.75-3.93,2.62-6.64,2.62-3.35,0-5.91-1.04-7.68-3.13-1.77-2.09-2.66-5.16-2.7-9.22v-2.07c0-4.09.87-7.21,2.61-9.36,1.74-2.15,4.31-3.23,7.71-3.23,2.87,0,5.14.89,6.79,2.66,1.65,1.77,2.5,4.29,2.53,7.55h-6.4c-.02-1.46-.26-2.58-.72-3.37-.47-.79-1.24-1.18-2.31-1.18-1.19,0-2.04.42-2.55,1.26-.51.84-.79,2.48-.82,4.9v2.65c0,2.12.1,3.6.31,4.44.21.84.55,1.46,1.04,1.85.48.39,1.16.59,2.05.59Z"/><path class="cls-2" d="M328,447.88c-1.41,1.91-3.31,2.86-5.68,2.86s-4.21-.82-5.44-2.47c-1.24-1.64-1.85-4.04-1.85-7.19v-16.87h6.81v17.04c.03,2.54.87,3.8,2.53,3.8,1.56,0,2.68-.67,3.37-2.02v-18.82h6.86v26.05h-6.4l-.19-2.38Z"/><path class="cls-2" d="M352.31,430.79l-2.26-.19c-1.86,0-3.12.82-3.78,2.46v17.21h-6.84v-26.05h6.43l.19,2.82c1.08-2.2,2.56-3.3,4.45-3.3.77,0,1.4.1,1.88.31l-.07,6.74Z"/><path class="cls-2" d="M355.8,417.47c0-1.06.34-1.93,1.01-2.6.67-.67,1.57-1.01,2.7-1.01s2.02.34,2.7,1.01c.67.67,1.01,1.54,1.01,2.6s-.33,1.91-1,2.6c-.67.69-1.57,1.04-2.71,1.04s-2.04-.34-2.71-1.04c-.67-.69-1-1.56-1-2.6ZM362.95,450.26h-6.84v-26.05h6.84v26.05Z"/><path class="cls-2" d="M376.14,417.81v6.4h3.49v5.1h-3.49v12.95c0,1.03.14,1.74.42,2.12.28.39.82.58,1.62.58.66,0,1.2-.06,1.61-.17l-.05,5.3c-1.16.43-2.41.65-3.75.65-4.4,0-6.62-2.52-6.67-7.57v-13.86h-3.01v-5.1h3.01v-6.4h6.81Z"/><path class="cls-2" d="M391.72,438.92l3.47-14.71h7.27l-8.57,29.95c-1.28,4.41-3.7,6.62-7.25,6.62-.82,0-1.75-.15-2.79-.46v-5.32l.79.02c1.06,0,1.86-.21,2.4-.61.54-.41.94-1.12,1.22-2.13l.53-1.76-7.51-26.31h7.32l3.13,14.71Z"/><path class="cls-2" d="M157.85,462.71l6.62,25.35,6.6-25.35h9.24v35.05h-7.1v-9.48l.65-14.61-7,24.1h-4.81l-7.01-24.1.65,14.61v9.48h-7.08v-35.05h9.24Z"/><path class="cls-2" d="M197.04,497.76c-.19-.4-.39-1.08-.58-2.02-1.22,1.67-2.87,2.5-4.96,2.5s-3.99-.72-5.43-2.17c-1.44-1.44-2.15-3.31-2.15-5.61,0-2.73.87-4.84,2.61-6.33,1.74-1.49,4.25-2.25,7.52-2.29h2.07v-2.09c0-1.17-.2-2-.6-2.48-.4-.48-.99-.72-1.76-.72-1.7,0-2.55,1-2.55,2.99h-6.81c0-2.41.9-4.39,2.71-5.96,1.81-1.56,4.09-2.35,6.85-2.35s5.07.74,6.63,2.23c1.56,1.48,2.35,3.61,2.35,6.37v12.25c.03,2.25.35,4,.96,5.27v.41h-6.86ZM193.02,492.9c.75,0,1.4-.15,1.93-.46.53-.3.92-.67,1.18-1.08v-5.42h-1.64c-1.16,0-2.07.37-2.73,1.11-.67.74-1,1.72-1,2.96,0,1.93.75,2.89,2.26,2.89Z"/><path class="cls-2" d="M213.12,471.72l.19,2.58c1.54-2.04,3.55-3.06,6.04-3.06,4.48,0,6.78,3.14,6.91,9.41v17.12h-6.84v-16.61c0-1.48-.22-2.55-.66-3.21s-1.22-1-2.32-1c-1.24,0-2.2.63-2.89,1.9v18.92h-6.84v-26.05h6.4Z"/><path class="cls-2" d="M241.56,497.76c-.19-.4-.39-1.08-.58-2.02-1.22,1.67-2.87,2.5-4.96,2.5s-3.99-.72-5.43-2.17c-1.44-1.44-2.15-3.31-2.15-5.61,0-2.73.87-4.84,2.61-6.33,1.74-1.49,4.25-2.25,7.52-2.29h2.07v-2.09c0-1.17-.2-2-.6-2.48-.4-.48-.99-.72-1.76-.72-1.7,0-2.55,1-2.55,2.99h-6.81c0-2.41.9-4.39,2.71-5.96,1.81-1.56,4.09-2.35,6.85-2.35s5.07.74,6.63,2.23c1.56,1.48,2.35,3.61,2.35,6.37v12.25c.03,2.25.35,4,.96,5.27v.41h-6.86ZM237.54,492.9c.75,0,1.4-.15,1.93-.46.53-.3.92-.67,1.18-1.08v-5.42h-1.64c-1.16,0-2.07.37-2.73,1.11-.67.74-1,1.72-1,2.96,0,1.93.75,2.89,2.26,2.89Z"/><path class="cls-2" d="M250.58,483.94c0-4.27.77-7.45,2.31-9.56,1.54-2.1,3.7-3.15,6.48-3.15,2.36,0,4.18.93,5.46,2.79l.27-2.31h6.14v26.05c0,3.32-.93,5.86-2.79,7.62-1.86,1.76-4.53,2.64-8.02,2.64-1.43,0-2.93-.29-4.5-.85-1.57-.57-2.74-1.3-3.51-2.18l2.29-4.72c.64.67,1.48,1.22,2.5,1.65,1.03.42,2,.64,2.91.64,1.52,0,2.62-.37,3.29-1.09.67-.73,1.01-1.91,1.02-3.53v-2.24c-1.3,1.7-2.99,2.55-5.08,2.55-2.78,0-4.92-1.08-6.44-3.24s-2.29-5.2-2.32-9.14v-1.93ZM257.4,485.65c0,2.41.31,4.16.94,5.26.63,1.1,1.62,1.65,2.99,1.65s2.43-.51,3.1-1.52v-12.45c-.71-1.11-1.73-1.66-3.06-1.66s-2.35.55-3,1.66c-.65,1.11-.97,2.89-.97,5.34v1.71Z"/><path class="cls-2" d="M285.24,498.24c-3.5,0-6.23-1.04-8.18-3.13-1.96-2.09-2.94-5.07-2.94-8.95v-2.07c0-4.11.9-7.28,2.7-9.51s4.37-3.35,7.73-3.35,5.74,1.04,7.39,3.14c1.65,2.09,2.5,5.19,2.53,9.29v3.34h-13.55c.1,1.93.52,3.35,1.28,4.24.75.89,1.92,1.34,3.49,1.34,2.28,0,4.18-.78,5.71-2.33l2.67,4.12c-.83,1.16-2.05,2.09-3.63,2.8-1.59.71-3.31,1.07-5.18,1.07ZM280.95,482.26h6.81v-.63c-.03-1.56-.29-2.74-.77-3.54s-1.32-1.2-2.5-1.2-2.05.43-2.59,1.28c-.54.85-.85,2.21-.95,4.09Z"/><path class="cls-2" d="M303.48,471.72l.19,2.41c1.52-1.93,3.54-2.89,6.04-2.89s4.44,1.17,5.51,3.51c1.49-2.34,3.62-3.51,6.38-3.51,4.56,0,6.89,3.15,7,9.46v17.07h-6.81v-16.63c0-1.51-.21-2.58-.63-3.23-.42-.64-1.12-.96-2.12-.96-1.27,0-2.21.78-2.84,2.33l.05.82v17.67h-6.81v-16.59c0-1.49-.2-2.57-.6-3.24-.4-.67-1.12-1-2.14-1-1.17,0-2.1.63-2.79,1.9v18.92h-6.81v-26.05h6.38Z"/><path class="cls-2" d="M342.39,498.24c-3.5,0-6.23-1.04-8.18-3.13-1.96-2.09-2.94-5.07-2.94-8.95v-2.07c0-4.11.9-7.28,2.7-9.51s4.37-3.35,7.73-3.35,5.74,1.04,7.39,3.14c1.65,2.09,2.49,5.19,2.53,9.29v3.34h-13.55c.1,1.93.52,3.35,1.28,4.24s1.92,1.34,3.49,1.34c2.28,0,4.18-.78,5.71-2.33l2.67,4.12c-.83,1.16-2.04,2.09-3.63,2.8-1.59.71-3.31,1.07-5.18,1.07ZM338.1,482.26h6.81v-.63c-.03-1.56-.29-2.74-.77-3.54-.48-.8-1.32-1.2-2.5-1.2s-2.05.43-2.59,1.28-.85,2.21-.95,4.09Z"/><path class="cls-2" d="M360.71,471.72l.19,2.58c1.54-2.04,3.55-3.06,6.04-3.06,4.48,0,6.78,3.14,6.91,9.41v17.12h-6.84v-16.61c0-1.48-.22-2.55-.66-3.21s-1.22-1-2.32-1c-1.24,0-2.2.63-2.89,1.9v18.92h-6.84v-26.05h6.4Z"/><path class="cls-2" d="M385.67,465.31v6.4h3.49v5.1h-3.49v12.95c0,1.03.14,1.74.42,2.12.28.39.82.58,1.62.58.66,0,1.2-.06,1.61-.17l-.05,5.3c-1.16.43-2.41.65-3.75.65-4.4,0-6.62-2.52-6.67-7.57v-13.86h-3.01v-5.1h3.01v-6.4h6.81Z"/><path class="cls-1" d="M393.14,497.39v-5.12h-1.59c-.15,0-.24-.14-.24-.3v-.1c0-.14.11-.26.24-.26h3.8c.13,0,.24.12.24.26v.14c0,.16-.11.26-.24.26h-1.57v5.12c0,.14-.11.26-.24.26h-.18c-.11,0-.22-.1-.22-.26ZM395.88,497.35l1.24-5.73c.04-.14.07-.2.2-.2h.09c.07,0,.13.04.18.2l1.57,4.82h.02l1.59-4.82c.06-.16.11-.2.18-.2h.09c.13,0,.17.06.2.2l1.24,5.73c.04.16-.02.29-.18.29h-.2c-.11,0-.18-.06-.22-.2l-.97-4.27h-.02l-1.46,4.41c-.04.12-.09.16-.17.16h-.18c-.07,0-.13-.04-.17-.16l-1.48-4.41h-.02l-.95,4.27c-.04.14-.11.2-.22.2h-.2c-.17,0-.22-.14-.18-.29Z"/><path class="cls-2" d="M175.38,216.22l26.9-59.56c.27-.53.71-.97,1.5-.97h.88c.8,0,1.24.44,1.5.97l26.73,59.56c.53,1.15-.18,2.3-1.5,2.3h-3.54c-.8,0-1.33-.53-1.5-.97l-6.55-14.6h-31.42l-6.46,14.6c-.18.44-.71.97-1.5.97h-3.54c-1.33,0-2.04-1.15-1.5-2.3ZM217.42,197.45c-4.34-9.65-8.58-19.38-12.92-29.03h-.71l-12.92,29.03h26.55Z"/><path class="cls-2" d="M227.86,216.22l27.7-59.56c.27-.53.89-.97,1.5-.97h.88c.62,0,1.24.44,1.5.97l27.7,59.56c.53,1.15-.18,2.3-1.5,2.3h-9.82c-1.59,0-2.3-.53-3.1-2.21l-3.19-6.99h-24.07l-3.19,7.08c-.44,1.06-1.42,2.12-3.19,2.12h-9.74c-1.33,0-2.04-1.15-1.5-2.3ZM264.23,197.28l-6.73-14.6h-.09l-6.64,14.6h13.45Z"/><path class="cls-2" d="M288.66,158.25c0-.89.8-1.68,1.68-1.68h10.62c.89,0,1.68.8,1.68,1.68v58.59c0,.88-.8,1.68-1.68,1.68h-10.62c-.88,0-1.68-.8-1.68-1.68v-58.59Z"/><path class="cls-2" d="M307.77,209.22c.44-.53.89-1.15,1.33-1.68.88-1.15,1.86-1.86,3.1-.8.62.53,7.08,6.73,14.96,6.73,7.17,0,11.86-4.51,11.86-9.73,0-6.11-5.31-9.74-15.49-13.98-9.74-4.25-15.58-8.23-15.58-18.32,0-6.02,4.78-15.75,18.85-15.75,8.67,0,15.13,4.51,15.13,4.51.53.27,1.59,1.33.53,3.01-.35.53-.71,1.15-1.06,1.68-.8,1.24-1.68,1.59-3.1.8-.62-.35-6.19-4.07-11.59-4.07-9.38,0-12.21,6.02-12.21,9.74,0,5.93,4.51,9.38,11.95,12.48,11.95,4.87,19.65,9.38,19.65,19.65,0,9.2-8.76,15.93-19.12,15.93s-17.52-6.11-18.67-7.17c-.71-.62-1.59-1.33-.53-3.01Z"/><path class="cls-2" d="M358.84,156.92c.18-.71.89-1.24,1.59-1.24h1.42c.62,0,1.33.44,1.5.97l17.52,48.76h.44l17.26-48.76c.18-.53.89-.97,1.5-.97h1.42c.71,0,1.42.53,1.59,1.24l11.42,59.47c.27,1.24-.27,2.12-1.59,2.12h-3.54c-.71,0-1.42-.62-1.59-1.24l-7.88-45.58h-.35l-16.28,46.73c-.18.53-.97.97-1.5.97h-1.59c-.53,0-1.33-.44-1.5-.97l-16.46-46.73h-.35l-7.7,45.58c-.09.62-.89,1.24-1.59,1.24h-3.54c-1.33,0-1.86-.88-1.59-2.12l11.42-59.47Z"/><path class="cls-2" d="M420.85,212.25h-3.81c-.2,0-.36.17-.36.38v.1c0,.24.16.42.36.42h1.47v4.99c0,.24.17.38.34.38h.18c.2,0,.36-.17.36-.38v-4.99h1.45c.21,0,.36-.16.36-.38v-.14c0-.21-.17-.38-.36-.38Z"/><path class="cls-2" d="M428.13,218.08l-1.25-5.73c-.04-.14-.1-.29-.32-.29h-.09c-.18,0-.26.15-.3.28l-1.48,4.49-1.47-4.49c-.05-.13-.12-.28-.3-.28h-.09c-.23,0-.28.15-.32.3l-1.24,5.73c-.03.13-.01.25.06.33.06.07.15.11.25.11h.2c.12,0,.28-.05.34-.29l.86-3.87,1.35,4.01c.06.2.19.25.28.25h.18c.1,0,.22-.04.28-.24l1.33-4.02.88,3.87c.06.24.22.29.34.29h.2c.1,0,.19-.04.25-.11.07-.08.09-.2.06-.33Z"/></g></svg>