<?xml version="1.0" encoding="UTF-8"?>
<svg id="a" xmlns="http://www.w3.org/2000/svg" version="1.1" viewBox="0 0 550 550">
  <defs>
    <style>
      .cls-1, .cls-2, .cls-3 {
        stroke-width: 0px;
      }

      .cls-1, .cls-4 {
        fill: #0d2c6c;
      }

      .cls-2 {
        fill: #33ac90;
      }

      .cls-3 {
        fill: #f6f7f8;
      }

      .cls-4 {
        stroke: #1e2e5c;
        stroke-miterlimit: 10;
        stroke-width: .3px;
      }
    </style>
  </defs>
  <path class="cls-3" d="M20,0h510c11,0,20,9,20,20v510c0,11-9,20-20,20H20c-11,0-20-9-20-20V20C0,9,9,0,20,0Z"/>
  <g>
    <path id="logoMark_PathItem_" data-name="logoMark PathItem " class="cls-2" d="M278.6,303.2c-63.9,0-115.6-52-115.5-115.9,0-2.7.1-5.4.3-8.1,4-57.4,50.8-103.6,108.2-107,47.5-2.9,91.9,23.7,111.9,66.9.5,1,1.5,1.6,2.6,1.6h25.9c1.6,0,2.9-1.3,2.9-2.8,0-.3,0-.7-.2-1-21.5-57.7-77-95.5-138.5-94.5-76.5,1.3-139.7,63-142.6,139.5-3.1,80.1,59.3,147.6,139.4,150.7,62.6,2.5,119.7-35.6,141.7-94.3.5-1.5-.2-3.1-1.7-3.7-.3-.1-.6-.2-1-.2h-25.9c-1.1,0-2.1.6-2.5,1.6-18.9,40.8-59.8,66.9-104.8,67Z"/>
    <path class="cls-1" d="M74,391.7c-.2,4-1.3,7-3.4,9.1-2.1,2.1-5,3.1-8.8,3.1s-7-1.3-9.1-3.9c-2.1-2.6-3.2-6.3-3.2-11.2v-5.9c0-4.8,1.1-8.5,3.3-11.2,2.2-2.6,5.2-3.9,9.1-3.9s6.7,1.1,8.7,3.2,3.1,5.2,3.4,9.2h-7.1c0-2.5-.4-4.2-1.1-5.1-.7-.9-2-1.4-3.8-1.4s-3.2.7-4,2c-.8,1.3-1.2,3.5-1.3,6.5v6.6c0,3.5.4,5.9,1.2,7.2.8,1.3,2.1,2,4,2s3.2-.5,3.9-1.4c.7-.9,1.1-2.6,1.2-4.9h7.1Z"/>
    <path class="cls-1" d="M88.3,403.9c-3.5,0-6.2-1-8.2-3.1-2-2.1-2.9-5.1-2.9-9v-2.1c0-4.1.9-7.3,2.7-9.5s4.4-3.4,7.7-3.4,5.7,1,7.4,3.1c1.7,2.1,2.5,5.2,2.5,9.3v3.3h-13.6c0,1.9.5,3.4,1.3,4.3.8.9,1.9,1.3,3.5,1.3,2.3,0,4.2-.8,5.7-2.3l2.7,4.1c-.8,1.2-2.1,2.1-3.6,2.8-1.6.7-3.3,1.1-5.2,1.1ZM84,387.9h6.8v-.6c0-1.6-.3-2.7-.8-3.5s-1.3-1.2-2.5-1.2-2.1.4-2.6,1.3c-.5.9-.9,2.2-1,4.1Z"/>
    <path class="cls-1" d="M114,383.9l-2.3-.2c-1.9,0-3.1.8-3.8,2.5v17.2h-6.9v-26.1h6.4l.2,2.8c1.1-2.2,2.6-3.3,4.5-3.3s1.4.1,1.9.3v6.8Z"/>
    <path class="cls-1" d="M126.4,370.9v6.4h3.5v5.1h-3.5v13c0,1,.1,1.7.4,2.1.3.4.8.6,1.6.6s1.2,0,1.6-.2v5.3c-1.2.4-2.5.7-3.8.7-4.4,0-6.6-2.5-6.7-7.6v-13.9h-3v-5.1h3v-6.4h6.8Z"/>
    <path class="cls-1" d="M133.4,370.6c0-1.1.3-1.9,1-2.6.7-.7,1.6-1,2.7-1s2,.3,2.7,1c.7.7,1,1.5,1,2.6s-.3,1.9-1,2.6c-.7.7-1.6,1-2.7,1s-2-.3-2.7-1c-.7-.7-1-1.6-1-2.6ZM140.6,403.4h-6.9v-26.1h6.9v26.1Z"/>
    <path class="cls-1" d="M147.2,403.4v-21h-3.2v-5.1h3.2v-2.3c0-2.9.8-5.1,2.3-6.7,1.5-1.6,3.6-2.4,6.2-2.4s1.8.2,3.1.5v5.5c-.5-.1-1.1-.2-1.7-.2-2,0-3,1.2-3,3.6v2.1h4.1v5.1h-4.1v21h-6.9Z"/>
    <path class="cls-1" d="M161.5,370.6c0-1.1.3-1.9,1-2.6.7-.7,1.6-1,2.7-1s2,.3,2.7,1c.7.7,1,1.5,1,2.6s-.3,1.9-1,2.6c-.7.7-1.6,1-2.7,1s-2-.3-2.7-1c-.7-.7-1-1.6-1-2.6ZM168.7,403.4h-6.9v-26.1h6.9v26.1Z"/>
    <path class="cls-1" d="M184.3,403.9c-3.5,0-6.2-1-8.2-3.1-2-2.1-2.9-5.1-2.9-9v-2.1c0-4.1.9-7.3,2.7-9.5s4.4-3.4,7.7-3.4,5.7,1,7.4,3.1c1.7,2.1,2.5,5.2,2.5,9.3v3.3h-13.6c0,1.9.5,3.4,1.3,4.3.8.9,1.9,1.3,3.5,1.3,2.3,0,4.2-.8,5.7-2.3l2.7,4.1c-.8,1.2-2.1,2.1-3.6,2.8-1.6.7-3.3,1.1-5.2,1.1ZM180,387.9h6.8v-.6c0-1.6-.3-2.7-.8-3.5s-1.3-1.2-2.5-1.2-2.1.4-2.6,1.3c-.5.9-.9,2.2-1,4.1Z"/>
    <path class="cls-1" d="M196.2,389.6c0-4.3.7-7.5,2.2-9.6s3.6-3.2,6.3-3.2,3.7.9,5,2.6v-13.1h6.9v37.1h-6.2l-.3-2.7c-1.4,2.1-3.2,3.1-5.4,3.1s-4.8-1-6.3-3.1c-1.4-2.1-2.2-5.2-2.2-9.2v-2ZM203.1,391.3c0,2.6.3,4.4.8,5.4.5,1,1.5,1.5,2.8,1.5s2.4-.6,3.1-1.8v-11.9c-.7-1.3-1.7-1.9-3-1.9s-2.2.5-2.8,1.5c-.6,1-.9,2.8-.9,5.4v1.8Z"/>
    <path class="cls-1" d="M256.7,391.7c-.2,4-1.3,7-3.4,9.1-2.1,2.1-5,3.1-8.8,3.1s-7-1.3-9.1-3.9c-2.1-2.6-3.2-6.3-3.2-11.2v-5.9c0-4.8,1.1-8.5,3.3-11.2,2.2-2.6,5.2-3.9,9.1-3.9s6.7,1.1,8.7,3.2,3.1,5.2,3.4,9.2h-7.1c0-2.5-.4-4.2-1.1-5.1-.7-.9-2-1.4-3.8-1.4s-3.2.7-4,2c-.8,1.3-1.2,3.5-1.3,6.5v6.6c0,3.5.4,5.9,1.2,7.2.8,1.3,2.1,2,4,2s3.2-.5,3.9-1.4c.7-.9,1.1-2.6,1.2-4.9h7.1Z"/>
    <path class="cls-1" d="M268.8,392.1l3.5-14.7h7.3l-8.6,30c-1.3,4.4-3.7,6.6-7.3,6.6s-1.8-.2-2.8-.5v-5.3h.8c1.1,0,1.9-.2,2.4-.6s.9-1.1,1.2-2.1l.5-1.8-7.5-26.4h7.3l3.1,14.7Z"/>
    <path class="cls-1" d="M302.6,391.2c0,4.2-.7,7.4-2,9.5-1.4,2.1-3.5,3.2-6.4,3.2s-4.1-1-5.5-3.1l-.2,2.6h-6.3v-37.1h6.8v13.1c1.3-1.7,3-2.6,5.1-2.6s5,1.1,6.4,3.1c1.4,2.1,2,5.2,2.1,9.2v2ZM295.8,389.5c0-2.8-.3-4.6-.8-5.5-.5-.9-1.5-1.4-2.8-1.4s-2.5.7-3.1,2v11.9c.6,1.2,1.7,1.8,3.2,1.8s2.2-.4,2.7-1.3c.5-.9.8-2.5.8-5v-2.5Z"/>
    <path class="cls-1" d="M317,403.9c-3.5,0-6.2-1-8.2-3.1-2-2.1-2.9-5.1-2.9-9v-2.1c0-4.1.9-7.3,2.7-9.5,1.8-2.2,4.4-3.4,7.7-3.4s5.7,1,7.4,3.1c1.7,2.1,2.5,5.2,2.5,9.3v3.3h-13.6c0,1.9.5,3.4,1.3,4.3.8.9,1.9,1.3,3.5,1.3,2.3,0,4.2-.8,5.7-2.3l2.7,4.1c-.8,1.2-2.1,2.1-3.6,2.8s-3.3,1.1-5.2,1.1ZM312.7,387.9h6.8v-.6c0-1.6-.3-2.7-.8-3.5s-1.3-1.2-2.5-1.2-2.1.4-2.6,1.3c-.5.9-.9,2.2-1,4.1Z"/>
    <path class="cls-1" d="M342.7,383.9l-2.3-.2c-1.9,0-3.1.8-3.8,2.5v17.2h-6.9v-26.1h6.4l.2,2.8c1.1-2.2,2.6-3.3,4.5-3.3s1.4.1,1.9.3v6.8Z"/>
    <path class="cls-1" d="M357.6,396.4c0-.6-.3-1.1-.8-1.6s-1.8-1.2-3.7-2c-2.8-1.1-4.7-2.3-5.8-3.5-1.1-1.2-1.6-2.7-1.6-4.6s.8-4.2,2.5-5.7c1.6-1.5,3.8-2.2,6.5-2.2s5.2.7,6.9,2.2c1.7,1.5,2.6,3.5,2.6,6h-6.8c0-2.1-.9-3.2-2.7-3.2s-1.3.2-1.8.7c-.5.5-.7,1.1-.7,1.9s.3,1.1.8,1.5c.5.4,1.7,1.1,3.6,1.9,2.8,1,4.7,2.2,5.9,3.4,1.1,1.3,1.7,2.9,1.7,4.9s-.9,4.2-2.6,5.6-4.1,2.1-6.9,2.1-3.6-.4-5.1-1.1c-1.5-.7-2.6-1.8-3.4-3.1-.8-1.3-1.2-2.8-1.2-4.3h6.5c0,1.2.3,2.1.8,2.7s1.4.9,2.6.9c1.8,0,2.8-.8,2.8-2.5Z"/>
    <path class="cls-1" d="M378.7,403.9c-3.5,0-6.2-1-8.2-3.1-2-2.1-2.9-5.1-2.9-9v-2.1c0-4.1.9-7.3,2.7-9.5,1.8-2.2,4.4-3.4,7.7-3.4s5.7,1,7.4,3.1c1.7,2.1,2.5,5.2,2.5,9.3v3.3h-13.6c0,1.9.5,3.4,1.3,4.3.8.9,1.9,1.3,3.5,1.3,2.3,0,4.2-.8,5.7-2.3l2.7,4.1c-.8,1.2-2.1,2.1-3.6,2.8s-3.3,1.1-5.2,1.1ZM374.4,387.9h6.8v-.6c0-1.6-.3-2.7-.8-3.5s-1.3-1.2-2.5-1.2-2.1.4-2.6,1.3c-.5.9-.9,2.2-1,4.1Z"/>
    <path class="cls-1" d="M401,398.2c2,0,3-1.3,3-3.9h6.4c0,2.8-.9,5.1-2.6,6.9-1.7,1.8-3.9,2.6-6.7,2.6s-5.9-1-7.7-3.1c-1.8-2.1-2.7-5.2-2.7-9.2v-2.1c0-4.1.9-7.2,2.6-9.4s4.3-3.2,7.7-3.2,5.1.9,6.8,2.7c1.7,1.8,2.5,4.3,2.5,7.6h-6.4c0-1.5-.3-2.6-.7-3.4-.5-.8-1.2-1.2-2.3-1.2s-2,.4-2.6,1.3c-.5.8-.8,2.5-.8,4.9v2.7c0,2.1.1,3.6.3,4.5.2.8.6,1.5,1,1.9.5.4,1.2.6,2.1.6Z"/>
    <path class="cls-1" d="M426.9,401c-1.4,1.9-3.3,2.9-5.7,2.9s-4.2-.8-5.5-2.5c-1.2-1.6-1.9-4-1.9-7.2v-16.9h6.8v17.1c0,2.5.9,3.8,2.5,3.8s2.7-.7,3.4-2v-18.9h6.9v26.1h-6.4l-.2-2.4Z"/>
    <path class="cls-1" d="M451,383.9l-2.3-.2c-1.9,0-3.1.8-3.8,2.5v17.2h-6.9v-26.1h6.4l.2,2.8c1.1-2.2,2.6-3.3,4.5-3.3s1.4.1,1.9.3v6.8Z"/>
    <path class="cls-1" d="M454.3,370.6c0-1.1.3-1.9,1-2.6s1.6-1,2.7-1,2,.3,2.7,1,1,1.5,1,2.6-.3,1.9-1,2.6c-.7.7-1.6,1-2.7,1s-2-.3-2.7-1c-.7-.7-1-1.6-1-2.6ZM461.4,403.4h-6.9v-26.1h6.9v26.1Z"/>
    <path class="cls-1" d="M474.4,370.9v6.4h3.5v5.1h-3.5v13c0,1,.1,1.7.4,2.1.3.4.8.6,1.6.6s1.2,0,1.6-.2v5.3c-1.2.4-2.5.7-3.8.7-4.4,0-6.6-2.5-6.7-7.6v-13.9h-3v-5.1h3v-6.4h6.8Z"/>
    <path class="cls-1" d="M489.8,392.1l3.5-14.7h7.3l-8.6,30c-1.3,4.4-3.7,6.6-7.3,6.6s-1.8-.2-2.8-.5v-5.3h.8c1.1,0,1.9-.2,2.4-.6.5-.4.9-1.1,1.2-2.1l.5-1.8-7.5-26.4h7.3l3.1,14.7Z"/>
    <path class="cls-1" d="M116.2,436.6c0,4.7-1.1,8.4-3.3,11-2.2,2.6-5.3,3.9-9.3,3.9s-7-1.3-9.3-3.9c-2.3-2.6-3.4-6.2-3.4-10.8v-6c0-4.8,1.1-8.6,3.4-11.3s5.3-4.1,9.3-4.1,7,1.3,9.2,4c2.3,2.7,3.4,6.4,3.4,11.2v6ZM109.1,430.7c0-3.2-.5-5.5-1.4-7.1-.9-1.5-2.3-2.3-4.2-2.3s-3.3.7-4.2,2.2c-.9,1.5-1.4,3.8-1.4,6.8v6.2c0,3.1.5,5.3,1.4,6.8.9,1.5,2.3,2.2,4.2,2.2s3.2-.7,4.1-2.1c.9-1.4,1.4-3.6,1.4-6.6v-6.1Z"/>
    <path class="cls-1" d="M141,438.8c0,4.1-.7,7.2-2.1,9.4-1.4,2.2-3.5,3.3-6.3,3.3s-3.8-.9-5.1-2.6v12.1h-6.8v-36.1h6.3l.2,2.4c1.3-1.9,3.1-2.9,5.3-2.9s4.9,1,6.3,3c1.4,2,2.1,5.1,2.2,9.3v2ZM134.2,437.1c0-2.5-.3-4.3-.8-5.4s-1.5-1.6-2.8-1.6-2.4.6-3.1,1.8v12.2c.6,1.1,1.6,1.7,3.1,1.7s2.3-.6,2.8-1.7.8-2.9.8-5.3v-1.7Z"/>
    <path class="cls-1" d="M155.5,451.5c-3.5,0-6.2-1-8.2-3.1-2-2.1-2.9-5.1-2.9-9v-2.1c0-4.1.9-7.3,2.7-9.5s4.4-3.4,7.7-3.4,5.7,1,7.4,3.1c1.7,2.1,2.5,5.2,2.5,9.3v3.3h-13.6c0,1.9.5,3.4,1.3,4.3.8.9,1.9,1.3,3.5,1.3,2.3,0,4.2-.8,5.7-2.3l2.7,4.1c-.8,1.2-2.1,2.1-3.6,2.8-1.6.7-3.3,1.1-5.2,1.1ZM151.2,435.5h6.8v-.6c0-1.6-.3-2.7-.8-3.5s-1.3-1.2-2.5-1.2-2.1.4-2.6,1.3c-.5.9-.9,2.2-1,4.1Z"/>
    <path class="cls-1" d="M181.2,431.5l-2.3-.2c-1.9,0-3.1.8-3.8,2.5v17.2h-6.9v-26.1h6.4l.2,2.8c1.1-2.2,2.6-3.3,4.5-3.3s1.4.1,1.9.3v6.8Z"/>
    <path class="cls-1" d="M196.1,451c-.2-.4-.4-1.1-.6-2-1.2,1.7-2.9,2.5-5,2.5s-4-.7-5.4-2.2c-1.4-1.4-2.2-3.3-2.2-5.6s.9-4.8,2.6-6.3c1.7-1.5,4.3-2.3,7.5-2.3h2.1v-2.1c0-1.2-.2-2-.6-2.5-.4-.5-1-.7-1.8-.7-1.7,0-2.6,1-2.6,3h-6.8c0-2.4.9-4.4,2.7-6,1.8-1.6,4.1-2.4,6.9-2.4s5.1.7,6.6,2.2c1.6,1.5,2.4,3.6,2.4,6.4v12.3c0,2.3.4,4,1,5.3v.4h-6.9ZM192.1,446.1c.8,0,1.4-.2,1.9-.5s.9-.7,1.2-1.1v-5.4h-1.6c-1.2,0-2.1.4-2.7,1.1-.7.7-1,1.7-1,3,0,1.9.8,2.9,2.3,2.9Z"/>
    <path class="cls-1" d="M214.7,418.5v6.4h3.5v5.1h-3.5v13c0,1,.1,1.7.4,2.1.3.4.8.6,1.6.6s1.2,0,1.6-.2v5.3c-1.2.4-2.5.7-3.8.7-4.4,0-6.6-2.5-6.7-7.6v-13.9h-3v-5.1h3v-6.4h6.8Z"/>
    <path class="cls-1" d="M221.7,418.2c0-1.1.3-1.9,1-2.6.7-.7,1.6-1,2.7-1s2,.3,2.7,1c.7.7,1,1.5,1,2.6s-.3,1.9-1,2.6c-.7.7-1.6,1-2.7,1s-2-.3-2.7-1c-.7-.7-1-1.6-1-2.6ZM228.8,451h-6.9v-26.1h6.9v26.1Z"/>
    <path class="cls-1" d="M233.1,437.1c0-4,.9-7.1,2.8-9.3,1.9-2.3,4.4-3.4,7.7-3.4s5.9,1.1,7.8,3.4c1.9,2.3,2.8,5.4,2.8,9.4v1.7c0,4-.9,7.1-2.8,9.3-1.8,2.2-4.4,3.4-7.8,3.4s-5.9-1.1-7.8-3.4c-1.9-2.2-2.8-5.4-2.8-9.3v-1.7ZM239.9,438.8c0,4.7,1.2,7,3.7,7s3.5-1.9,3.7-5.8v-2.9c0-2.4-.3-4.1-1-5.3-.7-1.1-1.6-1.7-2.8-1.7s-2.1.6-2.7,1.7-1,2.9-1,5.3v1.7Z"/>
    <path class="cls-1" d="M264.4,424.9l.2,2.6c1.5-2,3.6-3.1,6.1-3.1,4.5,0,6.8,3.1,6.9,9.4v17.2h-6.9v-16.6c0-1.5-.2-2.6-.7-3.2-.4-.7-1.2-1-2.3-1s-2.2.6-2.9,1.9v19h-6.9v-26.1h6.4Z"/>
    <path class="cls-1" d="M293.8,444c0-.6-.3-1.1-.8-1.6s-1.8-1.2-3.7-2c-2.8-1.1-4.7-2.3-5.8-3.5-1.1-1.2-1.6-2.7-1.6-4.6s.8-4.2,2.5-5.7c1.6-1.5,3.8-2.2,6.5-2.2s5.2.7,6.9,2.2c1.7,1.5,2.6,3.5,2.6,6h-6.8c0-2.1-.9-3.2-2.7-3.2s-1.3.2-1.8.7c-.5.5-.7,1.1-.7,1.9s.3,1.1.8,1.5c.5.4,1.7,1.1,3.6,1.9,2.8,1,4.7,2.2,5.9,3.4,1.1,1.3,1.7,2.9,1.7,4.9s-.9,4.2-2.6,5.6-4.1,2.1-6.9,2.1-3.6-.4-5.1-1.1c-1.5-.7-2.6-1.8-3.4-3.1-.8-1.3-1.2-2.8-1.2-4.3h6.5c0,1.2.3,2.1.8,2.7s1.4.9,2.6.9c1.8,0,2.8-.8,2.8-2.5Z"/>
    <path class="cls-1" d="M332.7,443.8h-9.7l-1.9,7.2h-7.5l11-35.1h6.5l11,35.1h-7.6l-1.9-7.2ZM324.6,437.9h6.6l-3.3-12.5-3.3,12.5Z"/>
    <path class="cls-1" d="M349.9,424.9l.2,2.6c1.5-2,3.6-3.1,6.1-3.1,4.5,0,6.8,3.1,6.9,9.4v17.2h-6.9v-16.6c0-1.5-.2-2.6-.7-3.2-.4-.7-1.2-1-2.3-1s-2.2.6-2.9,1.9v19h-6.9v-26.1h6.4Z"/>
    <path class="cls-1" d="M380.2,451c-.2-.4-.4-1.1-.6-2-1.2,1.7-2.9,2.5-5,2.5s-4-.7-5.4-2.2-2.2-3.3-2.2-5.6.9-4.8,2.6-6.3,4.3-2.3,7.5-2.3h2.1v-2.1c0-1.2-.2-2-.6-2.5s-1-.7-1.8-.7c-1.7,0-2.6,1-2.6,3h-6.8c0-2.4.9-4.4,2.7-6s4.1-2.4,6.9-2.4,5.1.7,6.6,2.2,2.4,3.6,2.4,6.4v12.3c0,2.3.4,4,1,5.3v.4h-6.9ZM376.1,446.1c.8,0,1.4-.2,1.9-.5.5-.3.9-.7,1.2-1.1v-5.4h-1.6c-1.2,0-2.1.4-2.7,1.1s-1,1.7-1,3c0,1.9.8,2.9,2.3,2.9Z"/>
    <path class="cls-1" d="M397.9,451h-6.9v-37.1h6.9v37.1Z"/>
    <path class="cls-1" d="M411.3,439.7l3.5-14.7h7.3l-8.6,30c-1.3,4.4-3.7,6.6-7.3,6.6s-1.8-.2-2.8-.5v-5.3h.8c1.1,0,1.9-.2,2.4-.6.5-.4.9-1.1,1.2-2.1l.5-1.8-7.5-26.4h7.3l3.1,14.7Z"/>
    <path class="cls-1" d="M436.3,444c0-.6-.3-1.1-.8-1.6s-1.8-1.2-3.7-2c-2.8-1.1-4.7-2.3-5.8-3.5-1.1-1.2-1.6-2.7-1.6-4.6s.8-4.2,2.5-5.7c1.6-1.5,3.8-2.2,6.5-2.2s5.2.7,6.9,2.2c1.7,1.5,2.6,3.5,2.6,6h-6.8c0-2.1-.9-3.2-2.7-3.2s-1.3.2-1.8.7c-.5.5-.7,1.1-.7,1.9s.3,1.1.8,1.5c.5.4,1.7,1.1,3.6,1.9,2.8,1,4.7,2.2,5.9,3.4,1.1,1.3,1.7,2.9,1.7,4.9s-.9,4.2-2.6,5.6-4.1,2.1-6.9,2.1-3.6-.4-5.1-1.1c-1.5-.7-2.6-1.8-3.4-3.1-.8-1.3-1.2-2.8-1.2-4.3h6.5c0,1.2.3,2.1.8,2.7s1.4.9,2.6.9c1.8,0,2.8-.8,2.8-2.5Z"/>
    <path class="cls-1" d="M454.9,418.5v6.4h3.5v5.1h-3.5v13c0,1,.1,1.7.4,2.1.3.4.8.6,1.6.6s1.2,0,1.6-.2v5.3c-1.2.4-2.5.7-3.8.7-4.4,0-6.6-2.5-6.7-7.6v-13.9h-3v-5.1h3v-6.4h6.8Z"/>
    <g>
      <path class="cls-1" d="M219.6,157.8c8.6,0,15,2.7,20.9,8,.8.7.8,1.7,0,2.4l-6.7,7c-.6.6-1.6.6-2.2,0-3.2-2.8-7.4-4.4-11.6-4.4-9.7,0-16.9,8.1-16.9,17.8s7.2,17.5,17,17.5,8.4-1.5,11.5-4.1c.6-.5,1.7-.5,2.2,0l6.7,7.2c.6.6.5,1.7,0,2.3-5.9,5.7-13.3,8.4-20.9,8.4-17.2,0-31.1-13.7-31.1-30.9s13.9-31.1,31.1-31.1Z"/>
      <path class="cls-1" d="M273.7,157.8c8.6,0,15,2.7,20.9,8,.8.7.8,1.7,0,2.4l-6.7,7c-.6.6-1.6.6-2.2,0-3.2-2.8-7.4-4.4-11.6-4.4-9.7,0-16.9,8.1-16.9,17.8s7.2,17.5,17,17.5,8.4-1.5,11.5-4.1c.6-.5,1.7-.5,2.2,0l6.7,7.2c.6.6.5,1.7,0,2.3-5.9,5.7-13.3,8.4-20.9,8.4-17.2,0-31.1-13.7-31.1-30.9s13.9-31.1,31.1-31.1Z"/>
      <path class="cls-1" d="M327.6,157.8c17.2,0,31,13.9,31,31.1s-13.8,30.9-31,30.9-30.9-13.7-30.9-30.9,13.7-31.1,30.9-31.1ZM327.6,206c9.5,0,17.2-7.8,17.2-17.2s-7.8-17.3-17.2-17.3-17.2,7.8-17.2,17.3,7.8,17.2,17.2,17.2Z"/>
      <path class="cls-1" d="M357.5,216.7l27-58c.3-.5.9-.9,1.5-.9h.9c.6,0,1.2.4,1.5.9l27,58c.5,1.1-.2,2.2-1.5,2.2h-9.6c-1.6,0-2.2-.5-3-2.2l-3.1-6.8h-23.4l-3.1,6.9c-.4,1-1.4,2.1-3.1,2.1h-9.5c-1.3,0-2-1.1-1.5-2.2ZM392.9,198.3l-6.6-14.2h0l-6.5,14.2h13.1Z"/>
    </g>
    <path class="cls-4" d="M420,218.3v-5.6h-1.7c-.2,0-.3-.2-.3-.3h0c0-.3.1-.4.3-.4h4.2c.1,0,.3.1.3.3v.2c0,.2-.1.3-.3.3h-1.7v5.6c0,.2-.1.3-.3.3h-.2c-.1,0-.2-.1-.2-.3ZM423,218.2l1.4-6.3c0-.2,0-.2.2-.2h.1c0,0,.1,0,.2.2l1.7,5.3h0l1.7-5.3c0-.2.1-.2.2-.2h.1c.1,0,.2,0,.2.2l1.4,6.3c0,.2,0,.3-.2.3h-.2c-.1,0-.2,0-.2-.2l-1.1-4.7h0l-1.6,4.8c0,.1-.1.2-.2.2h-.2c0,0-.1,0-.2-.2l-1.6-4.8h0l-1,4.7c0,.2-.1.2-.2.2h-.2c-.2,0-.2-.2-.2-.3Z"/>
    <path class="cls-4" d="M463.5,450.6v-5.6h-1.7c-.2,0-.3-.2-.3-.3h0c0-.3.1-.4.3-.4h4.2c.1,0,.3.1.3.3v.2c0,.2-.1.3-.3.3h-1.7v5.6c0,.2-.1.3-.3.3h-.2c-.1,0-.2-.1-.2-.3ZM466.6,450.6l1.4-6.3c0-.2,0-.2.2-.2h.1c0,0,.1,0,.2.2l1.7,5.3h0l1.7-5.3c0-.2.1-.2.2-.2h.1c.1,0,.2,0,.2.2l1.4,6.3c0,.2,0,.3-.2.3h-.2c-.1,0-.2,0-.2-.2l-1.1-4.7h0l-1.6,4.8c0,.1,0,.2-.2.2h-.2c0,0-.1,0-.2-.2l-1.6-4.8h0l-1,4.7c0,.2-.1.2-.2.2h-.2c-.2,0-.2-.2-.2-.3Z"/>
  </g>
</svg>