<?xml version="1.0" encoding="UTF-8"?><svg id="a" xmlns="http://www.w3.org/2000/svg" viewBox="0 0 550 550"><path d="M20,0h510c11,0,20,9,20,20v510c0,11-9,20-20,20H20c-11,0-20-9-20-20V20C0,9,9,0,20,0Z" fill="#f6f7f8" stroke-width="0"/><path id="b" d="M278.52,303.36c-63.95-.11-115.71-51.99-115.6-115.94,0-2.68.11-5.37.34-8.05,4.02-57.35,50.87-103.64,108.33-107.1,47.52-2.91,92.01,23.7,111.91,66.97.45,1.01,1.45,1.68,2.57,1.68h25.94c1.57,0,2.91-1.23,2.91-2.8,0-.34-.11-.67-.22-1.01-21.47-57.69-77.03-95.59-138.52-94.58-76.58,1.34-139.75,63.06-142.66,139.53-3.13,80.16,59.25,147.69,139.42,150.82,62.61,2.46,119.85-35.55,141.76-94.36.56-1.45-.22-3.13-1.68-3.69-.34-.11-.67-.22-1.01-.22h-25.94c-1.12,0-2.12.67-2.57,1.68-19.01,40.92-59.93,67.08-104.98,67.08Z" fill="#0f69a0" stroke-width="0"/><path d="M82.54,391.91c-.11,2.35-.45,4.02-1.23,4.92-.67.89-2.01,1.34-3.91,1.34s-3.24-.67-4.02-1.9c-.78-1.34-1.12-3.69-1.12-7.16v-6.6c0-3.02.45-5.25,1.23-6.6.78-1.34,2.12-2.01,4.02-2.01s3.13.45,3.8,1.45c.67.89,1.12,2.68,1.12,5.14h7.16c-.22-4.02-1.45-7.04-3.35-9.17-2.01-2.12-4.92-3.24-8.72-3.24s-6.93,1.34-9.17,3.91-3.24,6.37-3.24,11.18v5.93c0,4.81,1.01,8.61,3.13,11.18s5.14,3.91,9.17,3.91c3.8,0,6.71-1.01,8.83-3.13,2.12-2.01,3.24-5.14,3.35-9.06h-7.04v-.11Z" fill="#1d2d5c" stroke-width="0"/><path d="M102.55,377.04c-3.35,0-5.93,1.12-7.71,3.35s-2.68,5.37-2.68,9.5v2.12c0,3.91,1.01,6.93,2.91,8.94,2.01,2.12,4.7,3.13,8.16,3.13,1.9,0,3.58-.34,5.14-1.12,1.57-.67,2.8-1.68,3.69-2.8l-2.68-4.14c-1.57,1.57-3.47,2.35-5.7,2.35-1.57,0-2.8-.45-3.47-1.34-.78-.89-1.23-2.35-1.23-4.25h13.64v-3.35c0-4.14-.89-7.27-2.57-9.28-1.68-2.12-4.14-3.13-7.49-3.13ZM105.79,387.99h-6.82c.11-1.9.45-3.24,1.01-4.14.56-.89,1.45-1.23,2.57-1.23,1.23,0,2.01.45,2.46,1.23.45.78.78,2.01.78,3.58v.56Z" fill="#1d2d5c" stroke-width="0"/><path d="M123.01,386.32c.67-1.68,1.9-2.46,3.8-2.46l2.24.22.11-6.71c-.45-.22-1.12-.34-1.9-.34-1.9,0-3.35,1.12-4.47,3.35l-.22-2.8h-6.48v26.16h6.82v-17.44h.11Z" fill="#1d2d5c" stroke-width="0"/><path d="M145.03,403.42v-5.25c-.45.11-1.01.22-1.57.22-.78,0-1.34-.22-1.68-.56s-.45-1.12-.45-2.12v-13.08h3.47v-5.14h-3.47v-6.37h-6.82v6.37h-3.02v5.14h3.02v13.86c0,5.03,2.24,7.6,6.71,7.6,1.34,0,2.68-.22,3.8-.67Z" fill="#1d2d5c" stroke-width="0"/><path d="M152.08,374.35c1.12,0,2.01-.34,2.68-1.01.67-.67,1.01-1.57,1.01-2.57s-.34-1.9-1.01-2.57c-.67-.67-1.57-1.01-2.68-1.01s-2.01.34-2.68,1.01c-.67.67-1.01,1.57-1.01,2.57s.34,1.9,1.01,2.57,1.57,1.01,2.68,1.01Z" fill="#1d2d5c" stroke-width="0"/><rect x="148.72" y="377.48" width="6.82" height="26.16" fill="#1d2d5c" stroke-width="0"/><path d="M169.07,375.36c0-2.46,1.01-3.58,3.02-3.58.67,0,1.23.11,1.68.22v-5.48c-1.23-.34-2.24-.45-3.13-.45-2.68,0-4.7.78-6.26,2.35-1.45,1.57-2.24,3.8-2.24,6.71v2.35h-3.13v5.14h3.13v21.02h6.82v-21.02h4.02v-5.14h-4.02v-2.12h.11Z" fill="#1d2d5c" stroke-width="0"/><rect x="176.9" y="377.48" width="6.82" height="26.16" fill="#1d2d5c" stroke-width="0"/><path d="M182.93,368.09c-.67-.67-1.57-1.01-2.68-1.01s-2.01.34-2.68,1.01c-.67.67-1.01,1.57-1.01,2.57s.34,1.9,1.01,2.57c.67.67,1.57,1.01,2.68,1.01s2.01-.34,2.68-1.01c.67-.67,1.01-1.57,1.01-2.57.11-1.01-.22-1.9-1.01-2.57Z" fill="#1d2d5c" stroke-width="0"/><path d="M198.36,404.09c1.9,0,3.58-.34,5.14-1.12,1.57-.67,2.8-1.68,3.69-2.8l-2.68-4.14c-1.57,1.57-3.47,2.35-5.7,2.35-1.57,0-2.8-.45-3.47-1.34-.78-.89-1.23-2.35-1.23-4.25h13.64v-3.35c0-4.14-.89-7.27-2.57-9.28-1.68-2.12-4.14-3.13-7.38-3.13s-5.93,1.12-7.71,3.35c-1.79,2.24-2.68,5.37-2.68,9.5v2.12c0,3.91,1.01,6.93,2.91,8.94,1.79,2.01,4.47,3.13,8.05,3.13ZM195.01,383.97c.56-.89,1.45-1.23,2.57-1.23,1.23,0,2.01.45,2.46,1.23s.78,2.01.78,3.58v.67h-6.82c.11-2.01.45-3.47,1.01-4.25Z" fill="#1d2d5c" stroke-width="0"/><path d="M218.82,377.04c-2.8,0-4.92,1.01-6.37,3.13s-2.12,5.25-2.12,9.61v2.01c0,4.02.78,7.16,2.24,9.17,1.45,2.12,3.58,3.13,6.26,3.13,2.24,0,4.02-1.01,5.37-3.13l.34,2.68h6.15v-37.12h-6.93v13.08c-1.34-1.79-2.91-2.57-4.92-2.57ZM223.74,396.6c-.67,1.23-1.68,1.79-3.02,1.79s-2.24-.56-2.8-1.57-.78-2.8-.78-5.37v-1.79c0-2.57.34-4.36.89-5.37s1.45-1.57,2.8-1.57,2.35.67,3.02,1.9v11.96h-.11Z" fill="#1d2d5c" stroke-width="0"/><path d="M246.88,368.43v35.11h9.06c4.25,0,7.6-1.34,10.06-3.91,2.46-2.68,3.69-6.26,3.69-10.84v-5.7c0-4.58-1.34-8.16-3.69-10.73-2.46-2.57-5.7-3.91-9.84-3.91h-9.28ZM261.3,376.37c.89,1.34,1.34,3.58,1.34,6.82v6.15c0,3.02-.56,5.25-1.57,6.48-1.01,1.23-2.68,1.9-5.03,1.9h-2.12v-23.37h2.57c2.35.11,3.91.78,4.81,2.01Z" fill="#1d2d5c" stroke-width="0"/><path d="M273.04,385.31h6.82c0-2.01.89-3.02,2.57-3.02.78,0,1.34.22,1.79.67s.56,1.34.56,2.46v2.12h-2.12c-3.24,0-5.81.78-7.49,2.35-1.79,1.45-2.57,3.58-2.57,6.37,0,2.35.67,4.14,2.12,5.59s3.24,2.12,5.48,2.12,3.8-.78,4.92-2.46c.22.89.34,1.68.56,2.01h6.93v-.45c-.56-1.23-.89-3.02-1.01-5.25v-12.3c0-2.8-.78-4.92-2.35-6.37s-3.8-2.24-6.6-2.24-5.03.78-6.82,2.35c-1.9,1.68-2.8,3.58-2.8,6.04ZM284.78,397.16c-.22.45-.67.78-1.23,1.12s-1.23.45-1.9.45c-1.57,0-2.24-1.01-2.24-2.91,0-1.23.34-2.24,1.01-3.02s1.57-1.12,2.8-1.12h1.68v5.48h-.11Z" fill="#1d2d5c" stroke-width="0"/><path d="M307.81,403.42v-5.25c-.45.11-1.01.22-1.57.22-.78,0-1.34-.22-1.68-.56s-.45-1.12-.45-2.12v-13.08h3.47v-5.14h-3.47v-6.37h-6.71v6.37h-3.02v5.14h3.02v13.86c0,5.03,2.24,7.6,6.71,7.6,1.34,0,2.57-.22,3.69-.67Z" fill="#1d2d5c" stroke-width="0"/><path d="M313.63,379.38c-1.79,1.57-2.68,3.58-2.68,5.93h6.82c0-2.01.89-3.02,2.57-3.02.78,0,1.34.22,1.79.67s.56,1.34.56,2.46v2.12h-2.12c-3.24,0-5.81.78-7.49,2.35-1.79,1.45-2.57,3.58-2.57,6.37,0,2.35.67,4.14,2.12,5.59s3.24,2.12,5.48,2.12,3.8-.78,4.92-2.46c.22.89.34,1.68.56,2.01h6.93v-.45c-.56-1.23-.89-3.02-1.01-5.25v-12.3c0-2.8-.78-4.92-2.35-6.37s-3.8-2.24-6.6-2.24c-2.8.11-5.03.89-6.93,2.46ZM322.68,397.16c-.22.45-.67.78-1.23,1.12s-1.23.45-1.9.45c-1.57,0-2.24-1.01-2.24-2.91,0-1.23.34-2.24,1.01-3.02s1.57-1.12,2.8-1.12h1.68v5.48h-.11Z" fill="#1d2d5c" stroke-width="0"/><path d="M369.08,380.06c0-3.47-1.01-6.26-3.13-8.39-2.01-2.12-4.81-3.24-8.27-3.24h-11.96v35.11h7.04v-12.41h4.7c3.58,0,6.48-1.01,8.5-3.02,2.12-1.9,3.13-4.58,3.13-8.05ZM360.81,383.97c-.78.89-1.79,1.34-3.13,1.34h-4.92v-10.96h4.92c1.23,0,2.24.56,3.02,1.57s1.12,2.46,1.12,4.14c.11,1.79-.22,3.02-1.01,3.91Z" fill="#1d2d5c" stroke-width="0"/><path d="M377.91,380.28l-.22-2.8h-6.48v26.16h6.82v-17.22c.67-1.68,1.9-2.46,3.8-2.46l2.24.22.11-6.71c-.45-.22-1.12-.34-1.9-.34-1.79-.11-3.24.89-4.36,3.13Z" fill="#1d2d5c" stroke-width="0"/><rect x="387.75" y="377.48" width="6.82" height="26.16" fill="#1d2d5c" stroke-width="0"/><path d="M393.9,368.09c-.67-.67-1.57-1.01-2.68-1.01s-2.01.34-2.68,1.01-1.01,1.57-1.01,2.57.34,1.9,1.01,2.57c.67.67,1.57,1.01,2.68,1.01s2.01-.34,2.68-1.01,1.01-1.57,1.01-2.57c0-1.01-.34-1.9-1.01-2.57Z" fill="#1d2d5c" stroke-width="0"/><polygon points="411.45 377.48 408.21 393.92 404.86 377.48 397.7 377.48 404.97 403.53 411.45 403.53 418.61 377.48 411.45 377.48" fill="#1d2d5c" stroke-width="0"/><path d="M429.68,387.66c-3.24,0-5.81.78-7.49,2.35-1.79,1.45-2.57,3.58-2.57,6.37,0,2.35.67,4.14,2.12,5.59s3.24,2.12,5.48,2.12,3.8-.78,4.92-2.46c.22.89.34,1.68.56,2.01h6.93v-.45c-.56-1.23-.89-3.02-1.01-5.25v-12.3c0-2.8-.78-4.92-2.35-6.37s-3.8-2.24-6.6-2.24-5.03.78-6.82,2.35-2.68,3.58-2.68,5.93h6.82c0-2.01.89-3.02,2.57-3.02.78,0,1.34.22,1.79.67s.56,1.34.56,2.46v2.12h-2.24v.11ZM431.69,397.16c-.22.45-.67.78-1.23,1.12s-1.23.45-1.9.45c-1.57,0-2.24-1.01-2.24-2.91,0-1.23.34-2.24,1.01-3.02s1.57-1.12,2.8-1.12h1.68v5.48h-.11Z" fill="#1d2d5c" stroke-width="0"/><path d="M450.14,383.97c.56-.89,1.34-1.23,2.57-1.23,1.12,0,1.9.45,2.35,1.23s.67,1.9.67,3.35h6.37c0-3.24-.89-5.81-2.57-7.6-1.68-1.79-3.91-2.68-6.82-2.68-3.47,0-6.04,1.12-7.71,3.24-1.79,2.12-2.57,5.25-2.57,9.39v2.12c0,4.02.89,7.16,2.68,9.28s4.36,3.13,7.71,3.13c2.68,0,4.92-.89,6.71-2.68,1.68-1.79,2.57-4.02,2.68-6.93h-6.37c0,2.57-1.01,3.91-3.02,3.91-.89,0-1.57-.22-2.01-.56-.45-.45-.78-1.01-1.01-1.9-.22-.89-.34-2.35-.34-4.47v-2.68c-.11-2.46.11-4.14.67-4.92Z" fill="#1d2d5c" stroke-width="0"/><path d="M477.64,377.48l-3.47,14.76-3.13-14.76h-7.38l7.49,26.38-.56,1.79c-.22,1.01-.67,1.68-1.23,2.12s-1.34.56-2.35.56h-.78v5.37c1.01.34,2.01.45,2.8.45,3.58,0,5.93-2.24,7.27-6.6l8.61-30.07h-7.27Z" fill="#1d2d5c" stroke-width="0"/><path d="M100.54,421.42c1.34,0,2.35.45,3.02,1.34.67.89,1.01,2.12,1.01,3.8h7.04c0-2.12-.45-4.02-1.34-5.7s-2.24-2.91-3.91-3.8-3.58-1.34-5.81-1.34c-3.24,0-5.93.89-8.05,2.68-2.12,1.79-3.13,4.14-3.13,7.16,0,2.46.78,4.58,2.35,6.37s4.02,3.35,7.6,4.7c1.9.78,3.24,1.57,4.02,2.24.78.78,1.12,1.79,1.12,3.24,0,2.57-1.23,3.91-3.69,3.91-1.79,0-3.02-.45-3.91-1.34-.78-.89-1.23-2.35-1.23-4.47h-7.16c0,2.35.56,4.47,1.57,6.15,1.01,1.79,2.46,3.02,4.36,4.02,1.9.89,3.91,1.45,6.15,1.45,3.35,0,6.04-.89,7.94-2.57s2.91-4.14,2.91-7.16c0-2.8-.78-5.03-2.35-6.93-1.57-1.79-4.02-3.35-7.49-4.58-2.01-.78-3.35-1.68-4.14-2.46s-1.12-1.68-1.12-2.57c0-1.23.34-2.24,1.01-2.91,1.01-.89,2.01-1.23,3.24-1.23Z" fill="#1d2d5c" stroke-width="0"/><path d="M125.02,424.66c-3.35,0-5.93,1.12-7.71,3.35-1.9,2.24-2.8,5.37-2.8,9.28v1.68c0,4.02.89,7.16,2.8,9.39s4.47,3.35,7.83,3.35,5.93-1.12,7.83-3.35,2.8-5.37,2.8-9.28v-1.68c0-4.02-.89-7.16-2.8-9.39-2.01-2.24-4.7-3.35-7.94-3.35ZM128.71,440.2c-.22,3.91-1.45,5.81-3.69,5.81-2.46,0-3.69-2.35-3.69-7.04v-1.68c0-2.35.34-4.14,1.01-5.25.67-1.12,1.57-1.68,2.68-1.68,1.23,0,2.12.56,2.8,1.68s1.01,2.91,1.01,5.25l-.11,2.91Z" fill="#1d2d5c" stroke-width="0"/><rect x="139.11" y="414.15" width="6.82" height="37.12" fill="#1d2d5c" stroke-width="0"/><path d="M150.62,425.11v16.88c0,3.13.67,5.59,1.9,7.16,1.23,1.68,3.02,2.46,5.48,2.46s4.25-1.01,5.7-2.91l.22,2.35h6.37v-25.94h-6.93v18.89c-.67,1.34-1.79,2.01-3.35,2.01-1.68,0-2.46-1.23-2.57-3.8v-17.11h-6.82Z" fill="#1d2d5c" stroke-width="0"/><path d="M183.49,445.35c-.34-.34-.45-1.12-.45-2.12v-12.97h3.47v-5.14h-3.47v-6.37h-6.82v6.37h-3.02v5.14h3.02v13.86c0,5.03,2.24,7.6,6.71,7.6,1.34,0,2.57-.22,3.8-.67v-5.25c-.45.11-1.01.22-1.57.22-.89-.11-1.45-.34-1.68-.67Z" fill="#1d2d5c" stroke-width="0"/><path d="M196.68,415.72c-.67-.67-1.57-1.01-2.68-1.01s-2.01.34-2.68,1.01c-.67.67-1.01,1.57-1.01,2.57s.34,1.9,1.01,2.57c.67.67,1.57,1.01,2.68,1.01s2.01-.34,2.68-1.01c.67-.67,1.01-1.57,1.01-2.57,0-1.01-.34-1.9-1.01-2.57Z" fill="#1d2d5c" stroke-width="0"/><rect x="190.65" y="425.11" width="6.82" height="26.16" fill="#1d2d5c" stroke-width="0"/><path d="M211.55,424.66c-3.35,0-5.93,1.12-7.71,3.35-1.9,2.24-2.8,5.37-2.8,9.28v1.68c0,4.02.89,7.16,2.8,9.39s4.47,3.35,7.83,3.35,5.93-1.12,7.83-3.35,2.8-5.37,2.8-9.28v-1.68c0-4.02-.89-7.16-2.8-9.39-2.01-2.24-4.58-3.35-7.94-3.35ZM215.24,440.2c-.22,3.91-1.45,5.81-3.69,5.81-2.46,0-3.69-2.35-3.69-7.04v-1.68c0-2.35.34-4.14,1.01-5.25.67-1.12,1.57-1.68,2.68-1.68,1.23,0,2.12.56,2.8,1.68s1.01,2.91,1.01,5.25l-.11,2.91Z" fill="#1d2d5c" stroke-width="0"/><path d="M244.76,451.16v-17.11c-.11-6.26-2.46-9.39-6.93-9.39-2.46,0-4.47,1.01-6.04,3.02l-.22-2.57h-6.37v26.16h6.82v-19.01c.67-1.23,1.68-1.9,2.91-1.9,1.12,0,1.9.34,2.35,1.01.45.67.67,1.79.67,3.24v16.66h6.82v-.11Z" fill="#1d2d5c" stroke-width="0"/><path d="M265.44,439.09c-1.12-1.23-3.13-2.46-5.93-3.47-1.9-.78-3.13-1.45-3.69-1.9-.56-.45-.78-1.01-.78-1.57,0-.78.22-1.45.67-1.9.45-.45,1.01-.67,1.79-.67,1.79,0,2.68,1.12,2.68,3.13h6.82c0-2.46-.89-4.47-2.57-5.93s-4.02-2.24-6.93-2.24c-2.68,0-4.92.78-6.6,2.24s-2.46,3.35-2.46,5.7c0,1.79.56,3.35,1.57,4.58s3.02,2.46,5.81,3.58c1.9.78,3.13,1.45,3.69,2.01.56.45.78,1.01.78,1.57,0,1.68-.89,2.46-2.8,2.46-1.23,0-2.01-.34-2.57-.89s-.78-1.45-.78-2.68h-6.48c0,1.57.45,3.02,1.23,4.36.78,1.34,2.01,2.35,3.47,3.13,1.45.78,3.13,1.12,5.03,1.12,2.8,0,5.14-.67,6.93-2.12s2.68-3.24,2.68-5.59c.11-2.12-.45-3.69-1.57-4.92Z" fill="#1d2d5c" stroke-width="0"/><polygon points="303.23 421.98 303.23 416.05 283.11 416.05 283.11 451.16 303.34 451.16 303.34 445.35 290.26 445.35 290.26 435.96 301.33 435.96 301.33 430.25 290.26 430.25 290.26 421.98 303.23 421.98" fill="#1d2d5c" stroke-width="0"/><path d="M326.48,451.16v-17.11c-.11-6.26-2.46-9.39-6.93-9.39-2.46,0-4.47,1.01-6.04,3.02l-.22-2.57h-6.37v26.16h6.82v-19.01c.67-1.23,1.68-1.9,2.91-1.9,1.12,0,1.9.34,2.35,1.01s.67,1.79.67,3.24v16.66h6.82v-.11Z" fill="#1d2d5c" stroke-width="0"/><path d="M342.47,454.96c-.67.78-1.79,1.12-3.24,1.12-.89,0-1.9-.22-2.91-.67s-1.9-1.01-2.46-1.68l-2.35,4.7c.78.89,1.9,1.57,3.58,2.24,1.57.56,3.13.89,4.47.89,3.47,0,6.15-.89,8.05-2.68s2.8-4.36,2.8-7.6v-26.16h-6.15l-.22,2.35c-1.34-1.9-3.13-2.8-5.48-2.8-2.8,0-4.92,1.01-6.48,3.13s-2.35,5.25-2.35,9.61v1.9c0,3.91.78,7.04,2.35,9.17,1.57,2.12,3.69,3.24,6.48,3.24,2.12,0,3.8-.89,5.14-2.57v2.24c-.22,1.57-.56,2.79-1.23,3.58ZM340.35,446.02c-1.34,0-2.35-.56-3.02-1.68s-.89-2.91-.89-5.25v-1.68c0-2.46.34-4.25,1.01-5.37s1.68-1.68,3.02-1.68,2.35.56,3.02,1.68v12.52c-.67.89-1.79,1.45-3.13,1.45Z" fill="#1d2d5c" stroke-width="0"/><path d="M360.69,415.72c-.67-.67-1.57-1.01-2.68-1.01s-2.01.34-2.68,1.01-1.01,1.57-1.01,2.57.34,1.9,1.01,2.57c.67.67,1.57,1.01,2.68,1.01s2.01-.34,2.68-1.01,1.01-1.57,1.01-2.57-.34-1.9-1.01-2.57Z" fill="#1d2d5c" stroke-width="0"/><rect x="354.55" y="425.11" width="6.82" height="26.16" fill="#1d2d5c" stroke-width="0"/><path d="M386.19,451.16v-17.11c-.11-6.26-2.46-9.39-6.93-9.39-2.46,0-4.47,1.01-6.04,3.02l-.22-2.57h-6.37v26.16h6.82v-19.01c.67-1.23,1.68-1.9,2.91-1.9,1.12,0,1.9.34,2.35,1.01s.67,1.79.67,3.24v16.66h6.82v-.11Z" fill="#1d2d5c" stroke-width="0"/><path d="M399.94,424.66c-3.35,0-5.93,1.12-7.71,3.35s-2.68,5.37-2.68,9.5v2.12c0,3.91,1.01,6.93,2.91,8.94,2.01,2.12,4.7,3.13,8.16,3.13,1.9,0,3.58-.34,5.14-1.12,1.57-.67,2.8-1.68,3.69-2.8l-2.68-4.14c-1.57,1.57-3.47,2.35-5.7,2.35-1.57,0-2.8-.45-3.47-1.34-.78-.89-1.23-2.35-1.23-4.25h13.64v-3.35c0-4.14-.89-7.27-2.57-9.28-1.79-2.12-4.25-3.13-7.49-3.13ZM403.18,435.62h-6.82c.11-1.9.45-3.24,1.01-4.14.56-.89,1.45-1.23,2.57-1.23s2.01.45,2.46,1.23.78,2.01.78,3.58v.56Z" fill="#1d2d5c" stroke-width="0"/><path d="M423.53,424.66c-3.35,0-5.93,1.12-7.71,3.35-1.79,2.24-2.68,5.37-2.68,9.5v2.12c0,3.91,1.01,6.93,2.91,8.94,2.01,2.12,4.7,3.13,8.16,3.13,1.9,0,3.58-.34,5.14-1.12,1.57-.67,2.8-1.68,3.69-2.8l-2.68-4.14c-1.57,1.57-3.47,2.35-5.7,2.35-1.57,0-2.8-.45-3.47-1.34-.78-.89-1.23-2.35-1.23-4.25h13.64v-3.35c0-4.14-.89-7.27-2.57-9.28-1.68-2.12-4.14-3.13-7.49-3.13ZM426.77,435.62h-6.82c.11-1.9.45-3.24,1.01-4.14.56-.89,1.45-1.23,2.57-1.23s2.01.45,2.46,1.23c.45.78.78,2.01.78,3.58v.56Z" fill="#1d2d5c" stroke-width="0"/><path d="M450.36,424.89c-.45-.22-1.12-.34-1.9-.34-1.9,0-3.35,1.12-4.47,3.35l-.22-2.8h-6.48v26.16h6.82v-17.22c.67-1.68,1.9-2.46,3.8-2.46l2.24.22.22-6.93Z" fill="#1d2d5c" stroke-width="0"/><path d="M458.97,444.9h0c-.11,0-.22,0-.22.22l-1.57,4.81h0l-1.57-4.81c0-.11-.11-.22-.22-.22h-.11c-.11,0-.11.11-.22.22l-1.23,5.7c0,.11,0,.34.22.34h.22c.11,0,.22-.11.22-.22l1.01-4.25h0l1.45,4.47c0,.11.11.11.11.11h.22q.11,0,.11-.11l1.45-4.47h0l1.01,4.25c0,.11.11.22.22.22h.22c.11,0,.22-.11.22-.34l-1.23-5.7c-.11-.11-.22-.22-.34-.22Z" fill="#1d2d5c" stroke-width="0"/><path d="M453.27,445.12h-3.8c-.11,0-.22.11-.22.22v.11c0,.11.11.34.22.34h1.57v5.14c0,.11.11.22.22.22h.22c.11,0,.22-.11.22-.22v-5.14h1.57c.11,0,.22-.11.22-.22v-.11c0-.22-.11-.34-.22-.34Z" fill="#1d2d5c" stroke-width="0"/><path d="M201.94,219.85c7.71,0,15.09-2.68,20.91-8.39.56-.56.67-1.68.11-2.35l-6.71-7.16c-.56-.56-1.68-.56-2.24-.11-3.13,2.68-7.49,4.14-11.52,4.14-9.73,0-16.99-7.94-16.99-17.55s7.16-17.78,16.88-17.78c4.25,0,8.5,1.57,11.63,4.36.56.56,1.57.56,2.12,0l6.71-6.93c.67-.67.67-1.68-.11-2.46-5.81-5.37-12.3-8.05-20.91-8.05-17.22,0-31.08,13.86-31.08,31.08.11,17.55,13.98,31.19,31.19,31.19Z" fill="#1d2d5c" stroke-width="0"/><path d="M229.22,219.06h21.02c16.66,0,30.3-13.53,30.3-30.3s-13.64-30.07-30.3-30.07h-21.02c-.89,0-1.57.78-1.57,1.68v57.13c0,.78.67,1.57,1.57,1.57ZM241.18,171.32h8.27c9.73,0,16.77,7.71,16.77,17.44s-7.04,17.55-16.77,17.55h-8.27v-34.99h0Z" fill="#1d2d5c" stroke-width="0"/><path d="M287.13,219.06h10.17c.89,0,1.68-.78,1.68-1.68v-20.24h9.06c10.51,0,19.23-8.72,19.23-19.45s-8.72-19.01-19.34-19.01h-20.79c-.89,0-1.68.78-1.68,1.68v57.13c0,.78.67,1.57,1.68,1.57ZM298.87,171.32h8.16c3.69,0,6.82,2.8,6.82,6.37,0,3.91-3.13,6.82-6.82,6.82h-8.16v-13.19Z" fill="#1d2d5c" stroke-width="0"/><path d="M347.61,194.02c5.81,2.35,8.83,5.14,8.83,8.72,0,3.02-2.46,5.14-5.93,5.14-5.7,0-11.85-4.58-12.3-4.7-.56-.45-2.24-.56-2.91.56l-4.02,7.16c-.67,1.23-.45,1.57.45,2.46,2.01,2.01,8.16,6.6,19.45,6.6,12.63,0,20.35-8.94,20.35-17.89,0-11.74-10.73-16.99-17.44-19.68-6.82-2.8-9.39-5.14-9.39-8.39,0-2.35,2.35-4.36,5.48-4.36,5.25,0,11.52,4.7,12.3,5.14.78.56,2.35-.22,2.91-1.12l4.36-6.6c.34-.56.56-2.12-.56-2.8-2.57-1.9-9.5-6.48-18.45-6.48-13.3,0-19.9,8.61-19.9,17.11,0,10.4,9.39,16.21,16.77,19.12Z" fill="#1d2d5c" stroke-width="0"/><path d="M378.92,219.06h35.66c.89,0,1.68-.78,1.68-1.68v-9.39c0-.89-.67-1.68-1.68-1.68h-23.93v-11.63h19.68c.89,0,1.68-.67,1.68-1.68v-9.39c0-.89-.78-1.68-1.68-1.68h-19.68v-10.62h23.93c.89,0,1.68-.78,1.68-1.68v-9.39c0-.89-.67-1.68-1.68-1.68h-35.66c-.89,0-1.68.78-1.68,1.68v57.13c0,.89.78,1.68,1.68,1.68Z" fill="#1d2d5c" stroke-width="0"/><path d="M425.87,220.18c2.91,0,5.25-2.35,5.25-5.14s-2.35-5.25-5.25-5.25-5.14,2.35-5.14,5.25c-.11,2.91,2.24,5.14,5.14,5.14ZM425.87,210.68c2.35,0,4.36,1.9,4.36,4.36s-1.9,4.36-4.36,4.36-4.36-1.9-4.36-4.36,1.9-4.36,4.36-4.36Z" fill="#1d2d5c" stroke-width="0"/><path d="M424.31,217.72h.34c.11,0,.22-.11.22-.22v-1.79h1.12l.78,1.79c0,.11.11.22.22.22h.45c.22,0,.34-.22.22-.34-.34-.56-.56-1.12-.89-1.68.45-.11,1.12-.45,1.12-1.57s-.89-1.57-1.79-1.57h-2.01c-.11,0-.22.11-.22.22v4.7c.22,0,.34.22.45.22ZM424.98,213.14h1.45c.56,0,.89.34.89.78s-.34.78-.89.78h-1.45v-1.57Z" fill="#1d2d5c" stroke-width="0"/></svg>