<?xml version="1.0" encoding="UTF-8"?>
<svg id="a" xmlns="http://www.w3.org/2000/svg" version="1.1" viewBox="0 0 550 550">
  <defs>
    <style>
      .cls-1 {
        fill: #000;
      }

      .cls-1, .cls-2, .cls-3 {
        stroke-width: 0px;
      }

      .cls-2 {
        fill: #1d2d5c;
      }

      .cls-3 {
        fill: #f6f7f8;
      }
    </style>
  </defs>
  <path class="cls-3" d="M20,0h510c11,0,20,9,20,20v510c0,11-9,20-20,20H20c-11,0-20-9-20-20V20C0,9,9,0,20,0Z"/>
  <g>
    <path id="logoMark_PathItem_" data-name="logoMark PathItem " class="cls-1" d="M271.6,302.7c-63.8,0-115.4-51.8-115.3-115.6,0-2.7.1-5.4.3-8,4-57.2,50.7-103.4,108-106.8,47.4-2.9,91.7,23.6,111.7,66.8.5,1,1.5,1.6,2.6,1.6h25.9c1.6,0,2.8-1.3,2.9-2.8,0-.3,0-.7-.2-1-21.4-57.5-76.8-95.3-138.2-94.3-76.3,1.3-139.4,62.9-142.3,139.2-3.1,79.9,59.1,147.3,139.1,150.4,62.5,2.4,119.5-35.5,141.4-94.1.5-1.5-.2-3.1-1.7-3.6-.3-.1-.6-.2-1-.2h-25.9c-1.1,0-2.1.6-2.5,1.6-18.9,40.7-59.7,66.8-104.6,66.8h-.2,0Z"/>
    <path class="cls-2" d="M270.9,154.3c9.7,0,16.8,3,23.4,9,.8.6.9,1.8.3,2.5,0,0-.1.1-.2.2l-7.6,7.8c-.7.7-1.7.7-2.4,0h0c-3.6-3.2-8.3-4.9-13.1-4.9-10.9,0-19,9.1-19,19.9s8.1,19.6,19.1,19.6,9.3-1.6,13-4.6c.7-.6,1.8-.6,2.5.1l7.6,8c.6.8.6,1.9-.1,2.6-6.3,6.1-14.7,9.5-23.5,9.4-19.2.3-35.1-15-35.4-34.2-.3-19.2,15-35.1,34.2-35.4h1.2Z"/>
    <path class="cls-2" d="M306.1,157.1c0-1,.8-1.8,1.8-1.8h40c1,0,1.8.8,1.8,1.8h0v10.5c0,1-.8,1.8-1.8,1.8h-26.8v12h22.1c1,0,1.8.8,1.8,1.8v10.5c0,1-.8,1.8-1.8,1.8h-22v13.1h26.8c1,0,1.8.8,1.8,1.8h0v10.5c0,1-.8,1.8-1.8,1.8h-40c-1,0-1.8-.8-1.8-1.8h0v-64,.2h-.1Z"/>
    <path class="cls-2" d="M375.3,169.5h-13.8c-1,0-1.8-.8-1.8-1.8h0v-10.5c0-1,.8-1.8,1.8-1.8h43c1,0,1.8.8,1.8,1.8s0,0,0,0v10.5c0,1-.8,1.8-1.8,1.8h-13.9v51.7c0,1-.8,1.8-1.8,1.8h-11.6c-1,0-1.8-.8-1.8-1.8v-51.7h-.1Z"/>
    <polygon class="cls-1" points="196.6 209.8 177 201.2 166.7 204.7 196.6 217.8 225.7 205.4 215.5 201.8 196.6 209.8"/>
    <polygon class="cls-1" points="196.6 198.6 177 190 166.7 193.5 196.6 206.6 225.7 194.2 215.5 190.6 196.6 198.6"/>
    <polygon class="cls-1" points="196.6 184.2 166.7 171.1 195.9 161.1 225.7 171.8 196.6 184.2"/>
    <polygon class="cls-1" points="196.6 187.4 177 178.8 166.7 182.3 196.6 195.4 225.7 183 215.5 179.3 196.6 187.4"/>
    <path id="logoMark_CompoundPathItem_" data-name="logoMark CompoundPathItem " class="cls-2" d="M396.2,217.4h-1.4s-.2,0-.2-.1h0v-.5s0-.2.2-.2h3.7s.2,0,.2.1h0v.5s0,.2-.2.2h-1.4v5.1s0,.2-.2.2h-.6s-.2,0-.2-.2v-5.1h.1Z"/>
    <path id="logoMark_CompoundPathItem_2" data-name="logoMark CompoundPathItem 2" class="cls-2" d="M400.5,216.6s0-.1.2-.1h.2l1.8,4.5h0l1.8-4.5h.2s.1,0,.1.1l1.1,5.9c0,.1,0,.2-.1.2h-.6s-.1,0-.2-.1l-.6-3.9h0l-1.6,4h-.4l-1.6-4h0l-.6,3.9s0,.1-.1.1h-.6c-.1,0-.2,0-.2-.2l1.1-5.9h.1Z"/>
  </g>
  <g>
    <g>
      <path class="cls-2" d="M188.8,391.6c-.2,4.2-1.4,7.4-3.5,9.6s-5.3,3.2-9.3,3.3c-4.2,0-7.4-1.4-9.6-4.2s-3.4-6.7-3.4-11.8v-6.2c0-5.1,1.2-9,3.5-11.8s5.5-4.1,9.6-4.1,7.1,1.1,9.2,3.4c2.1,2.3,3.3,5.5,3.6,9.7h-7.5c0-2.6-.5-4.4-1.2-5.4s-2.1-1.5-4.1-1.5c-1.7-.2-3.4.7-4.3,2.1-.8,1.4-1.3,3.7-1.3,6.9v7c0,3.7.4,6.2,1.2,7.6.9,1.4,2.6,2.2,4.2,2.1,2,0,3.3-.5,4.1-1.4s1.2-2.7,1.3-5.2h7.5Z"/>
      <path class="cls-2" d="M203.7,404.5c-3.7,0-6.6-1.1-8.7-3.3-2.1-2.2-3.1-5.4-3.1-9.5v-2.2c0-4.4,1-7.7,2.9-10.1s4.6-3.5,8.2-3.5,6.1,1.1,7.8,3.3,2.6,5.5,2.7,9.8v3.5h-14.4c0,1.6.4,3.2,1.4,4.5.9,1,2.3,1.5,3.7,1.4,2.3,0,4.5-.8,6-2.5l2.8,4.4c-1,1.3-2.3,2.4-3.9,3-1.7.8-3.6,1.1-5.5,1.1h.1ZM199.2,387.6h7.2v-.7c0-1.3-.2-2.6-.8-3.8-.6-.9-1.6-1.4-2.6-1.3-1.1,0-2.1.4-2.8,1.3-.7,1.4-1,2.9-1,4.4h0Z"/>
      <path class="cls-2" d="M230.6,383.4l-2.4-.2c-1.8-.1-3.4.9-4,2.6v18.2h-7.2v-27.6h6.8l.2,3c1.1-2.3,2.7-3.5,4.7-3.5s1.4,0,2,.3v7.1h-.1Z"/>
      <path class="cls-2" d="M243.5,369.6v6.8h3.7v5.4h-3.7v13.7c0,.8,0,1.6.5,2.2.4.5,1.1.7,1.7.6.6,0,1.2,0,1.7-.2v5.6c-1.3.5-2.6.7-4,.7-4.7,0-7-2.7-7.1-8v-14.7h-3.2v-5.4h3.2v-6.8h7.2Z"/>
      <path class="cls-2" d="M250.6,369.3c0-1,.3-2,1.1-2.8.8-.7,1.8-1.1,2.9-1.1s2.1.3,2.9,1.1c.7.7,1.1,1.7,1.1,2.8,0,2.2-1.9,4-4.1,3.9-1,0-2-.4-2.7-1.1s-1.1-1.7-1.1-2.7h0ZM258.2,404h-7.2v-27.6h7.2v27.6Z"/>
      <path class="cls-2" d="M264.9,404v-22.2h-3.3v-5.4h3.3v-2.5c-.1-2.6.7-5.1,2.4-7.1,1.7-1.7,4.1-2.7,6.6-2.5,1.1,0,2.2.2,3.3.5v5.8c-.6-.2-1.2-.2-1.8-.2-2.2,0-3.2,1.3-3.2,3.8v2.2h4.3v5.4h-4.3v22.2h-7.3Z"/>
      <path class="cls-2" d="M279.8,369.3c0-1,.3-2,1.1-2.8,1.6-1.4,4.1-1.4,5.7,0,.7.7,1.1,1.7,1.1,2.8,0,2.2-1.9,4-4.1,3.9-1,0-2-.4-2.7-1.1s-1.1-1.7-1.1-2.7h0ZM287.4,404h-7.2v-27.6h7.2v27.6Z"/>
      <path class="cls-2" d="M303.6,404.5c-3.7,0-6.6-1.1-8.7-3.3-2.1-2.2-3.1-5.4-3.1-9.5v-2.2c0-4.4,1-7.7,2.9-10.1s4.6-3.5,8.2-3.5,6.1,1.1,7.8,3.3c1.8,2.2,2.6,5.5,2.7,9.8v3.5h-14.4c0,1.6.4,3.2,1.4,4.5,1,1,2.3,1.5,3.7,1.4,2.3,0,4.4-.8,6-2.5l2.8,4.4c-1,1.3-2.3,2.4-3.9,3-1.7.8-3.6,1.1-5.4,1.1h0ZM299.1,387.6h7.2v-.7c0-1.3-.2-2.6-.8-3.8-.6-.9-1.6-1.4-2.6-1.3-1.1,0-2.1.4-2.7,1.3-.7,1.4-1,2.9-1,4.4h-.1Z"/>
      <path class="cls-2" d="M316,389.4c0-4.5.8-7.9,2.3-10.1s4-3.5,6.7-3.3c2.1,0,4.1,1,5.3,2.8v-13.8h7.3v39.2h-6.5l-.3-2.8c-1.2,2-3.4,3.3-5.7,3.3-2.6.1-5.1-1.1-6.6-3.3-1.5-2.2-2.3-5.5-2.3-9.7v-2.1l-.2-.2h0ZM323.3,391.2c0,2.7.3,4.6.9,5.7s1.7,1.7,2.9,1.6c1.4,0,2.6-.7,3.2-1.9v-12.6c-.6-1.2-1.8-2-3.2-2s-2.3.6-2.9,1.6c-.6,1.1-.9,3-.9,5.7v1.9h0Z"/>
      <path class="cls-2" d="M353.8,369.3c0-1,.4-2,1.1-2.8,1.6-1.4,4.1-1.4,5.7,0,.7.7,1.1,1.7,1.1,2.8,0,2-1.5,3.8-3.5,3.9h-.4c-2,.1-3.8-1.4-3.9-3.5v-.4h-.1ZM361.4,404h-7.2v-27.6h7.2v27.6Z"/>
      <path class="cls-2" d="M373.1,376.4l.2,2.7c1.5-2.1,3.9-3.3,6.4-3.2,4.7,0,7.2,3.3,7.3,10v18.1h-7.2v-17.6c0-1.2-.2-2.4-.7-3.4-.6-.8-1.5-1.2-2.5-1.1-1.3,0-2.5.8-3.1,2v20h-7.3v-27.5h6.9Z"/>
    </g>
    <g>
      <path class="cls-2" d="M199.8,435.2h-11.7v9.8h13.8v6.2h-21.3v-37.1h21.3v6.2h-13.8v8.8h11.7v6.1Z"/>
      <path class="cls-2" d="M212.1,423.7l.2,2.6c1.5-2,3.9-3.1,6.4-3.1,2.5-.1,4.9,1.4,5.9,3.7,1.4-2.4,4-3.8,6.8-3.7,4.8,0,7.3,3.3,7.4,10v18.1h-7.2v-17.6c0-1.2-.1-2.4-.7-3.4-.5-.7-1.4-1.1-2.2-1-1.3,0-2.4.8-3,2.5v19.6h-7.2v-17.6c0-1.2-.1-2.4-.6-3.4-.5-.7-1.4-1.2-2.3-1.1-1.3,0-2.4.8-3,2v20h-7.2v-27.6h6.8,0Z"/>
      <path class="cls-2" d="M254.7,451.8c-3.7,0-6.6-1.1-8.7-3.3s-3.1-5.4-3.1-9.5v-2.2c0-4.4,1-7.7,2.9-10.1s4.6-3.5,8.2-3.5,6.1,1.1,7.8,3.3,2.6,5.5,2.7,9.8v3.5h-14.4c0,1.6.4,3.2,1.4,4.5,1,1,2.3,1.5,3.7,1.4,2.3,0,4.5-.8,6-2.5l2.8,4.4c-1,1.3-2.3,2.4-3.9,3-1.7.8-3.6,1.1-5.5,1.1h0ZM250.2,434.9h7.2v-.7c0-1.3-.2-2.6-.8-3.8-.6-.9-1.6-1.4-2.6-1.3-1.1,0-2.1.4-2.7,1.3-.7,1.3-1,2.8-1,4.3v.2h-.1Z"/>
      <path class="cls-2" d="M281.7,430.7l-2.4-.2c-1.8-.1-3.4.9-4,2.6v18.2h-7.2v-27.6h6.8l.2,3c1.1-2.3,2.7-3.5,4.7-3.5s1.4,0,2,.3v7.1h-.1Z"/>
      <path class="cls-2" d="M284,436.6c0-4.5.8-7.9,2.5-10.1,1.6-2.2,4.2-3.5,6.9-3.3,2.3,0,4.5,1.1,5.8,3l.3-2.4h6.5v27.6c0,3.5-1,6.2-3,8.1s-4.8,2.8-8.5,2.8-3.3-.3-4.8-.9c-1.4-.5-2.7-1.2-3.7-2.3l2.4-5c.8.8,1.7,1.4,2.7,1.8s2,.7,3.1.7c1.3.1,2.5-.3,3.5-1.2.8-1.1,1.2-2.4,1.1-3.7v-2.4c-1.2,1.7-3.3,2.7-5.4,2.7-2.7.1-5.3-1.2-6.8-3.4-1.6-2.3-2.4-5.5-2.5-9.7v-2.3h-.1ZM291.2,438.5c-.1,1.9.2,3.8,1,5.6.6,1.1,1.9,1.8,3.2,1.8s2.6-.5,3.3-1.6v-13.2c-.7-1.1-1.9-1.8-3.2-1.8s-2.5.6-3.2,1.8c-.8,1.8-1.1,3.7-1,5.7v1.8h0Z"/>
      <path class="cls-2" d="M310.6,416.5c0-1,.4-2,1.1-2.8.8-.7,1.8-1.1,2.9-1.1s2.1.3,2.9,1.1c.7.7,1.1,1.7,1.1,2.8,0,2-1.5,3.8-3.5,3.9h-.4c-2,.1-3.8-1.4-3.9-3.5v-.4h-.2ZM318.2,451.3h-7.2v-27.6h7.2v27.6Z"/>
      <path class="cls-2" d="M329.8,423.7l.2,2.7c1.5-2.1,3.9-3.3,6.4-3.2,4.8,0,7.2,3.3,7.3,10v18.1h-7.2v-17.6c0-1.2-.2-2.4-.7-3.4-.6-.8-1.5-1.2-2.5-1.1-1.3,0-2.5.8-3.1,2v20h-7.2v-27.6h6.8Z"/>
      <path class="cls-2" d="M347.5,436.6c0-4.5.8-7.9,2.5-10.1,1.6-2.2,4.2-3.5,6.9-3.3,2.3,0,4.5,1.1,5.8,3l.3-2.4h6.5v27.6c0,3.5-1,6.2-3,8.1s-4.8,2.8-8.5,2.8-3.2-.3-4.8-.9c-1.4-.5-2.7-1.2-3.7-2.3l2.4-5c.8.8,1.7,1.4,2.7,1.8s2,.7,3.1.7c1.3.1,2.5-.3,3.5-1.2.8-1.1,1.2-2.4,1.1-3.7v-2.4c-1.2,1.7-3.3,2.7-5.4,2.7-2.7.1-5.3-1.2-6.8-3.4-1.6-2.3-2.4-5.5-2.5-9.7v-2.3h-.1ZM354.8,438.5c-.1,1.9.2,3.8,1,5.6.6,1.1,1.9,1.8,3.2,1.8s2.6-.5,3.3-1.6v-13.2c-.7-1.1-1.9-1.8-3.2-1.8s-2.5.6-3.2,1.8c-.8,1.8-1.1,3.7-1,5.7v1.8h0Z"/>
    </g>
    <g>
      <path class="cls-2" d="M185.3,467.3h-9.2v30.9h-7.5v-30.9h-9v-6.2h25.7v6.2Z"/>
      <path class="cls-2" d="M193.6,498.7c-3.7,0-6.6-1.1-8.7-3.3-2.1-2.2-3.1-5.4-3.1-9.5v-2.2c0-4.4,1-7.7,2.9-10.1s4.6-3.5,8.2-3.5,6.1,1.1,7.8,3.3,2.6,5.5,2.7,9.8v3.5h-14.4c0,1.6.4,3.2,1.4,4.5,1,1,2.3,1.5,3.7,1.4,2.3,0,4.4-.8,6-2.5l2.8,4.4c-1,1.3-2.3,2.4-3.9,3-1.7.8-3.6,1.1-5.4,1.1h0ZM189.1,481.8h7.2v-.7c0-1.3-.2-2.6-.8-3.8-.6-.9-1.6-1.4-2.6-1.3-1.1,0-2.1.4-2.7,1.4-.7,1.3-1,2.8-1,4.3h0Z"/>
      <path class="cls-2" d="M216.9,492.7c2.1,0,3.2-1.4,3.2-4.1h6.8c0,2.7-.9,5.3-2.8,7.3-1.9,1.9-4.4,2.9-7,2.8-3.5,0-6.3-1.1-8.1-3.3-1.9-2.2-2.8-5.5-2.9-9.8v-2.2c0-4.3.9-7.6,2.8-9.9,1.8-2.3,4.6-3.4,8.2-3.4,2.7-.1,5.3.9,7.2,2.8,1.8,1.9,2.6,4.5,2.7,8h-6.8c0-1.2-.2-2.5-.8-3.6-.5-.8-1.5-1.3-2.5-1.2-1.1,0-2.1.4-2.7,1.3-.5.9-.8,2.6-.9,5.2v2.8c0,1.6,0,3.1.3,4.7.1.8.5,1.5,1.1,2,.6.4,1.4.6,2.1.6h0Z"/>
      <path class="cls-2" d="M237.5,473c1.3-1.8,3.5-2.9,5.8-2.9,2.2-.1,4.4.9,5.7,2.7,1.3,1.8,2,4.4,2,7.9v17.6h-7.2v-17.5c0-1.2-.2-2.4-.8-3.5-.6-.8-1.5-1.2-2.4-1.1-1.3,0-2.5.7-3.1,1.8v20.3h-7.2v-39.2h7.2v14h0Z"/>
      <path class="cls-2" d="M262.3,470.6l.2,2.7c1.5-2.1,3.9-3.3,6.4-3.2,4.7,0,7.2,3.3,7.3,10v18.1h-7.3v-17.6c0-1.2-.2-2.4-.7-3.4-.6-.8-1.5-1.2-2.5-1.1-1.3,0-2.5.8-3.1,2v20.1h-7.2v-27.6h6.9Z"/>
      <path class="cls-2" d="M280,483.5c0-4.2,1-7.5,3-9.8,4.2-4.5,11.3-4.8,15.9-.5l.5.5c2,2.4,3,5.7,3,9.9v1.8c0,4.2-1,7.5-2.9,9.9-4.3,4.5-11.4,4.8-16,.5l-.5-.5c-2-2.4-3-5.7-3-9.9v-1.8h0ZM287.3,485.3c0,4.9,1.3,7.4,4,7.4s3.7-2.1,3.9-6.2v-3c.1-1.9-.2-3.8-1-5.6-.6-1.1-1.7-1.8-3-1.8s-2.3.7-2.9,1.8c-.8,1.8-1.1,3.7-1,5.6v1.8h0Z"/>
      <path class="cls-2" d="M313.9,498.2h-7.2v-39.2h7.2v39.2Z"/>
      <path class="cls-2" d="M318.1,483.5c0-4.2,1-7.5,3-9.8,4.2-4.5,11.3-4.8,15.9-.5l.5.5c2,2.4,3,5.7,3,9.9v1.8c0,4.2-1,7.5-2.9,9.9-4.3,4.5-11.4,4.8-16,.5l-.5-.5c-2-2.4-3-5.7-3-9.9v-1.8h0ZM325.4,485.3c0,4.9,1.3,7.4,4,7.4s3.7-2.1,3.9-6.2v-3c.1-1.9-.2-3.8-1-5.6-.6-1.1-1.7-1.8-3-1.8s-2.3.7-2.9,1.8c-.8,1.8-1.1,3.7-1,5.6v1.8h0Z"/>
      <path class="cls-2" d="M343.6,483.6c0-4.5.8-7.9,2.4-10.1s4.2-3.5,6.9-3.3c2.3,0,4.5,1.1,5.8,3l.3-2.4h6.5v27.6c0,3.5-1,6.2-3,8.1s-4.8,2.8-8.5,2.8-3.2-.3-4.8-.9c-1.4-.5-2.7-1.2-3.7-2.3l2.4-5c.8.8,1.7,1.4,2.7,1.8s2,.7,3.1.7c1.3.1,2.5-.3,3.5-1.2.8-1.1,1.2-2.4,1.1-3.7v-2.4c-1.2,1.7-3.2,2.7-5.4,2.7-2.7.1-5.3-1.2-6.8-3.4-1.6-2.3-2.4-5.5-2.5-9.7v-2.3h0ZM350.8,485.4c-.1,1.9.2,3.8,1,5.6.6,1.1,1.9,1.8,3.2,1.8s2.6-.5,3.3-1.6v-13.2c-.7-1.1-1.9-1.8-3.2-1.8s-2.5.6-3.2,1.8c-.8,1.8-1.1,3.7-1,5.7v1.8h0Z"/>
      <path class="cls-2" d="M379,486.2l3.7-15.6h7.7l-9.1,31.7c-1.3,4.7-3.9,7-7.7,7s-2-.2-3-.5v-5.6h.8c.9,0,1.8-.2,2.5-.6.7-.6,1.1-1.4,1.3-2.3l.6-1.9-8-27.9h7.8l3.4,15.6h0Z"/>
    </g>
  </g>
</svg>