<?xml version="1.0" encoding="UTF-8"?><svg id="a" xmlns="http://www.w3.org/2000/svg" viewBox="0 0 550 550"><path d="M20,0h510c11,0,20,9,20,20v510c0,11-9,20-20,20H20c-11,0-20-9-20-20V20C0,9,9,0,20,0Z" fill="#f6f7f8" stroke-width="0"/><path d="M156.56,391.41c-.18,4.01-1.3,7.04-3.38,9.11-2.07,2.06-5,3.09-8.79,3.09-3.98,0-7.03-1.31-9.14-3.92-2.12-2.62-3.18-6.35-3.18-11.2v-5.92c0-4.83,1.09-8.56,3.29-11.17,2.19-2.62,5.23-3.93,9.13-3.93s6.74,1.07,8.74,3.21c1.98,2.15,3.11,5.22,3.39,9.23h-7.13c-.07-2.48-.44-4.19-1.14-5.14-.71-.94-1.99-1.41-3.86-1.41s-3.25.66-4.04,1.99c-.79,1.33-1.21,3.52-1.26,6.56v6.64c0,3.5.39,5.9,1.17,7.2.78,1.3,2.12,1.96,4.02,1.96s3.16-.45,3.86-1.36c.71-.91,1.11-2.55,1.21-4.94h7.1Z" fill="#1d2d5c" stroke-width="0"/><path d="M170.65,403.61c-3.51,0-6.25-1.05-8.21-3.14-1.97-2.09-2.95-5.09-2.95-8.99v-2.07c0-4.12.9-7.3,2.7-9.54,1.81-2.24,4.39-3.35,7.75-3.35s5.76,1.05,7.41,3.14c1.66,2.1,2.51,5.21,2.54,9.32v3.35h-13.6c.1,1.94.52,3.36,1.28,4.26.76.9,1.92,1.35,3.5,1.35,2.28,0,4.19-.78,5.72-2.34l2.68,4.13c-.84,1.16-2.06,2.1-3.65,2.82-1.6.72-3.32,1.08-5.2,1.08M166.35,387.57h6.83v-.63c-.03-1.56-.29-2.74-.77-3.55-.48-.81-1.32-1.21-2.51-1.21s-2.06.42-2.59,1.28c-.54.86-.86,2.22-.96,4.11" fill="#1d2d5c" stroke-width="0"/><path d="M196.17,383.58l-2.27-.19c-1.87,0-3.13.82-3.79,2.46v17.27h-6.86v-26.13h6.45l.2,2.83c1.08-2.21,2.57-3.31,4.47-3.31.77,0,1.4.11,1.88.32l-.07,6.76Z" fill="#1d2d5c" stroke-width="0"/><path d="M208.33,370.56v6.43h3.5v5.12h-3.5v12.99c0,1.03.14,1.74.42,2.13s.83.58,1.63.58c.66,0,1.2-.05,1.62-.17l-.05,5.32c-1.16.44-2.42.65-3.77.65-4.41,0-6.64-2.53-6.69-7.59v-13.91h-3.02v-5.12h3.02v-6.43h6.83Z" fill="#1d2d5c" stroke-width="0"/><path d="M215.09,370.22c0-1.06.33-1.93,1.02-2.61.68-.68,1.58-1.02,2.7-1.02s2.03.34,2.7,1.02c.68.68,1.02,1.55,1.02,2.61s-.33,1.92-1,2.61-1.57,1.03-2.72,1.03-2.05-.34-2.71-1.03c-.67-.69-1-1.56-1-2.61M222.26,403.12h-6.86v-26.13h6.86v26.13Z" fill="#1d2d5c" stroke-width="0"/><path d="M228.63,403.12v-21.02h-3.16v-5.12h3.16v-2.34c.02-2.88.78-5.12,2.28-6.73,1.51-1.6,3.59-2.4,6.24-2.4.81,0,1.84.16,3.09.48l-.05,5.46c-.47-.14-1.02-.22-1.67-.22-2.03,0-3.04,1.21-3.04,3.62v2.13h4.08v5.12h-4.08v21.02h-6.86Z" fill="#1d2d5c" stroke-width="0"/><path d="M242.77,370.22c0-1.06.34-1.93,1.02-2.61.68-.68,1.58-1.02,2.7-1.02s2.03.34,2.71,1.02c.68.68,1.02,1.55,1.02,2.61s-.33,1.92-1,2.61-1.57,1.03-2.72,1.03-2.05-.34-2.71-1.03c-.67-.69-1-1.56-1-2.61M249.94,403.12h-6.86v-26.13h6.86v26.13Z" fill="#1d2d5c" stroke-width="0"/><path d="M265.29,403.61c-3.51,0-6.25-1.05-8.22-3.14-1.96-2.09-2.94-5.09-2.94-8.99v-2.07c0-4.12.9-7.3,2.7-9.54,1.81-2.24,4.39-3.35,7.75-3.35s5.76,1.05,7.41,3.14c1.66,2.1,2.51,5.21,2.54,9.32v3.35h-13.6c.1,1.94.52,3.36,1.28,4.26.76.9,1.92,1.35,3.5,1.35,2.28,0,4.19-.78,5.72-2.34l2.68,4.13c-.84,1.16-2.06,2.1-3.65,2.82-1.6.72-3.32,1.08-5.2,1.08M260.99,387.57h6.83v-.63c-.03-1.56-.29-2.74-.77-3.55-.48-.81-1.32-1.21-2.51-1.21s-2.06.42-2.59,1.28c-.54.86-.86,2.22-.96,4.11" fill="#1d2d5c" stroke-width="0"/><path d="M277,389.26c0-4.28.73-7.48,2.18-9.59,1.45-2.11,3.56-3.16,6.33-3.16,2.02,0,3.69.87,5.02,2.61v-13.09h6.88v37.1h-6.21l-.31-2.65c-1.4,2.09-3.2,3.14-5.41,3.14-2.74,0-4.83-1.05-6.27-3.14-1.44-2.09-2.18-5.17-2.21-9.23v-1.98ZM283.86,390.97c0,2.58.27,4.38.82,5.4.55,1.02,1.48,1.54,2.78,1.54s2.37-.6,3.07-1.82v-11.93c-.68-1.29-1.69-1.93-3.04-1.93-1.26,0-2.18.5-2.76,1.52-.58,1.02-.87,2.82-.87,5.41v1.81Z" fill="#1d2d5c" stroke-width="0"/><path d="M312.85,370.22c0-1.06.33-1.93,1.02-2.61.68-.68,1.58-1.02,2.7-1.02s2.03.34,2.7,1.02c.68.68,1.02,1.55,1.02,2.61s-.33,1.92-1,2.61c-.67.69-1.58,1.03-2.72,1.03s-2.05-.34-2.71-1.03c-.67-.69-1-1.56-1-2.61M320.02,403.12h-6.86v-26.13h6.86v26.13Z" fill="#1d2d5c" stroke-width="0"/><path d="M331.07,376.99l.19,2.58c1.55-2.04,3.57-3.07,6.06-3.07,4.5,0,6.8,3.15,6.94,9.45v17.17h-6.86v-16.66c0-1.48-.22-2.56-.67-3.23-.44-.66-1.21-1-2.33-1-1.24,0-2.21.63-2.9,1.91v18.98h-6.86v-26.13h6.43Z" fill="#1d2d5c" stroke-width="0"/><path d="M367.52,370.56v6.43h3.5v5.12h-3.5v12.99c0,1.03.14,1.74.42,2.13s.83.58,1.63.58c.66,0,1.2-.05,1.62-.17l-.05,5.32c-1.16.44-2.42.65-3.77.65-4.41,0-6.64-2.53-6.69-7.59v-13.91h-3.02v-5.12h3.02v-6.43h6.83Z" fill="#1d2d5c" stroke-width="0"/><path d="M380.94,379.28c1.48-1.85,3.3-2.78,5.46-2.78,2.39,0,4.19.84,5.43,2.52,1.24,1.67,1.87,4.17,1.88,7.49v16.62h-6.86v-16.55c0-1.53-.24-2.64-.72-3.32-.47-.69-1.24-1.03-2.3-1.03-1.24,0-2.21.57-2.9,1.72v19.18h-6.83v-37.1h6.83v13.26Z" fill="#1d2d5c" stroke-width="0"/><path d="M408.68,403.61c-3.51,0-6.25-1.05-8.21-3.14-1.97-2.09-2.95-5.09-2.95-8.99v-2.07c0-4.12.9-7.3,2.7-9.54,1.81-2.24,4.39-3.35,7.75-3.35s5.76,1.05,7.41,3.14c1.66,2.1,2.51,5.21,2.54,9.32v3.35h-13.6c.1,1.94.52,3.36,1.28,4.26.76.9,1.92,1.35,3.5,1.35,2.28,0,4.19-.78,5.72-2.34l2.68,4.13c-.84,1.16-2.06,2.1-3.65,2.82-1.6.72-3.32,1.08-5.2,1.08M404.38,387.57h6.83v-.63c-.03-1.56-.29-2.74-.77-3.55-.48-.81-1.32-1.21-2.51-1.21s-2.06.42-2.59,1.28c-.54.86-.86,2.22-.96,4.11" fill="#1d2d5c" stroke-width="0"/><path d="M160.92,444.41c-1.37,1.48-3.05,2.59-5.03,3.35-1.99.75-4.17,1.12-6.53,1.12-4.04,0-7.18-1.25-9.42-3.75-2.24-2.51-3.39-6.15-3.46-10.93v-6.33c0-4.84,1.06-8.58,3.18-11.19,2.12-2.62,5.2-3.93,9.26-3.93,3.81,0,6.7.94,8.63,2.83,1.94,1.88,3.07,4.84,3.37,8.87h-6.91c-.19-2.24-.66-3.77-1.4-4.58-.74-.81-1.9-1.22-3.48-1.22-1.91,0-3.31.7-4.18,2.1-.87,1.4-1.32,3.63-1.35,6.69v6.37c0,3.2.48,5.54,1.44,7,.96,1.46,2.53,2.19,4.72,2.19,1.4,0,2.54-.28,3.41-.85l.63-.43v-6.45h-4.97v-5.36h12.1v14.52Z" fill="#1d2d5c" stroke-width="0"/><path d="M164.32,434.48c0-3.96.93-7.07,2.8-9.32,1.87-2.25,4.45-3.38,7.75-3.38s5.93,1.13,7.8,3.38c1.87,2.25,2.8,5.37,2.8,9.37v1.67c0,3.98-.93,7.09-2.78,9.32-1.85,2.24-4.44,3.36-7.78,3.36s-5.96-1.12-7.81-3.37c-1.86-2.24-2.79-5.36-2.79-9.36v-1.67ZM171.18,436.2c0,4.67,1.25,7.01,3.74,7.01,2.3,0,3.55-1.95,3.72-5.85l.02-2.88c0-2.38-.33-4.15-.99-5.3-.66-1.15-1.6-1.73-2.8-1.73s-2.06.58-2.71,1.73c-.65,1.15-.98,2.92-.98,5.3v1.72Z" fill="#1d2d5c" stroke-width="0"/><polygon points="197.45 438.73 200.76 422.26 207.88 422.26 200.71 448.39 194.19 448.39 186.99 422.26 194.14 422.26 197.45 438.73" fill="#1d2d5c" stroke-width="0"/><path d="M220.84,448.88c-3.51,0-6.25-1.05-8.21-3.14-1.97-2.1-2.95-5.09-2.95-8.99v-2.07c0-4.12.9-7.3,2.7-9.54,1.81-2.24,4.39-3.35,7.75-3.35s5.76,1.05,7.41,3.14c1.66,2.1,2.51,5.21,2.54,9.32v3.35h-13.6c.1,1.94.52,3.36,1.28,4.26.76.9,1.92,1.35,3.5,1.35,2.28,0,4.19-.78,5.72-2.34l2.68,4.13c-.84,1.16-2.06,2.1-3.65,2.82-1.6.72-3.32,1.08-5.2,1.08M216.54,432.84h6.83v-.63c-.03-1.56-.29-2.74-.77-3.55-.48-.81-1.32-1.21-2.51-1.21s-2.06.42-2.59,1.28c-.54.86-.86,2.22-.96,4.11" fill="#1d2d5c" stroke-width="0"/><path d="M246.36,428.85l-2.27-.19c-1.87,0-3.13.82-3.79,2.46v17.27h-6.86v-26.13h6.45l.2,2.83c1.08-2.21,2.57-3.31,4.47-3.31.77,0,1.4.11,1.88.32l-.07,6.76Z" fill="#1d2d5c" stroke-width="0"/><path d="M255.63,422.26l.19,2.58c1.55-2.04,3.57-3.07,6.06-3.07,4.5,0,6.8,3.15,6.94,9.45v17.17h-6.86v-16.66c0-1.48-.22-2.56-.67-3.23-.44-.66-1.21-1-2.33-1-1.24,0-2.21.63-2.9,1.91v18.98h-6.86v-26.13h6.43Z" fill="#1d2d5c" stroke-width="0"/><path d="M285.64,448.39c-.2-.4-.39-1.08-.58-2.03-1.23,1.67-2.88,2.51-4.97,2.51s-4.01-.72-5.45-2.18c-1.44-1.45-2.16-3.32-2.16-5.63,0-2.74.87-4.85,2.62-6.36,1.75-1.49,4.26-2.26,7.55-2.29h2.07v-2.1c0-1.17-.2-2-.6-2.49s-.99-.72-1.76-.72c-1.7,0-2.56,1-2.56,3h-6.83c0-2.42.9-4.41,2.71-5.98,1.81-1.57,4.1-2.36,6.87-2.36s5.09.74,6.66,2.24c1.57,1.49,2.35,3.62,2.35,6.39v12.3c.04,2.25.36,4.02.97,5.29v.41h-6.88ZM281.61,443.52c.76,0,1.4-.16,1.93-.46.53-.3.93-.66,1.18-1.09v-5.43h-1.64c-1.16,0-2.07.37-2.74,1.11-.67.74-1,1.73-1,2.97,0,1.93.76,2.9,2.27,2.9" fill="#1d2d5c" stroke-width="0"/><path d="M302.27,422.26l.19,2.58c1.55-2.04,3.57-3.07,6.06-3.07,4.5,0,6.81,3.15,6.94,9.45v17.17h-6.86v-16.66c0-1.48-.22-2.56-.67-3.23-.44-.66-1.21-1-2.33-1-1.24,0-2.21.63-2.9,1.91v18.98h-6.86v-26.13h6.43Z" fill="#1d2d5c" stroke-width="0"/><path d="M329.31,443.2c1.98,0,2.99-1.29,3.02-3.87h6.42c-.03,2.85-.91,5.16-2.63,6.91-1.72,1.76-3.95,2.64-6.67,2.64-3.37,0-5.93-1.05-7.71-3.14-1.77-2.09-2.67-5.18-2.7-9.25v-2.08c0-4.1.87-7.23,2.62-9.39s4.33-3.23,7.74-3.23c2.88,0,5.15.88,6.81,2.67,1.66,1.78,2.51,4.3,2.54,7.57h-6.42c-.02-1.46-.26-2.59-.72-3.38-.47-.79-1.24-1.18-2.32-1.18-1.19,0-2.04.42-2.56,1.27-.51.84-.79,2.49-.83,4.91v2.66c0,2.12.11,3.61.32,4.45.21.84.56,1.46,1.03,1.86.48.39,1.17.59,2.06.59" fill="#1d2d5c" stroke-width="0"/><path d="M352.68,448.88c-3.51,0-6.25-1.05-8.22-3.14-1.96-2.1-2.95-5.09-2.95-8.99v-2.07c0-4.12.9-7.3,2.71-9.54,1.81-2.24,4.39-3.35,7.75-3.35s5.76,1.05,7.41,3.14c1.66,2.1,2.51,5.21,2.54,9.32v3.35h-13.6c.1,1.94.52,3.36,1.28,4.26.76.9,1.92,1.35,3.5,1.35,2.28,0,4.19-.78,5.72-2.34l2.68,4.13c-.84,1.16-2.06,2.1-3.65,2.82-1.6.72-3.32,1.08-5.2,1.08M348.39,432.84h6.83v-.63c-.03-1.56-.29-2.74-.77-3.55-.48-.81-1.32-1.21-2.51-1.21s-2.06.42-2.59,1.28c-.54.86-.86,2.22-.96,4.11" fill="#1d2d5c" stroke-width="0"/><path d="M375.41,434.48c0-3.96.94-7.07,2.8-9.32,1.87-2.25,4.45-3.38,7.75-3.38s5.93,1.13,7.8,3.38c1.87,2.25,2.8,5.37,2.8,9.37v1.67c0,3.98-.93,7.09-2.78,9.32-1.85,2.24-4.44,3.36-7.78,3.36s-5.96-1.12-7.81-3.37c-1.86-2.24-2.79-5.36-2.79-9.36v-1.67ZM382.28,436.2c0,4.67,1.25,7.01,3.74,7.01,2.3,0,3.55-1.95,3.72-5.85l.02-2.88c0-2.38-.33-4.15-.99-5.3-.66-1.15-1.6-1.73-2.8-1.73s-2.06.58-2.71,1.73c-.65,1.15-.98,2.92-.98,5.3v1.72Z" fill="#1d2d5c" stroke-width="0"/><path d="M401.9,448.39v-21.02h-3.16v-5.12h3.16v-2.34c.02-2.88.78-5.12,2.28-6.73,1.51-1.6,3.59-2.4,6.24-2.4.81,0,1.84.16,3.09.48l-.05,5.46c-.47-.14-1.02-.22-1.67-.22-2.03,0-3.04,1.21-3.04,3.62v2.13h4.08v5.12h-4.08v21.02h-6.86Z" fill="#1d2d5c" stroke-width="0"/><path d="M394.79,484.38c2.83,0,5.14,2.31,5.14,5.14s-2.31,5.12-5.14,5.12-5.13-2.3-5.13-5.12,2.3-5.14,5.13-5.14M394.79,493.79c2.37,0,4.27-1.91,4.27-4.27s-1.9-4.27-4.27-4.27-4.27,1.9-4.27,4.27,1.91,4.27,4.27,4.27M393.01,487.17c0-.14.12-.28.27-.28h2.03c.88,0,1.76.53,1.76,1.6s-.76,1.45-1.16,1.55c.29.56.57,1.13.86,1.69.1.17-.04.39-.25.39h-.48c-.11,0-.21-.11-.26-.2l-.8-1.78h-1.06v1.71c0,.14-.11.27-.27.27h-.37c-.16,0-.27-.13-.27-.27v-4.68ZM395.31,489.31c.53,0,.85-.37.85-.81,0-.48-.33-.81-.85-.81h-1.4v1.63h1.4Z" fill="#1d2d5c" stroke-width="0"/><polygon points="168.23 478.45 157.17 478.45 157.17 487.77 170.26 487.77 170.26 493.66 150.07 493.66 150.07 458.49 170.21 458.49 170.21 464.41 157.17 464.41 157.17 472.72 168.23 472.72 168.23 478.45" fill="#1d2d5c" stroke-width="0"/><path d="M179.76,467.53l.19,2.58c1.55-2.04,3.57-3.07,6.06-3.07,4.5,0,6.8,3.15,6.94,9.45v17.17h-6.86v-16.66c0-1.48-.23-2.56-.67-3.23-.44-.66-1.21-1-2.33-1-1.24,0-2.21.63-2.89,1.91v18.98h-6.86v-26.13h6.43Z" fill="#1d2d5c" stroke-width="0"/><path d="M205.31,461.1v6.43h3.5v5.12h-3.5v12.99c0,1.03.14,1.74.42,2.13.28.39.83.58,1.63.58.66,0,1.2-.05,1.62-.17l-.05,5.32c-1.16.44-2.42.65-3.77.65-4.41,0-6.64-2.53-6.69-7.59v-13.91h-3.02v-5.12h3.02v-6.43h6.83Z" fill="#1d2d5c" stroke-width="0"/><path d="M222.62,494.15c-3.51,0-6.25-1.05-8.22-3.14-1.96-2.1-2.94-5.09-2.94-8.99v-2.08c0-4.12.9-7.3,2.7-9.54,1.81-2.24,4.39-3.35,7.75-3.35s5.76,1.05,7.41,3.14c1.66,2.1,2.51,5.21,2.54,9.32v3.35h-13.6c.1,1.94.52,3.36,1.28,4.26.76.9,1.92,1.35,3.5,1.35,2.28,0,4.19-.78,5.72-2.34l2.68,4.13c-.84,1.16-2.06,2.1-3.65,2.82-1.6.72-3.32,1.08-5.2,1.08M218.32,478.11h6.83v-.63c-.03-1.56-.29-2.74-.77-3.55-.48-.8-1.32-1.21-2.51-1.21s-2.06.42-2.59,1.28c-.54.86-.86,2.22-.96,4.11" fill="#1d2d5c" stroke-width="0"/><path d="M248.14,474.12l-2.27-.19c-1.87,0-3.13.82-3.79,2.46v17.27h-6.86v-26.13h6.45l.19,2.83c1.08-2.21,2.57-3.31,4.47-3.31.77,0,1.4.11,1.88.32l-.07,6.76Z" fill="#1d2d5c" stroke-width="0"/><path d="M271.51,481.42c0,4.11-.71,7.25-2.12,9.44-1.41,2.19-3.51,3.29-6.3,3.29-2.12,0-3.83-.86-5.12-2.58v12.15h-6.83v-36.18h6.33l.24,2.39c1.3-1.92,3.08-2.88,5.33-2.88,2.79,0,4.88,1.02,6.3,3.04,1.41,2.03,2.13,5.14,2.16,9.33v2ZM264.69,479.7c0-2.53-.28-4.32-.83-5.36-.56-1.05-1.49-1.57-2.82-1.57-1.4,0-2.43.59-3.07,1.76v12.25c.61,1.12,1.65,1.69,3.11,1.69,1.35,0,2.29-.57,2.82-1.72.52-1.14.78-2.92.78-5.34v-1.72Z" fill="#1d2d5c" stroke-width="0"/><path d="M288.04,474.12l-2.27-.19c-1.87,0-3.13.82-3.79,2.46v17.27h-6.86v-26.13h6.45l.2,2.83c1.08-2.21,2.57-3.31,4.47-3.31.77,0,1.4.11,1.88.32l-.07,6.76Z" fill="#1d2d5c" stroke-width="0"/><path d="M291.05,460.77c0-1.06.34-1.94,1.02-2.61.68-.68,1.58-1.01,2.7-1.01s2.03.33,2.71,1.01c.68.68,1.02,1.55,1.02,2.61s-.33,1.91-1,2.61-1.57,1.04-2.72,1.04-2.04-.35-2.71-1.04-1-1.56-1-2.61M298.22,493.66h-6.86v-26.13h6.86v26.13Z" fill="#1d2d5c" stroke-width="0"/><path d="M314.59,486.66c0-.58-.28-1.12-.84-1.61-.55-.49-1.79-1.15-3.7-1.99-2.82-1.14-4.76-2.33-5.81-3.55-1.06-1.23-1.58-2.74-1.58-4.57,0-2.28.83-4.17,2.48-5.66s3.84-2.24,6.56-2.24c2.87,0,5.16.74,6.89,2.22,1.72,1.48,2.58,3.47,2.58,5.97h-6.83c0-2.13-.89-3.19-2.66-3.19-.72,0-1.32.22-1.79.68-.47.45-.7,1.08-.7,1.88,0,.58.26,1.09.77,1.53.51.45,1.73,1.08,3.65,1.9,2.79,1.03,4.75,2.18,5.91,3.44,1.15,1.27,1.73,2.91,1.73,4.92,0,2.33-.88,4.21-2.63,5.63-1.76,1.42-4.06,2.12-6.91,2.12-1.92,0-3.61-.37-5.07-1.12-1.46-.75-2.62-1.79-3.44-3.13-.83-1.33-1.24-2.77-1.24-4.32h6.5c.03,1.2.31,2.09.83,2.68.53.59,1.38.89,2.57.89,1.84,0,2.76-.83,2.76-2.49" fill="#1d2d5c" stroke-width="0"/><path d="M335.54,494.15c-3.51,0-6.25-1.05-8.22-3.14-1.96-2.1-2.94-5.09-2.94-8.99v-2.08c0-4.12.9-7.3,2.7-9.54,1.81-2.24,4.39-3.35,7.75-3.35s5.76,1.05,7.41,3.14c1.66,2.1,2.51,5.21,2.54,9.32v3.35h-13.6c.1,1.94.52,3.36,1.28,4.26.76.9,1.92,1.35,3.5,1.35,2.28,0,4.19-.78,5.72-2.34l2.68,4.13c-.84,1.16-2.06,2.1-3.65,2.82-1.6.72-3.32,1.08-5.2,1.08M331.24,478.11h6.83v-.63c-.03-1.56-.29-2.74-.77-3.55-.48-.8-1.32-1.21-2.51-1.21s-2.06.42-2.59,1.28c-.54.86-.86,2.22-.96,4.11" fill="#1d2d5c" stroke-width="0"/><rect x="359.72" y="458.49" width="7.1" height="35.17" fill="#1d2d5c" stroke-width="0"/><polygon points="394.38 464.41 385.68 464.41 385.68 493.67 378.56 493.67 378.56 464.41 370.01 464.41 370.01 458.49 394.38 458.49 394.38 464.41" fill="#1d2d5c" stroke-width="0"/><path d="M412.48,208.56c2.83,0,5.14,2.31,5.14,5.14s-2.31,5.12-5.14,5.12-5.13-2.3-5.13-5.12,2.3-5.14,5.13-5.14M412.48,217.97c2.37,0,4.27-1.91,4.27-4.27s-1.9-4.27-4.27-4.27-4.27,1.9-4.27,4.27,1.91,4.27,4.27,4.27M410.69,211.35c0-.14.11-.28.27-.28h2.03c.88,0,1.76.53,1.76,1.6s-.76,1.46-1.16,1.55c.29.56.57,1.13.86,1.69.1.17-.05.39-.25.39h-.48c-.11,0-.21-.11-.26-.2l-.8-1.78h-1.06v1.71c0,.14-.11.27-.27.27h-.37c-.16,0-.27-.13-.27-.27v-4.68ZM412.99,213.49c.53,0,.85-.37.85-.81,0-.48-.33-.81-.85-.81h-1.4v1.63h1.4Z" fill="#1d2d5c" stroke-width="0"/><path d="M277.45,303.09c-66.45,0-119.97-56.4-115.21-123.85,4.05-57.33,50.8-103.54,108.18-106.96,49.35-2.94,92.58,25.31,111.85,66.85.47,1,1.45,1.65,2.56,1.65h25.89c1.97,0,3.37-1.97,2.68-3.81-20.81-55.87-75.03-95.48-138.39-94.44-76.45,1.26-139.61,62.97-142.52,139.38-3.16,82.71,62.96,150.74,144.96,150.74,62.26,0,115.33-39.24,135.9-94.33.69-1.85-.72-3.82-2.69-3.82h-25.91c-1.1,0-2.09.65-2.55,1.64-18.38,39.48-58.41,66.94-104.76,66.94" fill="#00a4e4" stroke-width="0"/><path d="M211.1,156.55c8.63,0,15.02,2.68,20.9,8.03.78.69.78,1.73.08,2.42l-6.73,7c-.61.6-1.55.6-2.16,0-3.2-2.85-7.43-4.4-11.66-4.4-9.75,0-16.92,8.11-16.92,17.78s7.25,17.53,17.01,17.53c4.05,0,8.46-1.47,11.57-4.14.6-.52,1.72-.52,2.24.08l6.73,7.17c.61.6.52,1.72-.08,2.33-5.87,5.7-13.3,8.38-20.98,8.38-17.27,0-31.17-13.73-31.17-30.99s13.9-31.17,31.17-31.17" fill="#1d2d5c" stroke-width="0"/><path d="M268.86,156.63c7.25,0,15.2,3.03,21.06,8.12.78.6.87,1.64.17,2.33l-6.82,7.25c-.69.61-1.64.61-2.33.09-3.28-3.03-7.08-4.14-11.31-4.14-9.41,0-17.01,7.94-17.01,17.44s7.68,17.18,17.09,17.18c2.51,0,5.09-.34,7.69-1.38v-5h-5.44c-.95,0-1.64-.69-1.64-1.55v-8.55c0-.95.69-1.64,1.64-1.64h17.35c.87,0,1.55.78,1.55,1.64l.09,23.23c0,.43-.35,1.12-.69,1.38,0,0-8.89,5.61-21.41,5.61-17.18,0-30.99-13.64-30.99-30.9s13.81-31.08,30.99-31.08" fill="#1d2d5c" stroke-width="0"/><path d="M302.79,159.05c0-.87.69-1.64,1.64-1.64h35.75c.94,0,1.64.77,1.64,1.64v9.41c0,.86-.69,1.64-1.64,1.64h-23.92v10.71h19.68c.87,0,1.64.78,1.64,1.64v9.41c0,.95-.78,1.64-1.64,1.64h-19.68v11.65h23.92c.94,0,1.64.78,1.64,1.64v9.41c0,.86-.69,1.64-1.64,1.64h-35.75c-.94,0-1.64-.78-1.64-1.64v-57.16Z" fill="#1d2d5c" stroke-width="0"/><rect x="353.39" y="157.41" width="13.64" height="60.43" rx="1.64" ry="1.64" fill="#1d2d5c" stroke-width="0"/><path d="M389.65,170.1h-12.35c-.95,0-1.64-.78-1.64-1.64v-9.41c0-.87.69-1.64,1.64-1.64h38.33c.95,0,1.64.78,1.64,1.64v9.41c0,.86-.69,1.64-1.64,1.64h-12.34v46.1c0,.87-.78,1.64-1.64,1.64h-10.36c-.86,0-1.64-.78-1.64-1.64v-46.1Z" fill="#1d2d5c" stroke-width="0"/></svg>