<?xml version="1.0" encoding="UTF-8"?><svg id="a" xmlns="http://www.w3.org/2000/svg" viewBox="0 0 550 550"><path d="M20,0h510c11,0,20,9,20,20v510c0,11-9,20-20,20H20c-11,0-20-9-20-20V20C0,9,9,0,20,0Z" fill="#f6f7f8" stroke-width="0"/><path d="M98.62,394.06c-.18,4-1.3,7.03-3.37,9.09-2.08,2.06-5,3.09-8.78,3.09-3.97,0-7.01-1.31-9.12-3.92-2.12-2.61-3.17-6.33-3.17-11.17v-5.91c0-4.82,1.09-8.54,3.28-11.15,2.18-2.62,5.22-3.92,9.11-3.92s6.73,1.07,8.71,3.21c1.98,2.14,3.11,5.2,3.38,9.21h-7.11c-.07-2.47-.45-4.18-1.15-5.12-.7-.94-1.98-1.41-3.84-1.41s-3.24.66-4.03,1.99c-.79,1.33-1.21,3.51-1.25,6.54v6.63c0,3.49.39,5.88,1.17,7.19.78,1.3,2.12,1.95,4.01,1.95s3.15-.45,3.86-1.36c.71-.91,1.11-2.55,1.21-4.93h7.08Z" fill="#1d2d5c" stroke-width="0"/><path d="M112.69,406.24c-3.5,0-6.23-1.05-8.19-3.13-1.96-2.09-2.94-5.08-2.94-8.97v-2.07c0-4.12.9-7.29,2.7-9.52,1.8-2.23,4.38-3.35,7.74-3.35s5.75,1.05,7.4,3.14c1.65,2.09,2.5,5.19,2.53,9.3v3.34h-13.57c.1,1.94.52,3.35,1.28,4.25.76.89,1.92,1.34,3.49,1.34,2.28,0,4.19-.79,5.72-2.34l2.68,4.12c-.84,1.16-2.05,2.09-3.64,2.81-1.59.71-3.32,1.07-5.19,1.07M108.4,390.23h6.82v-.62c-.04-1.56-.29-2.74-.77-3.54-.48-.8-1.31-1.21-2.5-1.21s-2.05.43-2.59,1.28c-.54.85-.86,2.22-.95,4.1" fill="#1d2d5c" stroke-width="0"/><path d="M138.16,386.25l-2.27-.19c-1.86,0-3.12.81-3.78,2.46v17.24h-6.85v-26.08h6.44l.19,2.82c1.08-2.2,2.56-3.3,4.46-3.3.77,0,1.4.1,1.88.31l-.07,6.75Z" fill="#1d2d5c" stroke-width="0"/><path d="M150.29,373.26v6.41h3.5v5.11h-3.5v12.97c0,1.03.14,1.74.42,2.12.28.39.82.58,1.62.58.66,0,1.2-.05,1.62-.17l-.05,5.3c-1.16.44-2.41.65-3.76.65-4.41,0-6.63-2.53-6.68-7.58v-13.88h-3.02v-5.11h3.02v-6.41h6.82Z" fill="#1d2d5c" stroke-width="0"/><path d="M157.03,372.92c0-1.06.34-1.93,1.01-2.6s1.58-1.02,2.7-1.02,2.03.34,2.7,1.02c.67.67,1.01,1.54,1.01,2.6s-.33,1.92-1,2.61-1.57,1.03-2.71,1.03-2.05-.34-2.71-1.03-1-1.56-1-2.61M164.19,405.75h-6.85v-26.08h6.85v26.08Z" fill="#1d2d5c" stroke-width="0"/><path d="M170.54,405.75v-20.97h-3.16v-5.11h3.16v-2.34c.02-2.87.77-5.12,2.28-6.71,1.5-1.6,3.58-2.4,6.23-2.4.81,0,1.84.16,3.09.48l-.05,5.45c-.46-.14-1.02-.21-1.66-.21-2.03,0-3.04,1.2-3.04,3.62v2.12h4.07v5.11h-4.07v20.97h-6.85Z" fill="#1d2d5c" stroke-width="0"/><path d="M184.65,372.92c0-1.06.34-1.93,1.02-2.6.67-.68,1.57-1.02,2.7-1.02s2.02.34,2.69,1.02c.68.67,1.02,1.54,1.02,2.6s-.33,1.92-1,2.61c-.67.69-1.58,1.03-2.71,1.03s-2.05-.34-2.71-1.03-1.01-1.56-1.01-2.61M191.81,405.75h-6.85v-26.08h6.85v26.08Z" fill="#1d2d5c" stroke-width="0"/><path d="M207.13,406.24c-3.5,0-6.23-1.05-8.2-3.13-1.96-2.09-2.94-5.08-2.94-8.97v-2.07c0-4.12.9-7.29,2.7-9.52,1.8-2.23,4.38-3.35,7.74-3.35s5.75,1.05,7.4,3.14c1.65,2.09,2.5,5.19,2.53,9.3v3.34h-13.57c.1,1.94.52,3.35,1.28,4.25.76.89,1.92,1.34,3.49,1.34,2.28,0,4.19-.79,5.72-2.34l2.68,4.12c-.84,1.16-2.05,2.09-3.64,2.81-1.59.71-3.32,1.07-5.19,1.07M202.84,390.23h6.82v-.62c-.04-1.56-.29-2.74-.77-3.54-.48-.8-1.31-1.21-2.5-1.21s-2.05.43-2.59,1.28c-.54.85-.86,2.22-.95,4.1" fill="#1d2d5c" stroke-width="0"/><path d="M218.81,391.92c0-4.27.73-7.46,2.17-9.57,1.45-2.1,3.55-3.15,6.32-3.15,2,0,3.68.86,5.01,2.6v-13.06h6.87v37.02h-6.19l-.32-2.65c-1.4,2.09-3.19,3.13-5.4,3.13-2.73,0-4.81-1.04-6.25-3.13-1.44-2.09-2.18-5.16-2.21-9.21v-1.98ZM225.66,393.63c0,2.57.27,4.37.82,5.39.55,1.02,1.47,1.53,2.77,1.53s2.37-.6,3.06-1.81v-11.91c-.67-1.28-1.68-1.93-3.03-1.93-1.25,0-2.17.51-2.75,1.52-.58,1.01-.87,2.81-.87,5.4v1.81Z" fill="#1d2d5c" stroke-width="0"/><rect x="255.23" y="370.66" width="7.08" height="35.1" fill="#1d2d5c" stroke-width="0"/><path d="M273.69,379.67l.19,2.58c1.55-2.05,3.56-3.06,6.05-3.06,4.48,0,6.79,3.14,6.92,9.43v17.14h-6.85v-16.63c0-1.48-.22-2.55-.67-3.22-.44-.67-1.21-1.01-2.33-1.01-1.24,0-2.2.64-2.89,1.91v18.94h-6.85v-26.08h6.41Z" fill="#1d2d5c" stroke-width="0"/><path d="M292.81,405.75v-20.97h-3.16v-5.11h3.16v-2.34c.02-2.87.77-5.12,2.28-6.71,1.5-1.6,3.58-2.4,6.23-2.4.81,0,1.84.16,3.09.48l-.05,5.45c-.46-.14-1.02-.21-1.66-.21-2.03,0-3.04,1.2-3.04,3.62v2.12h4.07v5.11h-4.07v20.97h-6.85Z" fill="#1d2d5c" stroke-width="0"/><path d="M306.13,391.87c0-3.95.93-7.05,2.8-9.3,1.87-2.25,4.44-3.37,7.74-3.37s5.92,1.12,7.79,3.37,2.8,5.37,2.8,9.35v1.67c0,3.97-.92,7.07-2.77,9.3-1.85,2.24-4.44,3.35-7.76,3.35s-5.94-1.12-7.8-3.37c-1.86-2.24-2.78-5.35-2.78-9.34v-1.67ZM312.98,393.58c0,4.66,1.24,6.99,3.74,6.99,2.3,0,3.54-1.94,3.71-5.83l.02-2.87c0-2.37-.33-4.14-.99-5.29-.66-1.15-1.59-1.72-2.8-1.72s-2.06.58-2.71,1.72c-.65,1.15-.98,2.91-.98,5.29v1.71Z" fill="#1d2d5c" stroke-width="0"/><path d="M343.87,386.25l-2.27-.19c-1.86,0-3.12.81-3.78,2.46v17.24h-6.85v-26.08h6.44l.19,2.82c1.08-2.2,2.56-3.3,4.46-3.3.77,0,1.4.1,1.88.31l-.07,6.75Z" fill="#1d2d5c" stroke-width="0"/><path d="M353.28,379.67l.19,2.41c1.53-1.93,3.54-2.89,6.05-2.89s4.44,1.17,5.52,3.52c1.49-2.35,3.62-3.52,6.39-3.52,4.56,0,6.9,3.16,7.01,9.48v17.09h-6.82v-16.65c0-1.51-.21-2.59-.62-3.23-.42-.64-1.13-.97-2.12-.97-1.27,0-2.22.79-2.84,2.34l.05.82v17.7h-6.82v-16.61c0-1.5-.2-2.58-.6-3.24-.4-.67-1.12-1.01-2.15-1.01-1.17,0-2.11.64-2.8,1.91v18.94h-6.82v-26.08h6.39Z" fill="#1d2d5c" stroke-width="0"/><path d="M395.38,405.76c-.2-.4-.39-1.08-.58-2.03-1.23,1.67-2.88,2.51-4.97,2.51s-4-.73-5.44-2.17c-1.44-1.45-2.16-3.32-2.16-5.61,0-2.74.87-4.85,2.62-6.34,1.74-1.49,4.25-2.26,7.53-2.29h2.08v-2.1c0-1.17-.2-2-.61-2.48-.4-.48-.99-.73-1.75-.73-1.71,0-2.56,1-2.56,2.99h-6.82c0-2.41.9-4.4,2.71-5.97,1.81-1.57,4.09-2.35,6.86-2.35s5.07.74,6.64,2.23c1.56,1.48,2.35,3.61,2.35,6.37v12.27c.03,2.25.35,4.01.96,5.28v.41h-6.87ZM391.35,400.88c.76,0,1.4-.15,1.93-.46.53-.3.93-.67,1.18-1.08v-5.42h-1.64c-1.15,0-2.07.37-2.74,1.11s-1,1.73-1,2.97c0,1.93.76,2.89,2.27,2.89" fill="#1d2d5c" stroke-width="0"/><path d="M413.66,373.26v6.41h3.5v5.11h-3.5v12.97c0,1.03.14,1.74.42,2.12.28.39.82.58,1.62.58.66,0,1.2-.05,1.62-.17l-.05,5.3c-1.16.44-2.41.65-3.76.65-4.41,0-6.63-2.53-6.68-7.58v-13.88h-3.02v-5.11h3.02v-6.41h6.82Z" fill="#1d2d5c" stroke-width="0"/><path d="M420.4,372.92c0-1.06.34-1.93,1.02-2.6.67-.68,1.57-1.02,2.7-1.02s2.02.34,2.69,1.02c.68.67,1.02,1.54,1.02,2.6s-.34,1.92-1.01,2.61-1.57,1.03-2.71,1.03-2.05-.34-2.71-1.03c-.67-.69-1.01-1.56-1.01-2.61M427.56,405.75h-6.85v-26.08h6.85v26.08Z" fill="#1d2d5c" stroke-width="0"/><path d="M431.55,391.87c0-3.95.93-7.05,2.8-9.3,1.87-2.25,4.44-3.37,7.74-3.37s5.92,1.12,7.79,3.37,2.8,5.37,2.8,9.35v1.67c0,3.97-.92,7.07-2.77,9.3-1.85,2.24-4.44,3.35-7.76,3.35s-5.94-1.12-7.8-3.37c-1.86-2.24-2.78-5.35-2.78-9.34v-1.67ZM438.39,393.58c0,4.66,1.24,6.99,3.74,6.99,2.3,0,3.54-1.94,3.71-5.83l.02-2.87c0-2.37-.33-4.14-.99-5.29-.66-1.15-1.59-1.72-2.8-1.72s-2.06.58-2.71,1.72c-.65,1.15-.98,2.91-.98,5.29v1.71Z" fill="#1d2d5c" stroke-width="0"/><path d="M462.65,379.67l.19,2.58c1.55-2.05,3.56-3.06,6.05-3.06,4.48,0,6.79,3.14,6.92,9.43v17.14h-6.85v-16.63c0-1.48-.22-2.55-.67-3.22-.44-.67-1.21-1.01-2.33-1.01-1.24,0-2.2.64-2.89,1.91v18.94h-6.85v-26.08h6.41Z" fill="#1d2d5c" stroke-width="0"/><path d="M433.1,441.65c2.82,0,5.13,2.31,5.13,5.13s-2.31,5.12-5.13,5.12-5.12-2.3-5.12-5.12,2.3-5.13,5.12-5.13M433.1,451.05c2.36,0,4.26-1.91,4.26-4.26s-1.9-4.26-4.26-4.26-4.26,1.9-4.26,4.26,1.91,4.26,4.26,4.26M431.31,444.43c0-.14.11-.27.27-.27h2.02c.88,0,1.75.53,1.75,1.59s-.76,1.46-1.15,1.56c.28.55.57,1.12.85,1.68.1.17-.04.39-.24.39h-.49c-.11,0-.21-.11-.26-.2l-.8-1.78h-1.06v1.71c0,.15-.11.27-.27.27h-.37c-.16,0-.27-.12-.27-.27v-4.68ZM433.61,446.57c.53,0,.86-.37.86-.81,0-.48-.33-.81-.86-.81h-1.4v1.62h1.4Z" fill="#1d2d5c" stroke-width="0"/><path d="M127.63,441.72c0-1.43-.36-2.51-1.09-3.24-.73-.73-2.06-1.49-3.99-2.28-3.52-1.33-6.05-2.9-7.6-4.69-1.54-1.8-2.31-3.91-2.31-6.35,0-2.96,1.05-5.33,3.15-7.13,2.1-1.79,4.76-2.68,7.99-2.68,2.15,0,4.07.45,5.76,1.36,1.69.91,2.99,2.19,3.9,3.85.9,1.65,1.36,3.53,1.36,5.64h-7.06c0-1.64-.35-2.89-1.05-3.75-.7-.86-1.71-1.29-3.03-1.29-1.24,0-2.2.37-2.89,1.1-.69.73-1.03,1.71-1.03,2.95,0,.96.39,1.84,1.15,2.62.77.78,2.14,1.59,4.1,2.42,3.43,1.24,5.91,2.75,7.46,4.56,1.55,1.8,2.33,4.09,2.33,6.87,0,3.05-.98,5.44-2.92,7.16-1.94,1.72-4.59,2.58-7.93,2.58-2.27,0-4.33-.46-6.2-1.4-1.86-.93-3.32-2.27-4.37-4-1.05-1.73-1.58-3.78-1.58-6.14h7.11c0,2.02.39,3.5,1.18,4.41.79.92,2.07,1.37,3.85,1.37,2.47,0,3.71-1.31,3.71-3.93" fill="#1d2d5c" stroke-width="0"/><path d="M147,439.57l3.47-14.73h7.27l-8.58,29.98c-1.29,4.42-3.71,6.63-7.26,6.63-.82,0-1.75-.15-2.8-.46v-5.33l.8.02c1.06,0,1.86-.2,2.4-.61.54-.41.95-1.12,1.21-2.14l.53-1.76-7.52-26.34h7.33l3.13,14.73Z" fill="#1d2d5c" stroke-width="0"/><path d="M171.72,443.94c0-.58-.28-1.11-.83-1.6-.55-.49-1.78-1.15-3.7-1.99-2.81-1.14-4.75-2.32-5.79-3.54-1.06-1.22-1.58-2.74-1.58-4.56,0-2.28.82-4.16,2.47-5.65,1.65-1.49,3.83-2.23,6.55-2.23,2.86,0,5.15.74,6.87,2.22,1.72,1.48,2.58,3.46,2.58,5.95h-6.82c0-2.12-.88-3.18-2.65-3.18-.73,0-1.32.23-1.78.68-.47.45-.7,1.08-.7,1.88,0,.58.26,1.09.77,1.53.51.45,1.72,1.07,3.64,1.89,2.78,1.03,4.74,2.18,5.89,3.44,1.15,1.26,1.72,2.9,1.72,4.91,0,2.33-.88,4.2-2.63,5.61-1.75,1.41-4.05,2.12-6.89,2.12-1.92,0-3.6-.37-5.06-1.12-1.46-.75-2.61-1.79-3.44-3.12-.83-1.33-1.24-2.77-1.24-4.31h6.49c.03,1.19.3,2.08.83,2.68.52.59,1.38.89,2.57.89,1.83,0,2.75-.83,2.75-2.48" fill="#1d2d5c" stroke-width="0"/><path d="M190.03,418.44v6.41h3.5v5.11h-3.5v12.97c0,1.03.14,1.74.42,2.12.28.39.82.58,1.63.58.65,0,1.2-.05,1.61-.17l-.05,5.3c-1.16.44-2.41.65-3.76.65-4.4,0-6.63-2.53-6.68-7.58v-13.88h-3.02v-5.11h3.02v-6.41h6.82Z" fill="#1d2d5c" stroke-width="0"/><path d="M207.3,451.41c-3.5,0-6.23-1.05-8.19-3.13-1.96-2.09-2.94-5.08-2.94-8.97v-2.07c0-4.12.9-7.29,2.7-9.52,1.8-2.23,4.38-3.35,7.74-3.35s5.75,1.05,7.4,3.14c1.65,2.09,2.5,5.19,2.53,9.3v3.34h-13.57c.1,1.94.52,3.35,1.28,4.25.76.89,1.92,1.34,3.49,1.34,2.28,0,4.19-.78,5.72-2.34l2.68,4.12c-.84,1.16-2.05,2.09-3.64,2.81-1.59.71-3.32,1.07-5.19,1.07M203.01,435.4h6.82v-.62c-.04-1.56-.29-2.74-.77-3.54-.48-.8-1.31-1.21-2.5-1.21s-2.05.43-2.59,1.28c-.54.85-.86,2.22-.95,4.1" fill="#1d2d5c" stroke-width="0"/><path d="M226.3,424.85l.19,2.41c1.53-1.93,3.54-2.89,6.05-2.89s4.44,1.17,5.52,3.52c1.49-2.35,3.62-3.52,6.39-3.52,4.56,0,6.9,3.16,7.01,9.48v17.09h-6.82v-16.65c0-1.51-.21-2.59-.62-3.23-.42-.64-1.13-.97-2.12-.97-1.27,0-2.22.79-2.84,2.34l.05.82v17.7h-6.82v-16.61c0-1.5-.2-2.58-.6-3.24-.4-.67-1.12-1.01-2.15-1.01-1.17,0-2.11.64-2.8,1.91v18.94h-6.82v-26.08h6.39Z" fill="#1d2d5c" stroke-width="0"/><path d="M267.56,443.94c0-.58-.28-1.11-.83-1.6-.55-.49-1.78-1.15-3.7-1.99-2.81-1.14-4.75-2.32-5.79-3.54-1.06-1.22-1.58-2.74-1.58-4.56,0-2.28.83-4.16,2.47-5.65,1.65-1.49,3.83-2.23,6.55-2.23,2.86,0,5.15.74,6.87,2.22,1.72,1.48,2.58,3.46,2.58,5.95h-6.82c0-2.12-.89-3.18-2.65-3.18-.73,0-1.32.23-1.78.68-.47.45-.7,1.08-.7,1.88,0,.58.26,1.09.77,1.53.51.45,1.72,1.07,3.64,1.89,2.78,1.03,4.75,2.18,5.89,3.44s1.72,2.9,1.72,4.91c0,2.33-.88,4.2-2.63,5.61-1.75,1.41-4.05,2.12-6.89,2.12-1.92,0-3.6-.37-5.06-1.12-1.46-.75-2.61-1.79-3.44-3.12-.83-1.33-1.24-2.77-1.24-4.31h6.49c.03,1.19.31,2.08.83,2.68.52.59,1.37.89,2.56.89,1.83,0,2.75-.83,2.75-2.48" fill="#1d2d5c" stroke-width="0"/><path d="M305.91,443.75h-9.67l-1.88,7.19h-7.5l10.97-35.1h6.48l11.04,35.1h-7.57l-1.88-7.19ZM297.79,437.84h6.55l-3.28-12.51-3.28,12.51Z" fill="#1d2d5c" stroke-width="0"/><path d="M330.36,448.54c-1.42,1.92-3.31,2.87-5.69,2.87s-4.21-.82-5.45-2.47-1.86-4.04-1.86-7.2v-16.9h6.82v17.07c.03,2.54.87,3.81,2.53,3.81,1.56,0,2.68-.68,3.38-2.03v-18.85h6.86v26.08h-6.41l-.19-2.39Z" fill="#1d2d5c" stroke-width="0"/><path d="M340.43,437.09c0-4.27.73-7.46,2.17-9.57,1.45-2.1,3.55-3.15,6.32-3.15,2,0,3.68.86,5.01,2.6v-13.06h6.87v37.02h-6.19l-.32-2.65c-1.4,2.09-3.19,3.13-5.4,3.13-2.73,0-4.81-1.04-6.25-3.13-1.44-2.09-2.18-5.16-2.21-9.21v-1.98ZM347.27,438.8c0,2.57.27,4.37.82,5.39.55,1.02,1.47,1.53,2.77,1.53s2.37-.6,3.06-1.81v-11.91c-.67-1.28-1.68-1.93-3.03-1.93-1.25,0-2.17.51-2.75,1.52-.58,1.01-.87,2.81-.87,5.4v1.81Z" fill="#1d2d5c" stroke-width="0"/><path d="M365.31,418.1c0-1.06.34-1.93,1.02-2.6.67-.68,1.58-1.02,2.7-1.02s2.02.34,2.7,1.02c.67.67,1.01,1.54,1.01,2.6s-.33,1.92-1,2.61-1.57,1.03-2.71,1.03-2.05-.34-2.71-1.03-1.01-1.56-1.01-2.61M372.47,450.93h-6.85v-26.08h6.85v26.08Z" fill="#1d2d5c" stroke-width="0"/><path d="M385.19,418.44v6.41h3.5v5.11h-3.5v12.97c0,1.03.14,1.74.42,2.12.28.39.82.58,1.62.58.66,0,1.2-.05,1.62-.17l-.05,5.3c-1.16.44-2.41.65-3.76.65-4.41,0-6.63-2.53-6.68-7.58v-13.88h-3.01v-5.11h3.01v-6.41h6.82Z" fill="#1d2d5c" stroke-width="0"/><path d="M390.41,437.04c0-3.95.93-7.05,2.8-9.3,1.87-2.25,4.44-3.37,7.74-3.37s5.92,1.12,7.79,3.37,2.8,5.37,2.8,9.35v1.67c0,3.97-.92,7.07-2.77,9.3-1.85,2.24-4.44,3.35-7.76,3.35s-5.94-1.12-7.8-3.37c-1.86-2.24-2.78-5.35-2.78-9.34v-1.67ZM397.26,438.75c0,4.66,1.24,6.99,3.74,6.99,2.3,0,3.54-1.94,3.71-5.83l.02-2.87c0-2.37-.33-4.14-.99-5.29-.66-1.15-1.59-1.72-2.8-1.72s-2.06.58-2.71,1.72c-.65,1.15-.98,2.91-.98,5.29v1.71Z" fill="#1d2d5c" stroke-width="0"/><path d="M428.15,431.43l-2.27-.19c-1.86,0-3.12.81-3.78,2.46v17.24h-6.85v-26.08h6.44l.19,2.82c1.08-2.2,2.56-3.3,4.46-3.3.77,0,1.4.1,1.88.31l-.07,6.75Z" fill="#1d2d5c" stroke-width="0"/><path d="M417.39,214.1c2.82,0,5.13,2.31,5.13,5.13s-2.31,5.12-5.13,5.12-5.12-2.3-5.12-5.12,2.3-5.13,5.12-5.13M417.39,223.5c2.36,0,4.26-1.92,4.26-4.26s-1.9-4.26-4.26-4.26-4.26,1.9-4.26,4.26,1.91,4.26,4.26,4.26M415.61,216.88c0-.14.11-.27.27-.27h2.02c.88,0,1.75.53,1.75,1.59s-.76,1.46-1.15,1.56c.28.55.57,1.12.85,1.68.1.17-.04.39-.24.39h-.49c-.11,0-.21-.11-.26-.2l-.8-1.78h-1.06v1.71c0,.15-.11.27-.27.27h-.37c-.16,0-.27-.12-.27-.27v-4.68ZM417.9,219.02c.53,0,.86-.37.86-.81,0-.48-.33-.81-.86-.81h-1.4v1.62h1.4Z" fill="#1d2d5c" stroke-width="0"/><path d="M272.24,302.54c-66.31,0-119.72-56.28-114.97-123.58,4.04-57.21,50.69-103.32,107.95-106.74,49.25-2.94,92.38,25.26,111.61,66.71.46,1,1.45,1.65,2.55,1.65h25.84c1.97,0,3.37-1.97,2.68-3.81-20.76-55.76-74.87-95.29-138.1-94.24-76.29,1.25-139.32,62.84-142.23,139.08-3.15,82.53,62.83,150.43,144.66,150.43,62.13,0,115.09-39.16,135.62-94.13.69-1.84-.71-3.81-2.68-3.81h-25.85c-1.1,0-2.09.64-2.55,1.64-18.34,39.4-58.28,66.79-104.53,66.79" fill="#e31837" stroke-width="0"/><path d="M222.02,149.7c10.24,0,17.83,3.18,24.79,9.53.92.82.92,2.05.11,2.87l-7.99,8.3c-.71.72-1.84.72-2.56,0-3.79-3.38-8.81-5.22-13.83-5.22-11.57,0-20.08,9.63-20.08,21.1s8.61,20.8,20.18,20.8c4.82,0,10.04-1.74,13.73-4.92.72-.61,2.05-.61,2.66.1l7.99,8.51c.71.72.61,2.05-.1,2.77-6.97,6.76-15.78,9.94-24.9,9.94-20.49,0-36.98-16.29-36.98-36.78s16.49-36.98,36.98-36.98" fill="#1d2d5c" stroke-width="0"/><path d="M259.21,152.67c0-1.02.92-1.94,1.94-1.94h12.29c1.03,0,1.95.92,1.95,1.94v67.82c0,1.02-.92,1.94-1.95,1.94h-12.29c-1.02,0-1.94-.92-1.94-1.94v-67.82Z" fill="#1d2d5c" stroke-width="0"/><path d="M288.92,212.71l4.82-8.51c.81-1.33,2.77-1.12,3.48-.61.41.2,7.79,5.63,14.55,5.63,4.1,0,7.07-2.56,7.07-6.14,0-4.31-3.59-7.58-10.55-10.35-8.81-3.49-19.88-10.35-19.88-22.64,0-10.14,7.89-20.38,23.67-20.38,10.65,0,18.85,5.42,21.92,7.68,1.23.72,1.02,2.56.61,3.28l-5.22,7.89c-.72,1.13-2.56,2.05-3.49,1.33-.92-.51-8.4-6.15-14.65-6.15-3.69,0-6.45,2.46-6.45,5.23,0,3.79,3.08,6.66,11.16,9.94,7.99,3.18,20.7,9.43,20.7,23.36,0,10.55-9.12,21.21-24.18,21.21-13.32,0-20.7-5.53-23.05-7.89-1.02-1.02-1.33-1.43-.51-2.87" fill="#1d2d5c" stroke-width="0"/><path d="M339.95,219.77l32.07-68.95c.31-.62,1.02-1.13,1.74-1.13h1.02c.72,0,1.43.51,1.74,1.13l32.07,68.95c.62,1.33-.2,2.66-1.74,2.66h-11.37c-1.84,0-2.66-.61-3.59-2.56l-3.68-8.09h-27.87l-3.69,8.2c-.51,1.23-1.64,2.46-3.69,2.46h-11.27c-1.53,0-2.36-1.33-1.74-2.66M382.05,197.85l-7.79-16.9h-.1l-7.68,16.9h15.57Z" fill="#1d2d5c" stroke-width="0"/></svg>