<?xml version="1.0" encoding="UTF-8"?><svg id="a" xmlns="http://www.w3.org/2000/svg" viewBox="0 0 550 550"><path d="M20,0h510c11,0,20,9,20,20v510c0,11-9,20-20,20H20c-11,0-20-9-20-20V20C0,9,9,0,20,0Z" fill="#f6f7f8" stroke-width="0"/><path d="M144.82,394.8c-.18,4-1.31,7.04-3.38,9.09-2.07,2.06-5,3.09-8.78,3.09-3.97,0-7.02-1.31-9.13-3.92-2.12-2.61-3.18-6.34-3.18-11.18v-5.91c0-4.83,1.09-8.55,3.28-11.16,2.19-2.61,5.22-3.92,9.12-3.92s6.74,1.07,8.72,3.21c1.99,2.14,3.12,5.21,3.39,9.22h-7.12c-.07-2.48-.45-4.19-1.14-5.13-.7-.94-1.98-1.41-3.85-1.41s-3.24.66-4.03,1.99c-.78,1.33-1.2,3.52-1.25,6.55v6.64c0,3.49.39,5.88,1.17,7.19.78,1.3,2.12,1.95,4.02,1.95s3.15-.46,3.86-1.36c.71-.91,1.11-2.56,1.21-4.94h7.09Z" fill="#1d2d5c" stroke-width="0"/><path d="M158.89,406.98c-3.5,0-6.24-1.04-8.2-3.13-1.97-2.09-2.95-5.09-2.95-8.98v-2.07c0-4.12.9-7.3,2.7-9.53,1.8-2.23,4.39-3.35,7.75-3.35s5.75,1.05,7.41,3.15c1.65,2.1,2.5,5.2,2.53,9.31v3.35h-13.59c.1,1.94.52,3.36,1.28,4.26.76.89,1.92,1.34,3.5,1.34,2.28,0,4.19-.78,5.72-2.34l2.68,4.13c-.84,1.16-2.05,2.1-3.64,2.81-1.59.72-3.32,1.07-5.19,1.07M154.6,390.96h6.83v-.63c-.04-1.56-.29-2.74-.77-3.55-.49-.8-1.32-1.2-2.51-1.2s-2.05.43-2.59,1.28c-.54.86-.86,2.22-.95,4.1" fill="#1d2d5c" stroke-width="0"/><path d="M184.39,386.98l-2.26-.19c-1.87,0-3.13.82-3.79,2.46v17.25h-6.85v-26.11h6.45l.19,2.83c1.08-2.2,2.56-3.31,4.46-3.31.77,0,1.4.1,1.88.31l-.07,6.76Z" fill="#1d2d5c" stroke-width="0"/><path d="M196.54,373.98v6.42h3.5v5.12h-3.5v12.98c0,1.03.14,1.74.42,2.13.28.39.83.58,1.63.58.66,0,1.2-.05,1.62-.17l-.05,5.31c-1.16.44-2.41.65-3.76.65-4.41,0-6.64-2.53-6.69-7.58v-13.89h-3.01v-5.12h3.01v-6.42h6.83Z" fill="#1d2d5c" stroke-width="0"/><path d="M203.29,373.64c0-1.07.34-1.94,1.01-2.61.67-.68,1.58-1.01,2.7-1.01s2.03.34,2.7,1.01c.68.67,1.01,1.54,1.01,2.61s-.34,1.91-1,2.61c-.67.69-1.57,1.04-2.71,1.04s-2.05-.35-2.71-1.04c-.67-.69-1-1.56-1-2.61M210.45,406.5h-6.85v-26.11h6.85v26.11Z" fill="#1d2d5c" stroke-width="0"/><path d="M216.81,406.5v-20.99h-3.16v-5.12h3.16v-2.34c.02-2.88.77-5.12,2.28-6.72,1.5-1.6,3.58-2.4,6.24-2.4.8,0,1.83.16,3.09.49l-.05,5.45c-.47-.14-1.02-.22-1.67-.22-2.02,0-3.04,1.21-3.04,3.62v2.12h4.07v5.12h-4.07v20.99h-6.85Z" fill="#1d2d5c" stroke-width="0"/><path d="M230.93,373.64c0-1.07.34-1.94,1.01-2.61s1.58-1.01,2.71-1.01,2.03.34,2.7,1.01,1.01,1.54,1.01,2.61-.34,1.91-1,2.61c-.67.69-1.58,1.04-2.71,1.04s-2.05-.35-2.71-1.04c-.67-.69-1.01-1.56-1.01-2.61M238.11,406.5h-6.85v-26.11h6.85v26.11Z" fill="#1d2d5c" stroke-width="0"/><path d="M253.44,406.98c-3.51,0-6.24-1.04-8.21-3.13-1.96-2.09-2.94-5.09-2.94-8.98v-2.07c0-4.12.9-7.3,2.7-9.53,1.8-2.23,4.39-3.35,7.75-3.35s5.75,1.05,7.41,3.15c1.65,2.1,2.5,5.2,2.53,9.31v3.35h-13.59c.1,1.94.52,3.36,1.28,4.26.76.89,1.92,1.34,3.5,1.34,2.29,0,4.19-.78,5.72-2.34l2.68,4.13c-.84,1.16-2.05,2.1-3.64,2.81-1.59.72-3.32,1.07-5.19,1.07M249.14,390.96h6.83v-.63c-.04-1.56-.29-2.74-.77-3.55-.49-.8-1.32-1.2-2.51-1.2s-2.05.43-2.59,1.28c-.54.86-.86,2.22-.95,4.1" fill="#1d2d5c" stroke-width="0"/><path d="M265.13,392.65c0-4.28.72-7.47,2.17-9.58,1.44-2.11,3.55-3.16,6.32-3.16,2.01,0,3.68.87,5.02,2.61v-13.08h6.88v37.06h-6.21l-.31-2.65c-1.4,2.09-3.2,3.14-5.4,3.14-2.74,0-4.82-1.05-6.26-3.14-1.44-2.09-2.17-5.16-2.21-9.22v-1.98ZM271.98,394.37c0,2.58.28,4.37.82,5.39.55,1.02,1.47,1.53,2.77,1.53s2.37-.6,3.07-1.81v-11.92c-.68-1.29-1.69-1.93-3.04-1.93-1.25,0-2.17.51-2.75,1.52-.58,1.01-.87,2.82-.87,5.4v1.81Z" fill="#1d2d5c" stroke-width="0"/><path d="M300.94,373.64c0-1.07.34-1.94,1.01-2.61.68-.68,1.58-1.01,2.7-1.01s2.03.34,2.7,1.01c.68.67,1.02,1.54,1.02,2.61s-.34,1.91-1,2.61c-.67.69-1.58,1.04-2.72,1.04s-2.04-.35-2.71-1.04c-.66-.69-1-1.56-1-2.61M308.1,406.5h-6.85v-26.11h6.85v26.11Z" fill="#1d2d5c" stroke-width="0"/><path d="M319.15,380.39l.19,2.58c1.55-2.04,3.56-3.07,6.06-3.07,4.49,0,6.8,3.15,6.93,9.44v17.16h-6.85v-16.65c0-1.48-.22-2.55-.67-3.22-.44-.66-1.22-1-2.32-1-1.24,0-2.2.63-2.89,1.91v18.97h-6.85v-26.11h6.42Z" fill="#1d2d5c" stroke-width="0"/><path d="M358.6,393.67h-3.52v12.83h-7.09v-35.13h11.32c3.55,0,6.3.92,8.24,2.76,1.94,1.85,2.91,4.46,2.91,7.85,0,4.67-1.7,7.93-5.09,9.8l6.15,14.38v.34h-7.63l-5.28-12.83ZM355.08,387.75h4.03c1.41,0,2.47-.47,3.18-1.41.71-.94,1.07-2.2,1.07-3.77,0-3.52-1.38-5.28-4.13-5.28h-4.15v10.47Z" fill="#1d2d5c" stroke-width="0"/><path d="M374.49,373.64c0-1.07.34-1.94,1.01-2.61.68-.68,1.58-1.01,2.7-1.01s2.03.34,2.7,1.01c.68.67,1.01,1.54,1.01,2.61s-.34,1.91-1,2.61c-.66.69-1.57,1.04-2.71,1.04s-2.05-.35-2.71-1.04c-.67-.69-1-1.56-1-2.61M381.66,406.5h-6.85v-26.11h6.85v26.11Z" fill="#1d2d5c" stroke-width="0"/><path d="M398,399.5c0-.58-.28-1.11-.83-1.61-.56-.49-1.79-1.15-3.7-1.99-2.82-1.14-4.75-2.32-5.81-3.55s-1.58-2.74-1.58-4.57c0-2.28.83-4.16,2.47-5.66,1.65-1.49,3.83-2.23,6.55-2.23,2.86,0,5.15.74,6.88,2.22,1.72,1.48,2.58,3.47,2.58,5.96h-6.82c0-2.13-.89-3.19-2.65-3.19-.72,0-1.32.23-1.79.68-.47.45-.7,1.08-.7,1.88,0,.58.26,1.09.77,1.53.52.44,1.73,1.07,3.64,1.89,2.79,1.03,4.74,2.17,5.9,3.44,1.15,1.26,1.73,2.9,1.73,4.91,0,2.33-.88,4.21-2.63,5.62-1.76,1.42-4.06,2.13-6.9,2.13-1.92,0-3.61-.38-5.07-1.13-1.47-.75-2.61-1.79-3.44-3.12s-1.25-2.78-1.25-4.32h6.49c.03,1.19.31,2.08.83,2.68.52.59,1.38.89,2.57.89,1.83,0,2.75-.83,2.75-2.49" fill="#1d2d5c" stroke-width="0"/><polygon points="417.05 396.44 415.22 398.49 415.22 406.51 408.39 406.51 408.39 369.44 415.22 369.44 415.22 389.47 416.06 388.21 420.79 380.39 428.93 380.39 421.35 391.16 429.65 406.51 421.83 406.51 417.05 396.44" fill="#1d2d5c" stroke-width="0"/><path d="M136.29,451.73c-.19-.4-.38-1.08-.58-2.03-1.22,1.68-2.88,2.51-4.97,2.51s-4-.72-5.44-2.17c-1.44-1.45-2.16-3.32-2.16-5.63,0-2.73.87-4.85,2.61-6.34,1.75-1.5,4.26-2.26,7.54-2.29h2.08v-2.1c0-1.17-.2-2.01-.61-2.49-.4-.49-.99-.72-1.76-.72-1.71,0-2.56,1-2.56,3h-6.83c0-2.41.9-4.4,2.71-5.97,1.81-1.57,4.1-2.35,6.87-2.35s5.08.74,6.65,2.23c1.57,1.49,2.35,3.61,2.35,6.38v12.28c.04,2.25.35,4.01.96,5.28v.41h-6.88ZM132.27,446.85c.75,0,1.4-.16,1.93-.46.53-.31.93-.67,1.19-1.09v-5.43h-1.64c-1.16,0-2.07.37-2.74,1.11-.67.74-1.01,1.73-1.01,2.97,0,1.93.76,2.89,2.27,2.89" fill="#1d2d5c" stroke-width="0"/><path d="M152.91,425.62l.19,2.58c1.55-2.04,3.56-3.07,6.06-3.07,4.49,0,6.8,3.15,6.93,9.44v17.16h-6.85v-16.65c0-1.48-.22-2.55-.66-3.22-.45-.66-1.22-1-2.33-1-1.24,0-2.2.63-2.89,1.91v18.97h-6.85v-26.11h6.42Z" fill="#1d2d5c" stroke-width="0"/><path d="M169.57,437.87c0-4.28.72-7.47,2.17-9.58,1.44-2.11,3.55-3.16,6.32-3.16,2.01,0,3.68.87,5.02,2.61v-13.08h6.88v37.06h-6.21l-.31-2.65c-1.4,2.09-3.2,3.14-5.4,3.14-2.74,0-4.82-1.05-6.26-3.14-1.44-2.09-2.17-5.16-2.21-9.22v-1.98ZM176.43,439.59c0,2.58.28,4.37.82,5.39.55,1.02,1.47,1.53,2.77,1.53s2.37-.6,3.07-1.81v-11.92c-.68-1.29-1.69-1.93-3.04-1.93-1.25,0-2.17.51-2.75,1.52-.58,1.01-.87,2.82-.87,5.4v1.81Z" fill="#1d2d5c" stroke-width="0"/><rect x="206.04" y="416.6" width="7.09" height="35.13" fill="#1d2d5c" stroke-width="0"/><path d="M224.51,425.62l.19,2.58c1.55-2.04,3.56-3.07,6.06-3.07,4.49,0,6.8,3.15,6.93,9.44v17.16h-6.85v-16.65c0-1.48-.22-2.55-.67-3.22-.44-.66-1.22-1-2.32-1-1.24,0-2.2.63-2.89,1.91v18.97h-6.85v-26.11h6.42Z" fill="#1d2d5c" stroke-width="0"/><path d="M243.65,451.72v-20.99h-3.16v-5.12h3.16v-2.34c.02-2.88.78-5.12,2.28-6.72s3.58-2.4,6.24-2.4c.8,0,1.83.16,3.09.49l-.05,5.45c-.47-.14-1.02-.22-1.67-.22-2.02,0-3.04,1.21-3.04,3.62v2.12h4.07v5.12h-4.07v20.99h-6.85Z" fill="#1d2d5c" stroke-width="0"/><path d="M256.99,437.83c0-3.96.93-7.06,2.8-9.32,1.87-2.25,4.45-3.38,7.75-3.38s5.93,1.13,7.79,3.38c1.87,2.25,2.8,5.37,2.8,9.36v1.67c0,3.97-.92,7.08-2.77,9.32-1.85,2.23-4.44,3.35-7.77,3.35s-5.94-1.13-7.8-3.37c-1.86-2.25-2.79-5.36-2.79-9.35v-1.67ZM263.84,439.54c0,4.67,1.25,7,3.74,7,2.3,0,3.54-1.95,3.72-5.84l.02-2.87c0-2.38-.33-4.15-.99-5.3-.66-1.15-1.59-1.73-2.8-1.73s-2.06.58-2.71,1.73c-.65,1.15-.98,2.92-.98,5.3v1.71Z" fill="#1d2d5c" stroke-width="0"/><path d="M294.76,432.2l-2.26-.19c-1.87,0-3.13.82-3.79,2.46v17.25h-6.85v-26.11h6.45l.19,2.83c1.08-2.2,2.56-3.31,4.46-3.31.77,0,1.4.1,1.88.31l-.07,6.76Z" fill="#1d2d5c" stroke-width="0"/><path d="M304.18,425.62l.19,2.41c1.53-1.93,3.55-2.9,6.06-2.9s4.45,1.18,5.53,3.52c1.49-2.34,3.62-3.52,6.39-3.52,4.57,0,6.91,3.16,7.02,9.48v17.11h-6.83v-16.67c0-1.51-.21-2.59-.63-3.24-.42-.64-1.13-.96-2.12-.96-1.27,0-2.22.78-2.85,2.34l.05.82v17.71h-6.83v-16.62c0-1.5-.2-2.58-.61-3.25-.4-.66-1.11-1-2.14-1-1.17,0-2.11.63-2.8,1.91v18.97h-6.83v-26.11h6.39Z" fill="#1d2d5c" stroke-width="0"/><path d="M346.32,451.73c-.19-.4-.38-1.08-.58-2.03-1.22,1.68-2.88,2.51-4.97,2.51s-4-.72-5.44-2.17c-1.44-1.45-2.16-3.32-2.16-5.63,0-2.73.87-4.85,2.61-6.34,1.75-1.5,4.26-2.26,7.54-2.29h2.08v-2.1c0-1.17-.2-2.01-.61-2.49-.4-.49-.99-.72-1.76-.72-1.71,0-2.56,1-2.56,3h-6.83c0-2.41.9-4.4,2.71-5.97,1.81-1.57,4.1-2.35,6.87-2.35s5.08.74,6.65,2.23c1.57,1.49,2.35,3.61,2.35,6.38v12.28c.04,2.25.35,4.01.96,5.28v.41h-6.88ZM342.3,446.85c.75,0,1.4-.16,1.93-.46.53-.31.93-.67,1.19-1.09v-5.43h-1.64c-1.16,0-2.07.37-2.74,1.11-.67.74-1.01,1.73-1.01,2.97,0,1.93.76,2.89,2.27,2.89" fill="#1d2d5c" stroke-width="0"/><path d="M364.63,419.2v6.42h3.5v5.12h-3.5v12.98c0,1.03.14,1.74.42,2.13.28.39.83.58,1.63.58.66,0,1.2-.05,1.62-.17l-.05,5.31c-1.16.44-2.41.65-3.76.65-4.41,0-6.64-2.53-6.69-7.58v-13.89h-3.01v-5.12h3.01v-6.42h6.83Z" fill="#1d2d5c" stroke-width="0"/><path d="M371.37,418.86c0-1.06.34-1.93,1.01-2.61s1.58-1.01,2.7-1.01,2.03.34,2.7,1.01c.68.68,1.02,1.55,1.02,2.61s-.34,1.92-1.01,2.61c-.66.69-1.57,1.04-2.71,1.04s-2.04-.35-2.71-1.04c-.66-.69-1-1.56-1-2.61M378.54,451.73h-6.85v-26.11h6.85v26.11Z" fill="#1d2d5c" stroke-width="0"/><path d="M382.54,437.83c0-3.96.93-7.06,2.8-9.32,1.87-2.25,4.45-3.38,7.75-3.38s5.93,1.13,7.79,3.38c1.87,2.25,2.8,5.37,2.8,9.36v1.67c0,3.97-.92,7.08-2.77,9.32-1.85,2.23-4.44,3.35-7.77,3.35s-5.95-1.13-7.81-3.37c-1.86-2.25-2.79-5.36-2.79-9.35v-1.67ZM389.39,439.54c0,4.67,1.25,7,3.74,7,2.3,0,3.54-1.95,3.72-5.84l.02-2.87c0-2.38-.33-4.15-.99-5.3-.66-1.15-1.59-1.73-2.8-1.73s-2.06.58-2.71,1.73c-.65,1.15-.98,2.92-.98,5.3v1.71Z" fill="#1d2d5c" stroke-width="0"/><path d="M413.68,425.62l.19,2.58c1.55-2.04,3.56-3.07,6.06-3.07,4.49,0,6.8,3.15,6.93,9.44v17.16h-6.85v-16.65c0-1.48-.22-2.55-.66-3.22-.45-.66-1.22-1-2.33-1-1.24,0-2.2.63-2.89,1.91v18.97h-6.85v-26.11h6.42Z" fill="#1d2d5c" stroke-width="0"/><path d="M127.83,487.73c0-1.43-.37-2.52-1.1-3.25-.74-.73-2.07-1.49-4-2.28-3.52-1.34-6.06-2.9-7.6-4.7-1.54-1.79-2.31-3.91-2.31-6.36,0-2.96,1.05-5.34,3.15-7.13,2.1-1.8,4.77-2.69,8-2.69,2.15,0,4.07.46,5.76,1.36,1.69.91,2.99,2.19,3.9,3.85.9,1.65,1.36,3.54,1.36,5.64h-7.07c0-1.64-.35-2.89-1.05-3.75-.7-.86-1.71-1.29-3.03-1.29-1.24,0-2.2.37-2.9,1.1-.69.73-1.04,1.71-1.04,2.95,0,.96.38,1.84,1.16,2.62s2.14,1.59,4.1,2.43c3.43,1.24,5.91,2.76,7.47,4.56,1.55,1.8,2.32,4.1,2.32,6.88,0,3.06-.97,5.45-2.92,7.17-1.95,1.73-4.6,2.58-7.94,2.58-2.27,0-4.34-.47-6.2-1.4-1.87-.93-3.32-2.27-4.38-4.01s-1.58-3.79-1.58-6.15h7.12c0,2.03.4,3.5,1.18,4.42.79.92,2.08,1.37,3.86,1.37,2.47,0,3.71-1.31,3.71-3.93" fill="#1d2d5c" stroke-width="0"/><path d="M147.21,485.58l3.47-14.74h7.29l-8.59,30.02c-1.29,4.42-3.71,6.63-7.27,6.63-.82,0-1.76-.15-2.8-.46v-5.34l.8.02c1.06,0,1.86-.2,2.4-.61.54-.41.94-1.12,1.22-2.13l.53-1.77-7.53-26.37h7.34l3.13,14.74Z" fill="#1d2d5c" stroke-width="0"/><path d="M171.96,489.95c0-.58-.28-1.11-.83-1.61-.56-.49-1.79-1.15-3.7-1.99-2.82-1.14-4.75-2.32-5.81-3.55-1.05-1.22-1.58-2.74-1.58-4.57,0-2.28.83-4.16,2.47-5.66,1.65-1.49,3.83-2.23,6.55-2.23,2.86,0,5.15.74,6.88,2.22,1.72,1.48,2.58,3.47,2.58,5.96h-6.83c0-2.13-.89-3.19-2.65-3.19-.72,0-1.32.23-1.79.68-.47.45-.7,1.08-.7,1.88,0,.58.26,1.09.77,1.53.52.44,1.73,1.07,3.64,1.89,2.79,1.03,4.74,2.17,5.9,3.44,1.15,1.26,1.73,2.9,1.73,4.91,0,2.33-.88,4.21-2.63,5.62-1.76,1.42-4.06,2.13-6.9,2.13-1.92,0-3.61-.38-5.07-1.13-1.46-.75-2.61-1.79-3.44-3.12s-1.25-2.78-1.25-4.32h6.49c.03,1.19.31,2.08.83,2.68.52.59,1.38.89,2.57.89,1.83,0,2.75-.83,2.75-2.49" fill="#1d2d5c" stroke-width="0"/><path d="M190.29,464.42v6.42h3.5v5.12h-3.5v12.98c0,1.03.14,1.74.42,2.13.28.39.83.58,1.63.58.66,0,1.2-.05,1.62-.17l-.05,5.31c-1.16.44-2.41.65-3.76.65-4.41,0-6.64-2.53-6.69-7.58v-13.89h-3.01v-5.12h3.01v-6.42h6.83Z" fill="#1d2d5c" stroke-width="0"/><path d="M207.58,497.43c-3.51,0-6.24-1.04-8.2-3.13-1.97-2.09-2.95-5.09-2.95-8.98v-2.07c0-4.12.9-7.3,2.7-9.53,1.8-2.23,4.39-3.35,7.75-3.35s5.75,1.05,7.41,3.15c1.65,2.1,2.5,5.2,2.53,9.31v3.35h-13.59c.1,1.94.52,3.36,1.28,4.26.76.89,1.92,1.34,3.5,1.34,2.29,0,4.19-.78,5.72-2.34l2.68,4.13c-.84,1.16-2.05,2.1-3.64,2.81-1.59.72-3.32,1.07-5.19,1.07M203.28,481.41h6.83v-.63c-.04-1.56-.29-2.74-.77-3.55-.49-.8-1.32-1.2-2.51-1.2s-2.05.43-2.59,1.28c-.54.86-.86,2.22-.95,4.1" fill="#1d2d5c" stroke-width="0"/><path d="M226.6,470.84l.19,2.41c1.53-1.93,3.55-2.9,6.06-2.9s4.45,1.18,5.53,3.52c1.49-2.34,3.62-3.52,6.39-3.52,4.57,0,6.91,3.16,7.02,9.48v17.11h-6.83v-16.67c0-1.51-.21-2.59-.63-3.24-.42-.64-1.13-.96-2.12-.96-1.27,0-2.22.78-2.85,2.34l.05.82v17.71h-6.83v-16.62c0-1.5-.2-2.58-.61-3.25-.4-.66-1.11-1-2.14-1-1.17,0-2.11.63-2.8,1.91v18.97h-6.83v-26.11h6.39Z" fill="#1d2d5c" stroke-width="0"/><path d="M267.9,489.95c0-.58-.28-1.11-.83-1.61-.56-.49-1.79-1.15-3.7-1.99-2.82-1.14-4.75-2.32-5.81-3.55-1.05-1.22-1.58-2.74-1.58-4.57,0-2.28.83-4.16,2.47-5.66,1.65-1.49,3.83-2.23,6.55-2.23,2.86,0,5.15.74,6.88,2.22,1.72,1.48,2.58,3.47,2.58,5.96h-6.82c0-2.13-.89-3.19-2.65-3.19-.72,0-1.32.23-1.79.68-.47.45-.7,1.08-.7,1.88,0,.58.26,1.09.77,1.53.52.44,1.73,1.07,3.64,1.89,2.78,1.03,4.74,2.17,5.9,3.44,1.15,1.26,1.73,2.9,1.73,4.91,0,2.33-.88,4.21-2.63,5.62-1.76,1.42-4.06,2.13-6.9,2.13-1.92,0-3.61-.38-5.07-1.13-1.47-.75-2.61-1.79-3.44-3.12s-1.25-2.78-1.25-4.32h6.49c.03,1.19.31,2.08.83,2.68.52.59,1.38.89,2.57.89,1.83,0,2.75-.83,2.75-2.49" fill="#1d2d5c" stroke-width="0"/><path d="M313.34,485.24c-.18,4-1.31,7.04-3.38,9.09-2.07,2.06-5,3.09-8.78,3.09-3.97,0-7.02-1.31-9.13-3.92-2.12-2.61-3.18-6.34-3.18-11.18v-5.91c0-4.83,1.09-8.55,3.28-11.16,2.19-2.61,5.22-3.92,9.12-3.92s6.74,1.07,8.72,3.21c1.99,2.14,3.12,5.21,3.39,9.22h-7.12c-.07-2.48-.45-4.19-1.14-5.13-.7-.94-1.98-1.41-3.85-1.41s-3.24.66-4.03,1.99c-.78,1.33-1.2,3.52-1.25,6.55v6.64c0,3.49.39,5.88,1.17,7.19.77,1.3,2.11,1.95,4.01,1.95s3.15-.46,3.86-1.36c.71-.91,1.11-2.56,1.21-4.94h7.09Z" fill="#1d2d5c" stroke-width="0"/><path d="M316.08,483.05c0-3.96.93-7.06,2.8-9.32,1.87-2.25,4.45-3.38,7.75-3.38s5.93,1.13,7.79,3.38c1.87,2.25,2.8,5.37,2.8,9.36v1.67c0,3.97-.92,7.08-2.77,9.32-1.85,2.23-4.44,3.35-7.77,3.35s-5.94-1.13-7.81-3.37c-1.86-2.25-2.79-5.36-2.79-9.35v-1.67ZM322.93,484.76c0,4.67,1.25,7,3.74,7,2.3,0,3.54-1.95,3.72-5.84l.02-2.87c0-2.38-.33-4.15-.99-5.3-.66-1.15-1.59-1.73-2.8-1.73s-2.06.58-2.71,1.73c-.65,1.15-.98,2.92-.98,5.3v1.71Z" fill="#1d2d5c" stroke-width="0"/><path d="M347.22,470.84l.19,2.58c1.55-2.04,3.56-3.07,6.06-3.07,4.49,0,6.8,3.15,6.93,9.44v17.16h-6.85v-16.65c0-1.48-.22-2.55-.66-3.22-.44-.66-1.22-1-2.33-1-1.24,0-2.2.63-2.89,1.91v18.97h-6.85v-26.11h6.42Z" fill="#1d2d5c" stroke-width="0"/><path d="M372.74,464.42v6.42h3.5v5.12h-3.5v12.98c0,1.03.14,1.74.42,2.13.28.39.83.58,1.63.58.66,0,1.2-.05,1.62-.17l-.05,5.31c-1.16.44-2.41.65-3.76.65-4.41,0-6.64-2.53-6.69-7.58v-13.89h-3.01v-5.12h3.01v-6.42h6.83Z" fill="#1d2d5c" stroke-width="0"/><path d="M392.37,477.43l-2.26-.19c-1.87,0-3.13.82-3.79,2.46v17.25h-6.85v-26.11h6.45l.19,2.83c1.08-2.2,2.56-3.31,4.46-3.31.77,0,1.4.1,1.88.31l-.07,6.76Z" fill="#1d2d5c" stroke-width="0"/><path d="M393.7,483.05c0-3.96.93-7.06,2.8-9.32,1.87-2.25,4.45-3.38,7.75-3.38s5.93,1.13,7.79,3.38c1.87,2.25,2.8,5.37,2.8,9.36v1.67c0,3.97-.92,7.08-2.77,9.32-1.85,2.23-4.44,3.35-7.77,3.35s-5.95-1.13-7.81-3.37c-1.86-2.25-2.79-5.36-2.79-9.35v-1.67ZM400.56,484.76c0,4.67,1.25,7,3.74,7,2.3,0,3.54-1.95,3.72-5.84l.02-2.87c0-2.38-.33-4.15-.99-5.3-.66-1.15-1.59-1.73-2.8-1.73s-2.06.58-2.71,1.73c-.65,1.15-.98,2.92-.98,5.3v1.71Z" fill="#1d2d5c" stroke-width="0"/><rect x="418.91" y="459.88" width="6.85" height="37.07" fill="#1d2d5c" stroke-width="0"/><path d="M432.91,487.67c2.83,0,5.14,2.31,5.14,5.14s-2.31,5.12-5.14,5.12-5.12-2.3-5.12-5.12,2.3-5.14,5.12-5.14M432.91,497.08c2.37,0,4.27-1.91,4.27-4.27s-1.89-4.27-4.27-4.27-4.27,1.89-4.27,4.27,1.91,4.27,4.27,4.27M431.13,490.46c0-.14.11-.28.27-.28h2.03c.89,0,1.76.53,1.76,1.6s-.75,1.46-1.16,1.56c.29.56.57,1.13.86,1.68.1.17-.04.38-.25.38h-.48c-.12,0-.22-.11-.26-.2l-.8-1.79h-1.05v1.71c0,.14-.11.27-.27.27h-.37c-.16,0-.27-.13-.27-.27v-4.68ZM433.43,492.6c.53,0,.86-.37.86-.81,0-.49-.33-.81-.86-.81h-1.4v1.63h1.4Z" fill="#1d2d5c" stroke-width="0"/><path d="M274.85,302.81c-66.38,0-119.84-56.34-115.09-123.71,4.04-57.27,50.76-103.43,108.07-106.84,49.3-2.94,92.48,25.29,111.73,66.78.47,1,1.46,1.65,2.56,1.65h25.86c1.97,0,3.37-1.97,2.68-3.81-20.78-55.82-74.95-95.38-138.25-94.35-76.37,1.26-139.46,62.91-142.37,139.23-3.15,82.62,62.89,150.59,144.81,150.59,62.2,0,115.21-39.2,135.76-94.23.69-1.85-.72-3.81-2.68-3.81h-25.88c-1.1,0-2.08.64-2.55,1.64-18.36,39.44-58.35,66.87-104.64,66.87" fill="#fbb034" stroke-width="0"/><path d="M202.6,156.43c8.63,0,15.01,2.67,20.87,8.02.77.69.77,1.73.08,2.41l-6.73,6.99c-.6.6-1.55.6-2.16,0-3.19-2.85-7.42-4.4-11.64-4.4-9.75,0-16.91,8.11-16.91,17.76s7.25,17.51,16.99,17.51c4.06,0,8.45-1.47,11.56-4.14.61-.52,1.73-.52,2.25.08l6.73,7.16c.6.6.52,1.73-.09,2.33-5.87,5.69-13.28,8.36-20.96,8.36-17.25,0-31.14-13.71-31.14-30.96s13.89-31.14,31.14-31.14" fill="#1d2d5c" stroke-width="0"/><path d="M231.25,158.93c0-.86.69-1.64,1.64-1.64h25.79c10.35,0,18.81,8.36,18.81,18.63,0,7.93-5.27,14.32-12.77,17.34l11.81,21.9c.6,1.12,0,2.5-1.47,2.5h-11.47c-.69,0-1.21-.43-1.38-.78l-11.47-22.86h-5.95v21.99c0,.86-.77,1.64-1.64,1.64h-10.26c-.95,0-1.64-.78-1.64-1.64v-57.09ZM257.56,183.08c3.53,0,6.55-3.28,6.55-6.9s-3.02-6.55-6.55-6.55h-12.77v13.46h12.77Z" fill="#1d2d5c" stroke-width="0"/><path d="M288.95,157.29h10.35c.91,0,1.64.74,1.64,1.64v57.09c0,.91-.74,1.64-1.64,1.64h-10.35c-.91,0-1.64-.74-1.64-1.64v-57.09c0-.91.74-1.64,1.64-1.64Z" fill="#1d2d5c" stroke-width="0"/><path d="M310.6,209.47l4.06-7.16c.69-1.12,2.32-.95,2.93-.52.35.17,6.55,4.74,12.25,4.74,3.45,0,5.95-2.15,5.95-5.17,0-3.62-3.02-6.39-8.88-8.71-7.42-2.94-16.73-8.71-16.73-19.06,0-8.54,6.64-17.16,19.92-17.16,8.97,0,15.87,4.57,18.46,6.47,1.04.61.86,2.16.52,2.76l-4.4,6.64c-.6.95-2.15,1.73-2.93,1.12-.78-.43-7.08-5.18-12.34-5.18-3.1,0-5.43,2.07-5.43,4.4,0,3.19,2.58,5.61,9.4,8.36,6.72,2.68,17.42,7.94,17.42,19.67,0,8.88-7.68,17.85-20.36,17.85-11.21,0-17.42-4.66-19.4-6.64-.86-.86-1.12-1.2-.43-2.41" fill="#1d2d5c" stroke-width="0"/><path d="M386.32,156.43c8.62,0,15.01,2.67,20.87,8.02.77.69.77,1.73.08,2.41l-6.73,6.99c-.6.6-1.55.6-2.16,0-3.19-2.85-7.42-4.4-11.64-4.4-9.75,0-16.91,8.11-16.91,17.76s7.25,17.51,16.99,17.51c4.06,0,8.45-1.47,11.56-4.14.61-.52,1.73-.52,2.25.08l6.73,7.16c.6.6.52,1.73-.09,2.33-5.87,5.69-13.28,8.36-20.96,8.36-17.25,0-31.14-13.71-31.14-30.96s13.89-31.14,31.14-31.14" fill="#1d2d5c" stroke-width="0"/><path d="M414.92,208.39c2.83,0,5.14,2.31,5.14,5.14s-2.31,5.12-5.14,5.12-5.12-2.3-5.12-5.12,2.29-5.14,5.12-5.14M414.92,217.79c2.37,0,4.27-1.91,4.27-4.27s-1.89-4.27-4.27-4.27-4.27,1.9-4.27,4.27,1.91,4.27,4.27,4.27M413.15,211.17c0-.14.11-.28.27-.28h2.03c.89,0,1.76.53,1.76,1.6s-.75,1.46-1.16,1.56c.29.56.57,1.13.86,1.68.1.17-.04.38-.25.38h-.48c-.12,0-.22-.11-.26-.2l-.8-1.79h-1.05v1.71c0,.14-.11.27-.27.27h-.37c-.16,0-.27-.13-.27-.27v-4.68ZM415.44,213.31c.53,0,.86-.37.86-.81,0-.49-.33-.81-.86-.81h-1.4v1.63h1.4Z" fill="#1d2d5c" stroke-width="0"/></svg>