<?xml version="1.0" encoding="UTF-8"?>
<svg id="Layer_1" xmlns="http://www.w3.org/2000/svg" version="1.1" viewBox="0 0 30 30">
  <!-- Generator: Adobe Illustrator 29.5.0, SVG Export Plug-In . SVG Version: 2.1.0 Build 137)  -->
  <defs>
    <style>
      .st0 {
        fill: none;
      }

      .st1 {
        fill: #1d2d5c;
      }

      .st2 {
        fill: #fff;
      }
    </style>
  </defs>
  <circle class="st2" cx="14.97" cy="15.02" r="14.8"/>
  <g>
    <rect class="st0" x="2.97" y="3.02" width="24" height="24"/>
    <path class="st1" d="M14.97,13.52c-2.13,0-3.87-1.73-3.87-3.87s1.73-3.87,3.87-3.87,3.87,1.73,3.87,3.87-1.73,3.87-3.87,3.87ZM14.97,7.54c-1.17,0-2.12.95-2.12,2.12s.95,2.12,2.12,2.12,2.12-.95,2.12-2.12-.95-2.12-2.12-2.12Z"/>
    <path class="st1" d="M21.85,23.89h-13.76v-2.55c-.05-3.47,2.41-6.42,5.85-6.99.35-.05.69-.08,1.03-.08h0c1.84,0,3.56.71,4.86,2.01,1.3,1.3,2.02,3.03,2.02,4.87v2.74ZM9.84,22.14h10.26v-.99c0-1.37-.53-2.66-1.5-3.63-.97-.97-2.26-1.5-3.63-1.5h0c-.25,0-.5.02-.75.06-2.56.43-4.41,2.64-4.37,5.25v.82h-.01Z"/>
  </g>
</svg>