<?xml version="1.0" encoding="UTF-8"?>
<svg id="a" xmlns="http://www.w3.org/2000/svg" version="1.1" viewBox="0 0 550 550">
  <defs>
    <style>
      .cls-1 {
        fill: #6558b1;
      }

      .cls-1, .cls-2, .cls-3 {
        stroke-width: 0px;
      }

      .cls-2 {
        fill: #1d2d5c;
      }

      .cls-3 {
        fill: #f6f7f8;
      }
    </style>
  </defs>
  <path class="cls-3" d="M20,0h510c11,0,20,9,20,20v510c0,11-9,20-20,20H20c-11,0-20-9-20-20V20C0,9,9,0,20,0Z"/>
  <g>
    <path id="logoMark_PathItem_" data-name="logoMark PathItem " class="cls-1" d="M271.6,304.1c-63.8,0-115.4-51.8-115.3-115.6,0-2.7.1-5.4.3-8,4-57.2,50.7-103.4,108-106.8,47.4-2.9,91.7,23.6,111.7,66.8.5,1,1.5,1.6,2.6,1.6h25.9c1.6,0,2.8-1.3,2.9-2.8,0-.3,0-.7-.2-1-21.4-57.5-76.8-95.3-138.2-94.3-76.3,1.3-139.4,62.9-142.3,139.2-3.1,79.9,59.1,147.3,139.1,150.4,62.5,2.4,119.5-35.5,141.4-94.1.5-1.5-.2-3.1-1.7-3.6-.3-.1-.6-.2-1-.2h-25.9c-1.1,0-2.1.6-2.5,1.6-18.9,40.7-59.7,66.8-104.6,66.8h-.2,0Z"/>
    <path class="cls-2" d="M237.1,163.6c0-.8.7-1.5,1.5-1.5h9.6c.8,0,1.5.7,1.5,1.5v53.2c0,.8-.7,1.5-1.5,1.5h-9.6c-.8,0-1.5-.7-1.5-1.5v-53.2h0Z"/>
    <path class="cls-2" d="M274.1,173.8h-11.4c-.8,0-1.5-.7-1.5-1.5h0v-8.8c0-.8.7-1.5,1.5-1.5h35.7c.8,0,1.5.7,1.5,1.5h0v8.8c0,.8-.7,1.5-1.5,1.5h-11.5v42.9c0,.8-.7,1.5-1.5,1.5h-9.6c-.8,0-1.5-.7-1.5-1.5v-42.9h-.2Z"/>
    <path class="cls-2" d="M332.4,161.3c7.2-.2,14.2,2.5,19.4,7.5.6.5.7,1.5.2,2.1h-.1c0,.1-6.3,6.6-6.3,6.6-.5.6-1.4.6-2,0h0c-3-2.6-6.9-4.1-10.9-4.1-9.1,0-15.8,7.6-15.8,16.6s6.7,16.3,15.8,16.3,7.7-1.4,10.7-3.9c.6-.5,1.5-.5,2.1,0l6.3,6.7c.5.6.5,1.6,0,2.2-5.2,5.1-12.2,7.9-19.5,7.8-16,0-28.9-12.9-28.9-28.9s12.9-28.9,28.9-28.9h0Z"/>
    <path class="cls-2" d="M354.4,216.2l25.2-54.1c.3-.5.8-.9,1.4-.9h.8c.6,0,1.1.4,1.4.9l25.1,54.1c.4.7.1,1.6-.6,1.9-.2.1-.5.2-.8.2h-8.9c-1.4,0-2.1-.5-2.8-2l-2.9-6.4h-21.9l-2.9,6.4c-.5,1.2-1.6,2-2.9,1.9h-8.8c-.8,0-1.5-.5-1.5-1.3s0-.6.2-.8h-.1ZM387.4,199l-6.1-13.3h0l-6,13.3h12.2-.1Z"/>
    <path id="logoMark_CompoundPathItem_" data-name="logoMark CompoundPathItem " class="cls-2" d="M413.6,213.1h-1.4s-.2,0-.2-.2h0v-.5s0-.2.2-.2h3.8s.2,0,.2.2v.5s0,.2-.2.2h-1.4v5.1s0,.2-.2.2h-.6s-.2,0-.2-.2v-5.1h0Z"/>
    <path id="logoMark_CompoundPathItem_2" data-name="logoMark CompoundPathItem 2" class="cls-2" d="M417.7,212.3s0-.1.2-.1h.2l1.8,4.5h0l1.8-4.5h.2s.1,0,.2.1l1.1,5.9c0,.1,0,.2-.2.2h-.6s-.1,0-.2-.1l-.6-3.9h0l-1.6,4h-.4l-1.6-4h0l-.6,3.9s0,.1-.1.1h-.6c-.1,0-.2,0-.2-.2l1-5.9h.2Z"/>
    <polygon class="cls-1" points="196.2 224.9 166.1 211.7 176.4 208.2 196.3 216.8 215.2 208.8 225.4 212.4 196.2 224.9"/>
    <polygon class="cls-1" points="196.2 214.8 166.2 201.6 176.3 198.2 196.3 206.8 215.3 198.7 225.5 202.3 196.2 214.8"/>
    <polygon class="cls-1" points="196.2 204.6 166.2 191.5 176.4 188 196.3 196.7 215.1 188.5 225.5 192.2 196.2 204.6"/>
    <polygon class="cls-1" points="196.2 194.5 166.2 181.4 176.3 177.9 196.1 186.5 215.3 178.4 225.5 182.1 196.2 194.5"/>
    <polygon class="cls-1" points="196.2 184.4 166.2 171.3 195.5 161.2 225.5 172 196.2 184.4"/>
  </g>
  <g>
    <g>
      <path class="cls-2" d="M165.6,403.9h-7.5v-37.3h7.5v37.3Z"/>
      <path class="cls-2" d="M177.7,376.1l.2,2.8c1.5-2.1,3.9-3.3,6.4-3.3,4.8,0,7.2,3.3,7.4,10v18.3h-7.3v-17.7c0-1.2-.2-2.4-.7-3.4-.6-.8-1.5-1.2-2.5-1.1-1.3,0-2.5.8-3.1,2v20.2h-7.3v-27.8h6.9Z"/>
      <path class="cls-2" d="M198,403.9v-22.3h-3.4v-5.4h3.4v-2.5c-.1-2.6.7-5.2,2.4-7.2,1.7-1.8,4.2-2.7,6.6-2.5,1.1,0,2.2.2,3.3.5v5.8c-.6-.2-1.2-.2-1.8-.2-2.1,0-3.2,1.3-3.2,3.8v2.2h4.3v5.4h-4.3v22.3h-7.3Z"/>
      <path class="cls-2" d="M211.4,389.1c0-4.2,1-7.5,3-9.9,4.3-4.6,11.4-4.8,16-.6.2.2.4.4.6.6,2,2.4,3,5.7,3,10v1.8c0,4.2-1,7.5-3,9.9-4.3,4.6-11.5,4.8-16.1.5-.2-.2-.3-.3-.5-.5-2-2.4-3-5.7-3-9.9v-1.8h0ZM218.7,390.9c0,5,1.3,7.4,4,7.4s3.8-2.1,4-6.2v-3.1c.1-1.9-.2-3.9-1-5.6-.6-1.1-1.7-1.8-3-1.8s-2.4.7-2.9,1.8c-.8,1.8-1.1,3.7-1,5.6v1.8h-.1Z"/>
      <path class="cls-2" d="M251.5,383.1l-2.4-.2c-1.8-.1-3.4,1-4,2.6v18.3h-7.3v-27.8h6.9l.2,3c1.1-2.3,2.7-3.5,4.7-3.5s1.4,0,2,.3v7.2h0Z"/>
      <path class="cls-2" d="M261.6,376.1l.2,2.6c1.5-2,3.9-3.1,6.4-3.1,2.6-.1,4.9,1.4,5.9,3.8,1.4-2.4,4-3.8,6.8-3.8,4.9,0,7.4,3.4,7.5,10.1v18.2h-7.3v-17.7c0-1.2-.1-2.4-.7-3.4-.5-.7-1.4-1.1-2.3-1-1.4,0-2.4.8-3,2.5v19.7h-7.3v-17.7c0-1.2-.1-2.4-.6-3.4-.5-.7-1.4-1.2-2.3-1.1-1.3,0-2.5.8-3,2v20.2h-7.3v-27.8h7,0Z"/>
      <path class="cls-2" d="M306.4,403.9c-.3-.7-.5-1.4-.6-2.2-1.2,1.7-3.2,2.7-5.3,2.7s-4.3-.8-5.8-2.3-2.4-3.8-2.3-6c-.1-2.5.9-5,2.8-6.7,1.9-1.6,4.5-2.4,8-2.4h2.2v-2.2c0-.9-.1-1.9-.6-2.6-.5-.5-1.2-.8-1.9-.8-1.8,0-2.7,1.1-2.7,3.2h-7.3c0-2.4,1-4.8,2.9-6.3,2-1.7,4.6-2.6,7.3-2.5,3,0,5.4.8,7.1,2.4,1.8,1.8,2.7,4.3,2.5,6.8v13c0,1.9.3,3.8,1,5.6v.4h-7.3ZM302.1,398.7c.7,0,1.4-.1,2-.5.5-.3.9-.7,1.3-1.2v-5.8h-1.7c-1.1,0-2.2.4-2.9,1.2-.7.9-1.1,2-1.1,3.2,0,2,.8,3.1,2.4,3.1h0Z"/>
      <path class="cls-2" d="M325.8,369.3v6.8h3.7v5.4h-3.7v13.8c0,.8,0,1.6.5,2.3.4.5,1.1.7,1.7.6.6,0,1.2,0,1.7-.2v5.7c-1.3.5-2.6.7-4,.7-4.7,0-7-2.7-7.1-8.1v-14.8h-3.2v-5.4h3.2v-6.8h7.2,0Z"/>
      <path class="cls-2" d="M333,368.9c0-1,.4-2,1.1-2.8,1.6-1.4,4.1-1.4,5.7,0,.7.7,1.1,1.7,1.1,2.8.3,2.2-1.1,4.2-3.3,4.6-2.2.3-4.2-1.1-4.6-3.3v-1.3h0ZM340.6,403.9h-7.3v-27.8h7.3v27.8Z"/>
      <path class="cls-2" d="M344.8,389.1c0-4.2,1-7.5,3-9.9,4.3-4.6,11.4-4.8,16-.6l.6.6c2,2.4,3,5.7,3,10v1.8c0,4.2-1,7.5-3,9.9-4.3,4.6-11.5,4.8-16.1.5l-.5-.5c-2-2.4-3-5.7-3-9.9v-1.8h0ZM352.2,390.9c0,5,1.3,7.4,4,7.4s3.8-2.1,4-6.2v-3.1c.1-1.9-.2-3.9-1-5.6-.6-1.1-1.7-1.8-3-1.8s-2.5.7-3,1.8c-.8,1.8-1.1,3.7-1,5.6v1.8h0Z"/>
      <path class="cls-2" d="M377.9,376.1l.2,2.8c1.5-2.1,3.9-3.3,6.4-3.3,4.8,0,7.2,3.3,7.4,10v18.3h-7.3v-17.7c0-1.2-.2-2.4-.7-3.4-.6-.8-1.5-1.2-2.5-1.1-1.3,0-2.5.8-3.1,2v20.2h-7.2v-27.8h6.8Z"/>
    </g>
    <g>
      <path class="cls-2" d="M186.1,420.3h-9.2v31.1h-7.6v-31.1h-9.1v-6.3h25.9v6.3h0Z"/>
      <path class="cls-2" d="M193.6,451.8c-3.7,0-6.6-1.1-8.7-3.3-2.1-2.2-3.1-5.4-3.1-9.5v-2.2c0-4.4,1-7.8,2.9-10.1,1.9-2.4,4.6-3.6,8.2-3.6s6.1,1.1,7.9,3.3,2.7,5.5,2.7,9.9v3.6h-14.4c0,1.6.4,3.2,1.4,4.5,1,1,2.3,1.5,3.7,1.4,2.3,0,4.5-.8,6.1-2.5l2.9,4.4c-1,1.3-2.3,2.4-3.9,3-1.7.8-3.6,1.2-5.5,1.1h-.2,0ZM189,434.8h7.3v-.6c0-1.3-.2-2.6-.8-3.8-.6-.9-1.6-1.4-2.7-1.3-1.1,0-2.2.4-2.8,1.4-.7,1.3-1,2.8-1,4.3h0Z"/>
      <path class="cls-2" d="M217,445.8c2.1,0,3.2-1.4,3.2-4.1h6.8c0,2.7-.9,5.4-2.8,7.3-1.9,1.9-4.4,2.9-7.1,2.8-3.6,0-6.3-1.1-8.2-3.3s-2.8-5.5-2.9-9.8v-2.2c0-4.4.9-7.7,2.8-10s4.6-3.4,8.2-3.4c2.7-.1,5.3.9,7.2,2.9,1.8,1.9,2.7,4.6,2.7,8h-6.8c0-1.2-.2-2.5-.8-3.6-.5-.8-1.5-1.3-2.5-1.3s-2.1.4-2.7,1.3c-.5.9-.8,2.6-.9,5.2v2.8c0,1.6,0,3.2.3,4.7.1.8.5,1.5,1.1,2s1.4.7,2.2.6h.2Z"/>
      <path class="cls-2" d="M237.7,426c1.3-1.8,3.5-2.9,5.8-2.9,2.2-.1,4.4.9,5.8,2.7,1.3,1.8,2,4.4,2,7.9v17.6h-7.3v-17.6c0-1.2-.2-2.4-.8-3.5-.6-.8-1.5-1.2-2.5-1.1-1.3,0-2.5.7-3.1,1.8v20.4h-7.3v-39.4h7.3v14.1h.1Z"/>
      <path class="cls-2" d="M262.6,423.6l.2,2.7c1.5-2.1,3.9-3.3,6.4-3.2,4.8,0,7.2,3.3,7.4,10v18.2h-7.3v-17.7c0-1.2-.2-2.4-.7-3.4-.6-.8-1.5-1.2-2.5-1.1-1.3,0-2.5.8-3.1,2v20.2h-7.3v-27.7h6.9Z"/>
      <path class="cls-2" d="M280.4,436.6c0-4.2,1-7.5,3-9.9,4.3-4.6,11.4-4.8,16-.5l.5.5c2,2.4,3,5.7,3,10v1.8c0,4.2-1,7.5-3,9.9-4.3,4.6-11.5,4.8-16.1.5-.2-.1-.3-.3-.5-.5-2-2.4-3-5.7-3-9.9v-1.8h.1ZM287.7,438.4c0,5,1.3,7.4,4,7.4s3.8-2.1,4-6.2v-3c.1-1.9-.2-3.9-1-5.6-.6-1.1-1.7-1.9-3-1.8-1.2,0-2.4.7-2.9,1.8-.8,1.8-1.1,3.7-1,5.6v1.8h-.1Z"/>
      <path class="cls-2" d="M313.7,451.3h-7.3v-39.4h7.3v39.4Z"/>
      <path class="cls-2" d="M317.1,436.6c0-4.2,1-7.5,3-9.9,4.3-4.6,11.4-4.8,16-.5l.5.5c2,2.4,3,5.7,3,10v1.8c0,4.2-1,7.5-3,9.9-4.3,4.6-11.5,4.8-16.1.5-.2-.1-.3-.3-.5-.5-2-2.4-3-5.7-3-9.9v-1.8h.1ZM324.4,438.4c0,5,1.3,7.4,4,7.4s3.8-2.1,3.9-6.2v-3c.1-1.9-.2-3.9-1-5.6-.6-1.1-1.7-1.9-3-1.8-1.2,0-2.4.7-2.9,1.8-.8,1.8-1.1,3.7-1,5.6v1.8h0Z"/>
      <path class="cls-2" d="M342.7,436.6c0-4.5.8-7.9,2.5-10.2,1.6-2.2,4.2-3.5,6.9-3.3,2.3,0,4.5,1,5.8,3l.3-2.5h6.5v27.8c0,3.5-1,6.2-3,8.1s-4.8,2.8-8.5,2.8-3.3-.3-4.8-.9c-1.4-.4-2.7-1.2-3.7-2.3l2.4-5c.8.8,1.7,1.4,2.7,1.8s2,.7,3.1.7c1.3.1,2.6-.3,3.5-1.2.8-1.1,1.2-2.4,1.1-3.8v-2.4c-1.2,1.7-3.3,2.8-5.4,2.7-2.7.1-5.3-1.2-6.9-3.4-1.6-2.3-2.4-5.5-2.5-9.7v-2.1h0ZM350,438.4c-.1,1.9.2,3.8,1,5.6.6,1.2,1.9,1.8,3.2,1.8s2.6-.5,3.3-1.6v-13.3c-.7-1.1-1.9-1.8-3.3-1.8s-2.6.6-3.2,1.8c-.8,1.8-1.1,3.7-1,5.7v1.8Z"/>
      <path class="cls-2" d="M378.4,439.3l3.7-15.7h7.7l-9.1,31.9c-1.4,4.7-3.9,7.1-7.7,7.1s-2-.2-3-.5v-5.7h.8c.9,0,1.8-.2,2.5-.7.7-.6,1.1-1.4,1.3-2.3l.6-1.9-8-28h7.8l3.4,15.7h0Z"/>
    </g>
    <g>
      <path class="cls-2" d="M98.9,486.8c-.2,4.3-1.4,7.5-3.6,9.7s-5.3,3.3-9.3,3.3-7.5-1.4-9.7-4.2c-2.2-2.8-3.4-6.7-3.4-11.9v-6.3c0-5.1,1.2-9.1,3.5-11.9s5.6-4.2,9.7-4.2,7.2,1.1,9.3,3.4c2.1,2.3,3.3,5.5,3.6,9.8h-7.6c0-2.6-.5-4.4-1.2-5.4s-2.1-1.5-4.1-1.5c-1.7-.2-3.4.7-4.3,2.1-.8,1.4-1.3,3.7-1.3,7v7c0,3.7.4,6.2,1.2,7.6.9,1.4,2.6,2.2,4.3,2.1,2,0,3.4-.5,4.1-1.4s1.2-2.7,1.3-5.2h7.5Z"/>
      <path class="cls-2" d="M112.9,499.7c-3.7,0-6.6-1.1-8.7-3.3-2.1-2.2-3.1-5.4-3.1-9.5v-2.2c0-4.4,1-7.7,2.9-10.1s4.7-3.6,8.2-3.6,6.1,1.1,7.9,3.3,2.7,5.5,2.7,9.9v3.6h-14.4c0,1.6.4,3.2,1.4,4.5,1,1,2.3,1.5,3.7,1.4,2.3,0,4.5-.8,6.1-2.5l2.9,4.4c-1,1.3-2.3,2.4-3.9,3-1.7.7-3.6,1.1-5.5,1.1h-.2ZM108.3,482.7h7.3v-.7c0-1.3-.2-2.6-.8-3.8-.6-.9-1.6-1.4-2.7-1.3-1.1,0-2.1.4-2.8,1.4-.7,1.3-1,2.8-1,4.3h0Z"/>
      <path class="cls-2" d="M140,478.4l-2.4-.2c-1.8-.1-3.4,1-4,2.6v18.3h-7.3v-27.8h6.8l.2,3c1.1-2.3,2.7-3.5,4.7-3.5s1.4,0,2,.3v7.2h0Z"/>
      <path class="cls-2" d="M152.9,464.6v6.8h3.7v5.4h-3.7v13.8c0,.8,0,1.6.5,2.3.4.5,1.1.7,1.7.6.6,0,1.2,0,1.7-.2v5.6c-1.3.5-2.7.7-4,.7-4.7,0-7-2.7-7.1-8.1v-14.8h-3.2v-5.4h3.2v-6.8h7.3,0Z"/>
      <path class="cls-2" d="M160.1,464.2c0-1,.4-2,1.1-2.8,1.6-1.4,4.1-1.4,5.7,0,.7.7,1.1,1.7,1.1,2.8-.1,2.2-2,4-4.2,3.9-1,0-1.9-.4-2.6-1.1-.7-.7-1.1-1.7-1.1-2.8ZM167.7,499.2h-7.3v-27.8h7.3v27.8Z"/>
      <path class="cls-2" d="M174.4,499.2v-22.3h-3.3v-5.4h3.4v-2.5c-.1-2.6.7-5.2,2.4-7.1,1.7-1.8,4.2-2.7,6.6-2.6,1.1,0,2.2.2,3.3.5v5.8c-.6-.2-1.2-.2-1.8-.2-2.2,0-3.2,1.3-3.2,3.8v2.3h4.4v5.4h-4.3v22.3h-7.5,0Z"/>
      <path class="cls-2" d="M189.4,464.2c0-1,.4-2,1.1-2.8,1.6-1.4,4.1-1.4,5.8,0,.7.7,1.1,1.7,1.1,2.8.3,2.2-1.1,4.2-3.3,4.6-2.2.3-4.2-1.1-4.6-3.3v-1.3h-.1ZM197.1,499.2h-7.3v-27.8h7.3v27.8Z"/>
      <path class="cls-2" d="M213.4,499.7c-3.7,0-6.6-1.1-8.7-3.3-2.1-2.2-3.1-5.4-3.1-9.5v-2.2c0-4.4,1-7.7,2.9-10.1s4.7-3.6,8.2-3.6,6.1,1.1,7.9,3.3,2.7,5.5,2.7,9.9v3.6h-14.4c0,1.6.4,3.2,1.4,4.5,1,1,2.3,1.5,3.7,1.4,2.3,0,4.5-.8,6.1-2.5l2.9,4.4c-1,1.3-2.3,2.4-3.9,3-1.7.7-3.6,1.1-5.5,1.1h-.2,0ZM208.8,482.7h7.3v-.7c0-1.3-.2-2.6-.8-3.8-.6-.9-1.6-1.4-2.7-1.3-1.1,0-2.2.4-2.8,1.4-.7,1.3-1.1,2.8-1,4.3h0Z"/>
      <path class="cls-2" d="M225.8,484.5c0-4.6.8-7.9,2.3-10.2,1.5-2.2,4-3.5,6.7-3.4,2.1,0,4.1,1,5.3,2.8v-13.9h7.3v39.4h-6.6l-.3-2.8c-1.2,2-3.4,3.3-5.8,3.3-2.6.1-5.2-1.1-6.7-3.3-1.5-2.2-2.3-5.5-2.3-9.8v-2.1h.1ZM233.1,486.3c0,2.7.3,4.7.9,5.7.6,1.1,1.7,1.7,3,1.6,1.4,0,2.6-.7,3.3-1.9v-12.7c-.6-1.3-1.8-2.1-3.2-2.1s-2.3.6-2.9,1.6c-.6,1.1-.9,3-.9,5.8v1.9h-.2Z"/>
      <path class="cls-2" d="M282.1,491.5h-10.3l-2,7.6h-8l11.7-37.3h6.9l11.8,37.3h-8l-2-7.6h-.1ZM273.4,485.3h7l-3.5-13.3-3.5,13.3Z"/>
      <path class="cls-2" d="M307,491.8c0-.7-.4-1.3-.9-1.7-1.2-.9-2.5-1.6-3.9-2.1-3-1.2-5-2.5-6.2-3.8-1.1-1.4-1.7-3.1-1.7-4.9s.9-4.5,2.6-6c1.9-1.7,4.4-2.5,7-2.4,2.6-.1,5.2.7,7.3,2.4,1.8,1.6,2.8,3.9,2.7,6.3h-7.2c0-2.2-.9-3.4-2.8-3.4s-2.6,1-2.6,2.4v.3c0,.6.3,1.2.8,1.6,1.2.8,2.5,1.5,3.9,2,2.3.7,4.5,2,6.3,3.6,1.3,1.4,1.9,3.3,1.8,5.2,0,2.3-1,4.6-2.8,6-2.1,1.6-4.7,2.4-7.3,2.2-1.9,0-3.7-.4-5.4-1.2-1.5-.7-2.8-1.9-3.7-3.3-.9-1.4-1.3-3-1.3-4.6h6.9c0,1,.3,2,.9,2.9.7.7,1.7,1.1,2.7,1,1.9,0,2.9-1,2.9-2.7v.2h0Z"/>
      <path class="cls-2" d="M330.3,491.8c0-.7-.4-1.3-.9-1.7-1.2-.9-2.5-1.6-3.9-2.1-3-1.2-5-2.5-6.2-3.8-1.1-1.4-1.7-3.1-1.7-4.9s.9-4.5,2.6-6c1.9-1.7,4.4-2.5,7-2.4,2.6-.1,5.2.7,7.3,2.4,1.8,1.6,2.8,3.9,2.7,6.3h-7.3c0-2.2-.9-3.4-2.8-3.4s-2.6,1-2.6,2.4v.4c0,.6.3,1.2.8,1.6,1.2.8,2.5,1.5,3.9,2,2.3.7,4.5,2,6.3,3.6,1.3,1.4,1.9,3.3,1.8,5.2,0,2.3-1,4.6-2.8,6-2.1,1.6-4.7,2.4-7.3,2.2-1.9,0-3.7-.4-5.4-1.2-1.5-.7-2.8-1.9-3.7-3.3-.9-1.4-1.3-3-1.3-4.6h6.9c0,1,.3,2,.9,2.9.7.7,1.7,1.1,2.7,1,1.9,0,2.9-1,2.9-2.7h.1Z"/>
      <path class="cls-2" d="M340.5,484.4c0-4.2,1-7.5,3-9.9,4.3-4.6,11.4-4.8,16-.6l.6.6c2,2.4,3,5.7,3,9.9v1.8c0,4.2-1,7.5-3,9.9-4.3,4.6-11.5,4.8-16.1.4-.2-.1-.3-.3-.4-.4-2-2.4-3-5.7-3-9.9v-1.8h-.1ZM347.8,486.2c0,5,1.3,7.4,4,7.4s3.8-2.1,4-6.2v-3.1c.1-1.9-.2-3.9-1.1-5.6-.6-1.1-1.7-1.9-3-1.8-1.2,0-2.4.7-2.9,1.8-.8,1.8-1.1,3.7-1,5.6v1.8h0Z"/>
      <path class="cls-2" d="M377,493.7c2.1,0,3.2-1.4,3.2-4.1h6.8c0,2.7-.9,5.4-2.8,7.3s-4.4,2.9-7.1,2.8c-3.6,0-6.3-1.1-8.2-3.3-1.9-2.2-2.8-5.5-2.9-9.8v-2.2c0-4.4.9-7.7,2.8-10s4.6-3.4,8.2-3.4c2.7-.1,5.3.9,7.2,2.8,1.8,1.9,2.7,4.6,2.7,8h-6.8c0-1.2-.2-2.5-.8-3.6-.5-.9-1.5-1.3-2.5-1.2-1.1,0-2.1.4-2.7,1.3-.5.9-.8,2.6-.9,5.2v2.8c0,1.6,0,3.2.3,4.7.1.8.5,1.5,1.1,2s1.4.7,2.2.7h.2,0Z"/>
      <path class="cls-2" d="M390.6,464.2c0-1,.4-2,1.1-2.8,1.6-1.4,4.1-1.4,5.8,0,.7.7,1.1,1.7,1.1,2.8.3,2.2-1.1,4.2-3.3,4.6-2.2.3-4.2-1.1-4.6-3.3v-1.3h-.1ZM398.2,499.2h-7.3v-27.8h7.3v27.8Z"/>
      <path class="cls-2" d="M416.5,499.2c-.3-.7-.5-1.4-.6-2.1-1.2,1.7-3.2,2.7-5.3,2.7s-4.3-.8-5.8-2.3-2.4-3.8-2.3-6c-.2-2.6.9-5,2.8-6.7,1.8-1.6,4.5-2.4,8-2.4h2.2v-2.2c0-.9-.1-1.9-.6-2.6-.5-.5-1.2-.8-1.9-.8-1.8,0-2.7,1.1-2.7,3.2h-7.3c0-2.4,1-4.8,2.9-6.4,2-1.7,4.6-2.6,7.3-2.5,3,0,5.4.8,7.1,2.4,1.8,1.8,2.7,4.3,2.5,6.8v13.1c0,1.9.3,3.8,1,5.6v.4h-7.3v-.2h0ZM412.2,494c.7,0,1.4-.2,2-.5.5-.3.9-.7,1.3-1.1v-5.8h-1.7c-1.1,0-2.2.4-2.9,1.2-.7.9-1.1,2-1.1,3.1,0,2.1.8,3.1,2.5,3.1h0Z"/>
      <path class="cls-2" d="M435.9,464.6v6.8h3.7v5.4h-3.7v13.8c0,.8,0,1.6.5,2.3.4.5,1.1.7,1.7.6.6,0,1.2,0,1.7-.2v5.6c-1.3.5-2.6.7-4,.7-4.7,0-7-2.7-7.1-8.1v-14.8h-3.2v-5.4h3.2v-6.8h7.2,0Z"/>
      <path class="cls-2" d="M454.3,499.7c-3.7,0-6.6-1.1-8.7-3.3s-3.1-5.4-3.1-9.5v-2.2c0-4.4,1-7.7,2.9-10.1s4.7-3.6,8.2-3.6,6.1,1.1,7.9,3.3c1.8,2.2,2.7,5.5,2.7,9.9v3.6h-14.4c0,1.6.4,3.2,1.4,4.5,1,1,2.3,1.5,3.7,1.4,2.3,0,4.5-.8,6.1-2.5l2.8,4.4c-1,1.3-2.3,2.4-3.9,3-1.7.7-3.6,1.1-5.5,1.1h-.1ZM449.7,482.7h7.3v-.7c0-1.3-.2-2.6-.8-3.8-.6-.9-1.6-1.4-2.7-1.3-1.1,0-2.2.4-2.8,1.4-.7,1.3-1,2.8-1,4.3h0Z"/>
      <path id="logoMark_CompoundPathItem_3" data-name="logoMark CompoundPathItem 3" class="cls-2" d="M467.3,494.5h-1.4s-.2,0-.2-.2v-.5s0-.2.2-.2h3.8s.2,0,.2.2v.5s0,.2-.2.2h-1.4v5.1s0,.2-.2.2h-.6s-.2,0-.2-.2v-5.1h0Z"/>
      <path id="logoMark_CompoundPathItem_4" data-name="logoMark CompoundPathItem 4" class="cls-2" d="M471.4,493.8s0-.1.2-.1h.3l1.8,4.5h0l1.8-4.5h.3s.1,0,.2.1l1.1,5.9v.2h-.6s-.1,0-.2-.1l-.6-3.9h0l-1.6,4h-.5l-1.6-4h0l-.6,3.9s0,.1-.2.1h-.6s-.2,0-.2-.1h0l1-5.9h0Z"/>
    </g>
  </g>
</svg>